<?xml version="1.0" encoding="UTF-8"?>
<svg width="800" height="600" xmlns="http://www.w3.org/2000/svg">
  <!-- 背景 -->
  <rect width="800" height="600" fill="#f8f9fa" rx="10" ry="10"/>
  
  <!-- 标题 -->
  <text x="400" y="40" font-family="Arial" font-size="24" text-anchor="middle" font-weight="bold">流动性捕捉策略 (Liquidity Taking)</text>
  
  <!-- 订单簿时序图1 - 初始状态 -->
  <rect x="50" y="80" width="700" height="160" fill="#fff" rx="5" ry="5" stroke="#ccc" stroke-width="1"/>
  <text x="400" y="100" font-family="Arial" font-size="16" text-anchor="middle">初始订单簿状态</text>
  
  <!-- 订单簿表格1 -->
  <rect x="150" y="120" width="200" height="30" fill="#a5d6a7" rx="3" ry="3"/>
  <text x="250" y="140" font-family="Arial" font-size="14" text-anchor="middle">买单区域</text>
  
  <rect x="450" y="120" width="200" height="30" fill="#ef9a9a" rx="3" ry="3"/>
  <text x="550" y="140" font-family="Arial" font-size="14" text-anchor="middle">卖单区域</text>
  
  <!-- 订单数据行 -->
  <rect x="150" y="150" width="100" height="25" fill="#c8e6c9" rx="3" ry="3"/>
  <rect x="250" y="150" width="100" height="25" fill="#c8e6c9" rx="3" ry="3"/>
  <rect x="150" y="175" width="100" height="25" fill="#c8e6c9" rx="3" ry="3"/>
  <rect x="250" y="175" width="100" height="25" fill="#c8e6c9" rx="3" ry="3"/>
  <rect x="150" y="200" width="100" height="25" fill="#c8e6c9" rx="3" ry="3"/>
  <rect x="250" y="200" width="100" height="25" fill="#c8e6c9" rx="3" ry="3"/>
  
  <rect x="450" y="150" width="100" height="25" fill="#ffcdd2" rx="3" ry="3"/>
  <rect x="550" y="150" width="100" height="25" fill="#ffcdd2" rx="3" ry="3"/>
  <rect x="450" y="175" width="100" height="25" fill="#ffcdd2" rx="3" ry="3"/>
  <rect x="550" y="175" width="100" height="25" fill="#ffcdd2" rx="3" ry="3"/>
  <rect x="450" y="200" width="100" height="25" fill="#ffcdd2" rx="3" ry="3"/>
  <rect x="550" y="200" width="100" height="25" fill="#ffcdd2" rx="3" ry="3"/>
  
  <!-- 订单数据 -->
  <text x="200" y="167" font-family="Arial" font-size="14" text-anchor="middle">40,000</text>
  <text x="300" y="167" font-family="Arial" font-size="14" text-anchor="middle">3.2</text>
  <text x="200" y="192" font-family="Arial" font-size="14" text-anchor="middle">39,995</text>
  <text x="300" y="192" font-family="Arial" font-size="14" text-anchor="middle">7.1</text>
  <text x="200" y="217" font-family="Arial" font-size="14" text-anchor="middle">39,990</text>
  <text x="300" y="217" font-family="Arial" font-size="14" text-anchor="middle">12.5</text>
  
  <text x="500" y="167" font-family="Arial" font-size="14" text-anchor="middle">40,005</text>
  <text x="600" y="167" font-family="Arial" font-size="14" text-anchor="middle">2.5</text>
  <text x="500" y="192" font-family="Arial" font-size="14" text-anchor="middle">40,010</text>
  <text x="600" y="192" font-family="Arial" font-size="14" text-anchor="middle">5.8</text>
  <text x="500" y="217" font-family="Arial" font-size="14" text-anchor="middle">40,015</text>
  <text x="600" y="217" font-family="Arial" font-size="14" text-anchor="middle">10.2</text>
  
  <!-- 订单簿时序图2 - 流动性变化 -->
  <rect x="50" y="260" width="700" height="160" fill="#fff" rx="5" ry="5" stroke="#ccc" stroke-width="1"/>
  <text x="400" y="280" font-family="Arial" font-size="16" text-anchor="middle">流动性变化检测</text>
  
  <!-- 订单簿表格2 -->
  <rect x="150" y="300" width="200" height="30" fill="#a5d6a7" rx="3" ry="3"/>
  <text x="250" y="320" font-family="Arial" font-size="14" text-anchor="middle">买单区域</text>
  
  <rect x="450" y="300" width="200" height="30" fill="#ef9a9a" rx="3" ry="3"/>
  <text x="550" y="320" font-family="Arial" font-size="14" text-anchor="middle">卖单区域</text>
  
  <!-- 订单数据行2 -->
  <rect x="150" y="330" width="100" height="25" fill="#c8e6c9" rx="3" ry="3"/>
  <rect x="250" y="330" width="100" height="25" fill="#c8e6c9" rx="3" ry="3"/>
  <rect x="150" y="355" width="100" height="25" fill="#c8e6c9" rx="3" ry="3"/>
  <rect x="250" y="355" width="100" height="25" fill="#c8e6c9" rx="3" ry="3"/>
  <rect x="150" y="380" width="100" height="25" fill="#c8e6c9" rx="3" ry="3"/>
  <rect x="250" y="380" width="100" height="25" fill="#c8e6c9" rx="3" ry="3"/>
  
  <rect x="450" y="330" width="100" height="25" fill="#ffcdd2" rx="3" ry="3"/>
  <rect x="550" y="330" width="100" height="25" fill="#ffcdd2" rx="3" ry="3" stroke="#d32f2f" stroke-width="2"/>
  <rect x="450" y="355" width="100" height="25" fill="#ffcdd2" rx="3" ry="3"/>
  <rect x="550" y="355" width="100" height="25" fill="#ffcdd2" rx="3" ry="3"/>
  <rect x="450" y="380" width="100" height="25" fill="#ffcdd2" rx="3" ry="3"/>
  <rect x="550" y="380" width="100" height="25" fill="#ffcdd2" rx="3" ry="3"/>
  
  <!-- 订单数据2 -->
  <text x="200" y="347" font-family="Arial" font-size="14" text-anchor="middle">40,000</text>
  <text x="300" y="347" font-family="Arial" font-size="14" text-anchor="middle">3.2</text>
  <text x="200" y="372" font-family="Arial" font-size="14" text-anchor="middle">39,995</text>
  <text x="300" y="372" font-family="Arial" font-size="14" text-anchor="middle">7.1</text>
  <text x="200" y="397" font-family="Arial" font-size="14" text-anchor="middle">39,990</text>
  <text x="300" y="397" font-family="Arial" font-size="14" text-anchor="middle">12.5</text>
  
  <text x="500" y="347" font-family="Arial" font-size="14" text-anchor="middle">40,005</text>
  <text x="600" y="347" font-family="Arial" font-size="14" text-anchor="middle">15.2</text>
  <text x="500" y="372" font-family="Arial" font-size="14" text-anchor="middle">40,010</text>
  <text x="600" y="372" font-family="Arial" font-size="14" text-anchor="middle">5.8</text>
  <text x="500" y="397" font-family="Arial" font-size="14" text-anchor="middle">40,015</text>
  <text x="600" y="397" font-family="Arial" font-size="14" text-anchor="middle">10.2</text>
  
  <!-- 流动性变化标注 -->
  <line x1="600" y1="347" x2="700" y2="347" stroke="#d32f2f" stroke-width="1.5" stroke-dasharray="3,3"/>
  <text x="700" y="330" font-family="Arial" font-size="12" text-anchor="start" fill="#d32f2f">大单流入</text>
  <text x="700" y="345" font-family="Arial" font-size="12" text-anchor="start" fill="#d32f2f">+12.7 (508%)</text>
  <text x="700" y="360" font-family="Arial" font-size="12" text-anchor="start" fill="#d32f2f">卖单流动性增加</text>
  
  <!-- 策略动作箭头 -->
  <polygon points="400,430 380,440 400,450 420,440" fill="#03a9f4" stroke="#0277bd" stroke-width="1"/>
  
  <!-- 执行区域 -->
  <rect x="50" y="450" width="700" height="110" fill="#e8eaf6" rx="5" ry="5" stroke="#3f51b5" stroke-width="1"/>
  <text x="400" y="470" font-family="Arial" font-size="16" text-anchor="middle" fill="#3f51b5">流动性捕捉策略行动</text>
  
  <!-- 策略行动 -->
  <rect x="100" y="485" width="600" height="60" fill="#fff" rx="3" ry="3" stroke="#3f51b5" stroke-width="1"/>
  
  <text x="120" y="510" font-family="Arial" font-size="14" text-anchor="start">1. 检测到卖一价大量流动性增加 (+12.7 / 508%)</text>
  <text x="120" y="530" font-family="Arial" font-size="14" text-anchor="start">2. 可能预示大卖单即将到来，价格有下跌压力</text>
  <text x="490" y="510" font-family="Arial" font-size="14" text-anchor="start" fill="#f44336">策略行动: 先于市场抛售</text>
  <text x="490" y="530" font-family="Arial" font-size="14" text-anchor="start" fill="#f44336">下单: 卖出 2.0 @ 40,000</text>
  
  <!-- 底部注释 -->
  <text x="400" y="580" font-family="Arial" font-size="12" text-anchor="middle" fill="#666">流动性捕捉策略通过监测订单簿中的突然变化来预判市场动向，抢先于其他交易者行动</text>
</svg> 