<?xml version="1.0" encoding="UTF-8"?>
<svg width="800" height="600" xmlns="http://www.w3.org/2000/svg">
  <!-- 背景 -->
  <rect width="800" height="600" fill="#f8f9fa" rx="10" ry="10"/>
  
  <!-- 标题 -->
  <text x="400" y="40" font-family="Arial" font-size="24" text-anchor="middle" font-weight="bold">价差套利策略 (Spread Arbitrage)</text>
  
  <!-- 两个交易所区域 -->
  <rect x="50" y="70" width="320" height="220" fill="#fff" rx="5" ry="5" stroke="#7b1fa2" stroke-width="2"/>
  <rect x="430" y="70" width="320" height="220" fill="#fff" rx="5" ry="5" stroke="#0d47a1" stroke-width="2"/>
  
  <text x="210" y="95" font-family="Arial" font-size="18" text-anchor="middle" fill="#7b1fa2">交易所 A</text>
  <text x="590" y="95" font-family="Arial" font-size="18" text-anchor="middle" fill="#0d47a1">交易所 B</text>
  
  <!-- 交易所A订单簿 -->
  <!-- 表头 -->
  <rect x="80" y="110" width="120" height="30" fill="#e1bee7" rx="3" ry="3"/>
  <rect x="200" y="110" width="120" height="30" fill="#e1bee7" rx="3" ry="3"/>
  <text x="140" y="130" font-family="Arial" font-size="14" text-anchor="middle">买单区域</text>
  <text x="260" y="130" font-family="Arial" font-size="14" text-anchor="middle">卖单区域</text>
  
  <!-- 交易所A订单数据 -->
  <rect x="80" y="140" width="60" height="30" fill="#f3e5f5" rx="3" ry="3"/>
  <rect x="140" y="140" width="60" height="30" fill="#f3e5f5" rx="3" ry="3"/>
  <rect x="200" y="140" width="60" height="30" fill="#f3e5f5" rx="3" ry="3"/>
  <rect x="260" y="140" width="60" height="30" fill="#f3e5f5" rx="3" ry="3"/>
  <text x="110" y="160" font-family="Arial" font-size="12" text-anchor="middle">价格</text>
  <text x="170" y="160" font-family="Arial" font-size="12" text-anchor="middle">数量</text>
  <text x="230" y="160" font-family="Arial" font-size="12" text-anchor="middle">价格</text>
  <text x="290" y="160" font-family="Arial" font-size="12" text-anchor="middle">数量</text>
  
  <!-- 交易所A数据行 -->
  <rect x="80" y="170" width="60" height="25" fill="white" rx="3" ry="3" stroke="#7b1fa2" stroke-width="1"/>
  <rect x="140" y="170" width="60" height="25" fill="white" rx="3" ry="3" stroke="#7b1fa2" stroke-width="1"/>
  <rect x="200" y="170" width="60" height="25" fill="white" rx="3" ry="3" stroke="#7b1fa2" stroke-width="1"/>
  <rect x="260" y="170" width="60" height="25" fill="white" rx="3" ry="3" stroke="#7b1fa2" stroke-width="1"/>
  
  <rect x="80" y="195" width="60" height="25" fill="#f3e5f5" rx="3" ry="3"/>
  <rect x="140" y="195" width="60" height="25" fill="#f3e5f5" rx="3" ry="3"/>
  <rect x="200" y="195" width="60" height="25" fill="#f3e5f5" rx="3" ry="3"/>
  <rect x="260" y="195" width="60" height="25" fill="#f3e5f5" rx="3" ry="3"/>
  
  <rect x="80" y="220" width="60" height="25" fill="white" rx="3" ry="3"/>
  <rect x="140" y="220" width="60" height="25" fill="white" rx="3" ry="3"/>
  <rect x="200" y="220" width="60" height="25" fill="white" rx="3" ry="3"/>
  <rect x="260" y="220" width="60" height="25" fill="white" rx="3" ry="3"/>
  
  <rect x="80" y="245" width="60" height="25" fill="#f3e5f5" rx="3" ry="3"/>
  <rect x="140" y="245" width="60" height="25" fill="#f3e5f5" rx="3" ry="3"/>
  <rect x="200" y="245" width="60" height="25" fill="#f3e5f5" rx="3" ry="3"/>
  <rect x="260" y="245" width="60" height="25" fill="#f3e5f5" rx="3" ry="3"/>
  
  <!-- 交易所A数据 -->
  <text x="110" y="185" font-family="Arial" font-size="12" text-anchor="middle">40,000</text>
  <text x="170" y="185" font-family="Arial" font-size="12" text-anchor="middle">2.5</text>
  <text x="230" y="185" font-family="Arial" font-size="12" text-anchor="middle">40,010</text>
  <text x="290" y="185" font-family="Arial" font-size="12" text-anchor="middle">3.2</text>
  
  <text x="110" y="210" font-family="Arial" font-size="12" text-anchor="middle">39,995</text>
  <text x="170" y="210" font-family="Arial" font-size="12" text-anchor="middle">5.0</text>
  <text x="230" y="210" font-family="Arial" font-size="12" text-anchor="middle">40,015</text>
  <text x="290" y="210" font-family="Arial" font-size="12" text-anchor="middle">7.5</text>
  
  <text x="110" y="235" font-family="Arial" font-size="12" text-anchor="middle">39,990</text>
  <text x="170" y="235" font-family="Arial" font-size="12" text-anchor="middle">8.3</text>
  <text x="230" y="235" font-family="Arial" font-size="12" text-anchor="middle">40,020</text>
  <text x="290" y="235" font-family="Arial" font-size="12" text-anchor="middle">10.1</text>
  
  <text x="110" y="260" font-family="Arial" font-size="12" text-anchor="middle">39,985</text>
  <text x="170" y="260" font-family="Arial" font-size="12" text-anchor="middle">12.7</text>
  <text x="230" y="260" font-family="Arial" font-size="12" text-anchor="middle">40,025</text>
  <text x="290" y="260" font-family="Arial" font-size="12" text-anchor="middle">15.2</text>
  
  <!-- 交易所B订单簿 -->
  <!-- 表头 -->
  <rect x="460" y="110" width="120" height="30" fill="#bbdefb" rx="3" ry="3"/>
  <rect x="580" y="110" width="120" height="30" fill="#bbdefb" rx="3" ry="3"/>
  <text x="520" y="130" font-family="Arial" font-size="14" text-anchor="middle">买单区域</text>
  <text x="640" y="130" font-family="Arial" font-size="14" text-anchor="middle">卖单区域</text>
  
  <!-- 交易所B订单数据 -->
  <rect x="460" y="140" width="60" height="30" fill="#e3f2fd" rx="3" ry="3"/>
  <rect x="520" y="140" width="60" height="30" fill="#e3f2fd" rx="3" ry="3"/>
  <rect x="580" y="140" width="60" height="30" fill="#e3f2fd" rx="3" ry="3"/>
  <rect x="640" y="140" width="60" height="30" fill="#e3f2fd" rx="3" ry="3"/>
  <text x="490" y="160" font-family="Arial" font-size="12" text-anchor="middle">价格</text>
  <text x="550" y="160" font-family="Arial" font-size="12" text-anchor="middle">数量</text>
  <text x="610" y="160" font-family="Arial" font-size="12" text-anchor="middle">价格</text>
  <text x="670" y="160" font-family="Arial" font-size="12" text-anchor="middle">数量</text>
  
  <!-- 交易所B数据行 -->
  <rect x="460" y="170" width="60" height="25" fill="white" rx="3" ry="3" stroke="#0d47a1" stroke-width="1"/>
  <rect x="520" y="170" width="60" height="25" fill="white" rx="3" ry="3" stroke="#0d47a1" stroke-width="1"/>
  <rect x="580" y="170" width="60" height="25" fill="white" rx="3" ry="3" stroke="#0d47a1" stroke-width="1"/>
  <rect x="640" y="170" width="60" height="25" fill="white" rx="3" ry="3" stroke="#0d47a1" stroke-width="1"/>
  
  <rect x="460" y="195" width="60" height="25" fill="#e3f2fd" rx="3" ry="3"/>
  <rect x="520" y="195" width="60" height="25" fill="#e3f2fd" rx="3" ry="3"/>
  <rect x="580" y="195" width="60" height="25" fill="#e3f2fd" rx="3" ry="3"/>
  <rect x="640" y="195" width="60" height="25" fill="#e3f2fd" rx="3" ry="3"/>
  
  <rect x="460" y="220" width="60" height="25" fill="white" rx="3" ry="3"/>
  <rect x="520" y="220" width="60" height="25" fill="white" rx="3" ry="3"/>
  <rect x="580" y="220" width="60" height="25" fill="white" rx="3" ry="3"/>
  <rect x="640" y="220" width="60" height="25" fill="white" rx="3" ry="3"/>
  
  <rect x="460" y="245" width="60" height="25" fill="#e3f2fd" rx="3" ry="3"/>
  <rect x="520" y="245" width="60" height="25" fill="#e3f2fd" rx="3" ry="3"/>
  <rect x="580" y="245" width="60" height="25" fill="#e3f2fd" rx="3" ry="3"/>
  <rect x="640" y="245" width="60" height="25" fill="#e3f2fd" rx="3" ry="3"/>
  
  <!-- 交易所B数据 -->
  <text x="490" y="185" font-family="Arial" font-size="12" text-anchor="middle">40,012</text>
  <text x="550" y="185" font-family="Arial" font-size="12" text-anchor="middle">3.0</text>
  <text x="610" y="185" font-family="Arial" font-size="12" text-anchor="middle">40,018</text>
  <text x="670" y="185" font-family="Arial" font-size="12" text-anchor="middle">2.8</text>
  
  <text x="490" y="210" font-family="Arial" font-size="12" text-anchor="middle">40,008</text>
  <text x="550" y="210" font-family="Arial" font-size="12" text-anchor="middle">4.5</text>
  <text x="610" y="210" font-family="Arial" font-size="12" text-anchor="middle">40,022</text>
  <text x="670" y="210" font-family="Arial" font-size="12" text-anchor="middle">6.7</text>
  
  <text x="490" y="235" font-family="Arial" font-size="12" text-anchor="middle">40,005</text>
  <text x="550" y="235" font-family="Arial" font-size="12" text-anchor="middle">7.2</text>
  <text x="610" y="235" font-family="Arial" font-size="12" text-anchor="middle">40,028</text>
  <text x="670" y="235" font-family="Arial" font-size="12" text-anchor="middle">9.3</text>
  
  <text x="490" y="260" font-family="Arial" font-size="12" text-anchor="middle">40,000</text>
  <text x="550" y="260" font-family="Arial" font-size="12" text-anchor="middle">10.5</text>
  <text x="610" y="260" font-family="Arial" font-size="12" text-anchor="middle">40,032</text>
  <text x="670" y="260" font-family="Arial" font-size="12" text-anchor="middle">12.6</text>
  
  <!-- 套利机会标识 -->
  <line x1="230" y1="180" x2="610" y2="180" stroke="#f44336" stroke-width="2" stroke-dasharray="5,5"/>
  <polygon points="400,310 380,290 420,290" fill="#f44336"/>
  
  <!-- 套利图表 -->
  <rect x="100" y="330" width="600" height="230" fill="#fff" rx="5" ry="5" stroke="#ccc" stroke-width="1"/>
  <text x="400" y="355" font-family="Arial" font-size="18" text-anchor="middle">套利交易流程</text>
  
  <!-- 套利流程图 -->
  <rect x="150" y="380" width="180" height="60" fill="#e8f5e9" rx="5" ry="5" stroke="#388e3c" stroke-width="1"/>
  <text x="240" y="410" font-family="Arial" font-size="14" text-anchor="middle">在交易所A买入</text>
  <text x="240" y="430" font-family="Arial" font-size="14" text-anchor="middle">价格: 40,010  数量: 2.0</text>
  
  <rect x="470" y="380" width="180" height="60" fill="#ffebee" rx="5" ry="5" stroke="#d32f2f" stroke-width="1"/>
  <text x="560" y="410" font-family="Arial" font-size="14" text-anchor="middle">在交易所B卖出</text>
  <text x="560" y="430" font-family="Arial" font-size="14" text-anchor="middle">价格: 40,012  数量: 2.0</text>
  
  <line x1="330" y1="410" x2="470" y2="410" stroke="#333" stroke-width="1.5" marker-end="url(#arrow)"/>
  <defs>
    <marker id="arrow" markerWidth="10" markerHeight="10" refX="9" refY="3" orient="auto" markerUnits="strokeWidth">
      <path d="M0,0 L0,6 L9,3 z" fill="#333"/>
    </marker>
  </defs>
  
  <!-- 套利盈亏计算 -->
  <rect x="150" y="470" width="500" height="70" fill="#e3f2fd" rx="5" ry="5" stroke="#1565c0" stroke-width="1"/>
  
  <text x="170" y="495" font-family="Arial" font-size="14" text-anchor="start">买入成本: 40,010 × 2.0 = 80,020</text>
  <text x="170" y="520" font-family="Arial" font-size="14" text-anchor="start">卖出收入: 40,012 × 2.0 = 80,024</text>
  
  <line x1="400" y1="500" x2="600" y2="500" stroke="#ccc" stroke-width="1"/>
  
  <text x="480" y="525" font-family="Arial" font-size="14" text-anchor="start" font-weight="bold">净收益: +4 (0.005%)</text>
  
  <!-- 关键点说明 -->
  <text x="400" y="560" font-family="Arial" font-size="12" text-anchor="middle" fill="#555">考虑交易手续费、网络延迟和滑点后，实际套利空间需大于交易成本</text>
  <text x="400" y="580" font-family="Arial" font-size="12" text-anchor="middle" fill="#555">需要极低延迟执行以避免价格变动导致套利失败</text>
</svg> 