<?xml version="1.0" encoding="UTF-8" standalone="no"?>
<svg width="800" height="600" xmlns="http://www.w3.org/2000/svg">
  <!-- 背景 -->
  <rect width="800" height="600" fill="#f8f9fa" rx="10" ry="10"/>
  <text x="400" y="30" text-anchor="middle" font-family="Arial" font-size="20" font-weight="bold">冰山订单交互式探测工具</text>
  
  <!-- 主数据可视化区域 -->
  <rect x="50" y="60" width="700" height="300" fill="white" stroke="#ddd" stroke-width="1" rx="5" ry="5"/>
  
  <!-- 价格时间图区域 -->
  <rect x="50" y="60" width="700" height="30" fill="#f1f3f4" stroke="#ddd" stroke-width="1" rx="5 5 0 0" ry="5 5 0 0"/>
  <text x="80" y="80" font-family="Arial" font-size="12" font-weight="bold">BTC/USDT - 1分钟 K线</text>
  
  <!-- 图表控件 -->
  <rect x="570" y="65" width="20" height="20" fill="#f1f3f4" stroke="#ddd" stroke-width="1" rx="3" ry="3"/>
  <text x="580" y="80" text-anchor="middle" font-family="Arial" font-size="14">+</text>
  
  <rect x="600" y="65" width="20" height="20" fill="#f1f3f4" stroke="#ddd" stroke-width="1" rx="3" ry="3"/>
  <text x="610" y="80" text-anchor="middle" font-family="Arial" font-size="14">-</text>
  
  <rect x="630" y="65" width="20" height="20" fill="#f1f3f4" stroke="#ddd" stroke-width="1" rx="3" ry="3"/>
  <text x="640" y="80" text-anchor="middle" font-family="Arial" font-size="10">⚙</text>
  
  <!-- 模式标记 -->
  <rect x="660" y="65" width="70" height="20" fill="#e3f2fd" stroke="#bbdefb" stroke-width="1" rx="3" ry="3"/>
  <text x="695" y="80" text-anchor="middle" font-family="Arial" font-size="10">冰山标记</text>
  
  <!-- 价格时间图 -->
  <rect x="70" y="100" width="660" height="240" fill="#fafafa" stroke="#eee" stroke-width="1"/>
  
  <!-- 时间轴 -->
  <line x1="70" y1="320" x2="730" y2="320" stroke="#666" stroke-width="1"/>
  <text x="100" y="335" font-family="Arial" font-size="8">10:00</text>
  <text x="200" y="335" font-family="Arial" font-size="8">10:15</text>
  <text x="300" y="335" font-family="Arial" font-size="8">10:30</text>
  <text x="400" y="335" font-family="Arial" font-size="8">10:45</text>
  <text x="500" y="335" font-family="Arial" font-size="8">11:00</text>
  <text x="600" y="335" font-family="Arial" font-size="8">11:15</text>
  <text x="700" y="335" font-family="Arial" font-size="8">11:30</text>
  
  <!-- 价格轴 -->
  <line x1="70" y1="120" x2="70" y2="320" stroke="#666" stroke-width="1"/>
  <text x="60" y="125" font-family="Arial" font-size="8" text-anchor="end">27,440</text>
  <text x="60" y="175" font-family="Arial" font-size="8" text-anchor="end">27,438</text>
  <text x="60" y="225" font-family="Arial" font-size="8" text-anchor="end">27,436</text>
  <text x="60" y="275" font-family="Arial" font-size="8" text-anchor="end">27,434</text>
  <text x="60" y="325" font-family="Arial" font-size="8" text-anchor="end">27,432</text>
  
  <!-- K线图和成交量 -->
  <g id="candlesticks">
    <!-- 第1根K线 -->
    <line x1="100" y1="140" x2="100" y2="170" stroke="#666" stroke-width="1"/>
    <rect x="96" y="150" width="8" height="20" fill="#f44336" fill-opacity="0.7"/>
    
    <!-- 第2根K线 -->
    <line x1="120" y1="130" x2="120" y2="160" stroke="#666" stroke-width="1"/>
    <rect x="116" y="130" width="8" height="30" fill="#f44336" fill-opacity="0.7"/>
    
    <!-- 第3根K线 -->
    <line x1="140" y1="140" x2="140" y2="180" stroke="#666" stroke-width="1"/>
    <rect x="136" y="140" width="8" height="40" fill="#f44336" fill-opacity="0.7"/>
    
    <!-- 第4根K线 -->
    <line x1="160" y1="150" x2="160" y2="190" stroke="#666" stroke-width="1"/>
    <rect x="156" y="170" width="8" height="20" fill="#4caf50" fill-opacity="0.7"/>
    
    <!-- 第5根K线 -->
    <line x1="180" y1="140" x2="180" y2="180" stroke="#666" stroke-width="1"/>
    <rect x="176" y="140" width="8" height="40" fill="#f44336" fill-opacity="0.7"/>
    
    <!-- 第6根K线 -->
    <line x1="200" y1="130" x2="200" y2="170" stroke="#666" stroke-width="1"/>
    <rect x="196" y="150" width="8" height="20" fill="#4caf50" fill-opacity="0.7"/>
    
    <!-- 第7根K线 -->
    <line x1="220" y1="140" x2="220" y2="160" stroke="#666" stroke-width="1"/>
    <rect x="216" y="140" width="8" height="20" fill="#f44336" fill-opacity="0.7"/>
    
    <!-- 第8根K线 -->
    <line x1="240" y1="150" x2="240" y2="180" stroke="#666" stroke-width="1"/>
    <rect x="236" y="150" width="8" height="30" fill="#f44336" fill-opacity="0.7"/>
    
    <!-- 第9根K线 -->
    <line x1="260" y1="160" x2="260" y2="200" stroke="#666" stroke-width="1"/>
    <rect x="256" y="180" width="8" height="20" fill="#4caf50" fill-opacity="0.7"/>
    
    <!-- 第10根K线 -->
    <line x1="280" y1="170" x2="280" y2="210" stroke="#666" stroke-width="1"/>
    <rect x="276" y="190" width="8" height="20" fill="#4caf50" fill-opacity="0.7"/>
    
    <!-- 第11根K线 -->
    <line x1="300" y1="180" x2="300" y2="220" stroke="#666" stroke-width="1"/>
    <rect x="296" y="200" width="8" height="20" fill="#4caf50" fill-opacity="0.7"/>
    
    <!-- 第12根K线 -->
    <line x1="320" y1="160" x2="320" y2="210" stroke="#666" stroke-width="1"/>
    <rect x="316" y="160" width="8" height="50" fill="#f44336" fill-opacity="0.7"/>
    
    <!-- 第13根K线 -->
    <line x1="340" y1="150" x2="340" y2="190" stroke="#666" stroke-width="1"/>
    <rect x="336" y="150" width="8" height="40" fill="#f44336" fill-opacity="0.7"/>
    
    <!-- 第14根K线 -->
    <line x1="360" y1="140" x2="360" y2="180" stroke="#666" stroke-width="1"/>
    <rect x="356" y="140" width="8" height="40" fill="#f44336" fill-opacity="0.7"/>
    
    <!-- 第15根K线 -->
    <line x1="380" y1="150" x2="380" y2="190" stroke="#666" stroke-width="1"/>
    <rect x="376" y="170" width="8" height="20" fill="#4caf50" fill-opacity="0.7"/>
    
    <!-- 第16根K线 -->
    <line x1="400" y1="160" x2="400" y2="200" stroke="#666" stroke-width="1"/>
    <rect x="396" y="180" width="8" height="20" fill="#4caf50" fill-opacity="0.7"/>
    
    <!-- 第17根K线 -->
    <line x1="420" y1="150" x2="420" y2="180" stroke="#666" stroke-width="1"/>
    <rect x="416" y="150" width="8" height="30" fill="#f44336" fill-opacity="0.7"/>
    
    <!-- 第18根K线 -->
    <line x1="440" y1="140" x2="440" y2="180" stroke="#666" stroke-width="1"/>
    <rect x="436" y="160" width="8" height="20" fill="#4caf50" fill-opacity="0.7"/>
    
    <!-- 第19根K线 -->
    <line x1="460" y1="150" x2="460" y2="200" stroke="#666" stroke-width="1"/>
    <rect x="456" y="180" width="8" height="20" fill="#4caf50" fill-opacity="0.7"/>
    
    <!-- 第20根K线 -->
    <line x1="480" y1="170" x2="480" y2="210" stroke="#666" stroke-width="1"/>
    <rect x="476" y="190" width="8" height="20" fill="#4caf50" fill-opacity="0.7"/>
    
    <!-- 第21根K线 -->
    <line x1="500" y1="160" x2="500" y2="200" stroke="#666" stroke-width="1"/>
    <rect x="496" y="160" width="8" height="40" fill="#f44336" fill-opacity="0.7"/>
    
    <!-- 第22根K线 -->
    <line x1="520" y1="150" x2="520" y2="180" stroke="#666" stroke-width="1"/>
    <rect x="516" y="150" width="8" height="30" fill="#f44336" fill-opacity="0.7"/>
    
    <!-- 第23根K线 -->
    <line x1="540" y1="140" x2="540" y2="190" stroke="#666" stroke-width="1"/>
    <rect x="536" y="165" width="8" height="25" fill="#4caf50" fill-opacity="0.7"/>
    
    <!-- 第24根K线 -->
    <line x1="560" y1="130" x2="560" y2="170" stroke="#666" stroke-width="1"/>
    <rect x="556" y="150" width="8" height="20" fill="#4caf50" fill-opacity="0.7"/>
    
    <!-- 第25根K线 -->
    <line x1="580" y1="120" x2="580" y2="160" stroke="#666" stroke-width="1"/>
    <rect x="576" y="140" width="8" height="20" fill="#4caf50" fill-opacity="0.7"/>
    
    <!-- 第26根K线 -->
    <line x1="600" y1="130" x2="600" y2="170" stroke="#666" stroke-width="1"/>
    <rect x="596" y="150" width="8" height="20" fill="#4caf50" fill-opacity="0.7"/>
    
    <!-- 第27根K线 -->
    <line x1="620" y1="140" x2="620" y2="180" stroke="#666" stroke-width="1"/>
    <rect x="616" y="140" width="8" height="40" fill="#f44336" fill-opacity="0.7"/>
    
    <!-- 第28根K线 -->
    <line x1="640" y1="150" x2="640" y2="190" stroke="#666" stroke-width="1"/>
    <rect x="636" y="150" width="8" height="40" fill="#f44336" fill-opacity="0.7"/>
    
    <!-- 第29根K线 -->
    <line x1="660" y1="160" x2="660" y2="190" stroke="#666" stroke-width="1"/>
    <rect x="656" y="180" width="8" height="10" fill="#4caf50" fill-opacity="0.7"/>
    
    <!-- 第30根K线 -->
    <line x1="680" y1="170" x2="680" y2="200" stroke="#666" stroke-width="1"/>
    <rect x="676" y="180" width="8" height="20" fill="#4caf50" fill-opacity="0.7"/>
    
    <!-- 第31根K线 -->
    <line x1="700" y1="180" x2="700" y2="220" stroke="#666" stroke-width="1"/>
    <rect x="696" y="200" width="8" height="20" fill="#4caf50" fill-opacity="0.7"/>
  </g>
  
  <!-- 成交量异常区域 -->
  <rect x="310" y="160" width="60" height="50" stroke="#f44336" stroke-width="2" stroke-dasharray="4,2" fill="#f44336" fill-opacity="0.1" rx="3" ry="3"/>
  <text x="340" y="190" text-anchor="middle" font-family="Arial" font-size="10" fill="#f44336" font-weight="bold">冰山区域</text>
  
  <!-- 用户标记区域 -->
  <rect x="530" y="140" width="80" height="50" stroke="#2196f3" stroke-width="2" stroke-dasharray="4,2" fill="#2196f3" fill-opacity="0.1" rx="3" ry="3"/>
  <text x="570" y="170" text-anchor="middle" font-family="Arial" font-size="10" fill="#2196f3" font-weight="bold">用户标记</text>
  
  <!-- 辅助功能区域 -->
  <rect x="50" y="380" width="700" height="200" fill="white" stroke="#ddd" stroke-width="1" rx="5" ry="5"/>
  <text x="70" y="405" font-family="Arial" font-size="16" font-weight="bold">冰山探测控制面板</text>
  
  <!-- 标记控件区 -->
  <rect x="70" y="420" width="200" height="150" fill="#fafafa" stroke="#eee" stroke-width="1" rx="3" ry="3"/>
  <text x="170" y="440" text-anchor="middle" font-family="Arial" font-size="14" font-weight="bold">手动标记模式</text>
  
  <!-- 标记工具 -->
  <rect x="80" y="455" width="180" height="30" fill="#e3f2fd" stroke="#bbdefb" stroke-width="1" rx="15" ry="15"/>
  <text x="170" y="475" text-anchor="middle" font-family="Arial" font-size="12">标记疑似冰山区域</text>
  
  <rect x="80" y="495" width="180" height="30" fill="#fce4ec" stroke="#f8bbd0" stroke-width="1" rx="15" ry="15"/>
  <text x="170" y="515" text-anchor="middle" font-family="Arial" font-size="12">取消选定标记</text>
  
  <rect x="80" y="535" width="180" height="30" fill="#e8f5e9" stroke="#c8e6c9" stroke-width="1" rx="15" ry="15"/>
  <text x="170" y="555" text-anchor="middle" font-family="Arial" font-size="12">请求系统验证</text>
  
  <!-- 历史回放控件 -->
  <rect x="290" y="420" width="220" height="150" fill="#fafafa" stroke="#eee" stroke-width="1" rx="3" ry="3"/>
  <text x="400" y="440" text-anchor="middle" font-family="Arial" font-size="14" font-weight="bold">历史回放分析</text>
  
  <!-- 已确认冰山列表 -->
  <rect x="300" y="455" width="200" height="20" fill="#f5f5f5" stroke="#eee" stroke-width="1"/>
  <text x="310" y="470" font-family="Arial" font-size="10">冰山 #1: 27,438.00 (10:32)</text>
  
  <rect x="300" y="475" width="200" height="20" fill="#f5f5f5" stroke="#eee" stroke-width="1"/>
  <text x="310" y="490" font-family="Arial" font-size="10">冰山 #2: 27,434.00 (11:15)</text>
  
  <rect x="300" y="495" width="200" height="20" fill="#f5f5f5" stroke="#eee" stroke-width="1"/>
  <text x="310" y="510" font-family="Arial" font-size="10">冰山 #3: 27,450.00 (09:45)</text>
  
  <!-- 回放控件 -->
  <rect x="300" y="525" width="35" height="30" fill="#f5f5f5" stroke="#eee" stroke-width="1" rx="3" ry="3"/>
  <text x="317" y="545" text-anchor="middle" font-family="Arial" font-size="14">⏮</text>
  
  <rect x="340" y="525" width="35" height="30" fill="#f5f5f5" stroke="#eee" stroke-width="1" rx="3" ry="3"/>
  <text x="357" y="545" text-anchor="middle" font-family="Arial" font-size="14">⏯</text>
  
  <rect x="380" y="525" width="35" height="30" fill="#f5f5f5" stroke="#eee" stroke-width="1" rx="3" ry="3"/>
  <text x="397" y="545" text-anchor="middle" font-family="Arial" font-size="14">⏭</text>
  
  <rect x="425" y="525" width="75" height="30" fill="#f5f5f5" stroke="#eee" stroke-width="1" rx="3" ry="3"/>
  <text x="462" y="545" text-anchor="middle" font-family="Arial" font-size="12">速率: 1x</text>
  
  <!-- 灵敏度控制 -->
  <rect x="530" y="420" width="200" height="150" fill="#fafafa" stroke="#eee" stroke-width="1" rx="3" ry="3"/>
  <text x="630" y="440" text-anchor="middle" font-family="Arial" font-size="14" font-weight="bold">灵敏度调节</text>
  
  <!-- 灵敏度滑块 -->
  <text x="545" y="465" font-family="Arial" font-size="12">重复模式灵敏度</text>
  <rect x="545" y="475" width="170" height="5" fill="#e0e0e0" rx="2.5" ry="2.5"/>
  <circle cx="650" cy="477.5" r="7" fill="white" stroke="#1976d2" stroke-width="2"/>
  
  <text x="545" y="500" font-family="Arial" font-size="12">成交量异常灵敏度</text>
  <rect x="545" y="510" width="170" height="5" fill="#e0e0e0" rx="2.5" ry="2.5"/>
  <circle cx="615" cy="512.5" r="7" fill="white" stroke="#1976d2" stroke-width="2"/>
  
  <text x="545" y="535" font-family="Arial" font-size="12">总体灵敏度</text>
  <rect x="545" y="545" width="170" height="5" fill="#e0e0e0" rx="2.5" ry="2.5"/>
  <circle cx="680" cy="547.5" r="7" fill="white" stroke="#1976d2" stroke-width="2"/>
  
  <!-- 探测结果信息框 -->
  <rect x="70" y="575" width="660" height="30" fill="#e8f5e9" stroke="#c8e6c9" stroke-width="1" rx="3" ry="3"/>
  <text x="90" y="595" font-family="Arial" font-size="12" fill="#1b5e20">探测结果: 在27,438.00价位发现高置信度(85%)冰山订单，估计总量约12.8 BTC，类型为防御型</text>
</svg> 