<?xml version="1.0" encoding="UTF-8" standalone="no"?>
<svg width="800" height="500" xmlns="http://www.w3.org/2000/svg">
  <!-- 背景 -->
  <rect width="800" height="500" fill="#f8f9fa" rx="10" ry="10"/>
  <text x="400" y="30" text-anchor="middle" font-family="Arial" font-size="20" font-weight="bold">冰山订单探测策略概览</text>
  
  <!-- 主要区域背景 -->
  <rect x="50" y="60" width="700" height="250" fill="white" stroke="#ddd" stroke-width="1" rx="5" ry="5"/>
  
  <!-- 订单簿可视化 -->
  <rect x="70" y="90" width="200" height="190" fill="#f5f5f5" stroke="#ddd" stroke-width="1" rx="3" ry="3"/>
  <text x="170" y="110" text-anchor="middle" font-family="Arial" font-size="14" font-weight="bold">订单簿显示</text>
  
  <!-- 卖单区域 -->
  <rect x="90" y="120" width="160" height="20" fill="#ffcdd2" fill-opacity="0.3" stroke="#ddd" stroke-width="1"/>
  <text x="110" y="134" font-family="Arial" font-size="10">27,438.50</text>
  <text x="170" y="134" font-family="Arial" font-size="10">0.52</text>
  <text x="220" y="134" font-family="Arial" font-size="10">BTC</text>
  
  <rect x="90" y="140" width="160" height="20" fill="#ffcdd2" fill-opacity="0.3" stroke="#ddd" stroke-width="1"/>
  <text x="110" y="154" font-family="Arial" font-size="10">27,438.00</text>
  <text x="170" y="154" font-family="Arial" font-size="10">1.34</text>
  <text x="220" y="154" font-family="Arial" font-size="10">BTC</text>
  
  <!-- 冰山订单可能位置 -->
  <rect x="90" y="160" width="160" height="20" fill="#ffcdd2" fill-opacity="0.3" stroke="#ddd" stroke-width="1"/>
  <text x="110" y="174" font-family="Arial" font-size="10">27,437.50</text>
  <text x="170" y="174" font-family="Arial" font-size="10">1.25</text>
  <text x="220" y="174" font-family="Arial" font-size="10">BTC</text>
  
  <rect x="90" y="180" width="160" height="20" fill="#ffcdd2" fill-opacity="0.3" stroke="#ddd" stroke-width="1"/>
  <text x="110" y="194" font-family="Arial" font-size="10">27,437.00</text>
  <text x="170" y="194" font-family="Arial" font-size="10">0.89</text>
  <text x="220" y="194" font-family="Arial" font-size="10">BTC</text>
  
  <!-- 中间价格线 -->
  <line x1="90" y1="200" x2="250" y2="200" stroke="#90a4ae" stroke-width="1" stroke-dasharray="2,2"/>
  <text x="260" y="205" font-family="Arial" font-size="10" fill="#546e7a">当前价格</text>
  
  <!-- 买单区域 -->
  <rect x="90" y="200" width="160" height="20" fill="#c8e6c9" fill-opacity="0.3" stroke="#ddd" stroke-width="1"/>
  <text x="110" y="214" font-family="Arial" font-size="10">27,436.50</text>
  <text x="170" y="214" font-family="Arial" font-size="10">1.28</text>
  <text x="220" y="214" font-family="Arial" font-size="10">BTC</text>
  
  <rect x="90" y="220" width="160" height="20" fill="#c8e6c9" fill-opacity="0.3" stroke="#ddd" stroke-width="1"/>
  <text x="110" y="234" font-family="Arial" font-size="10">27,436.00</text>
  <text x="170" y="234" font-family="Arial" font-size="10">0.75</text>
  <text x="220" y="234" font-family="Arial" font-size="10">BTC</text>
  
  <rect x="90" y="240" width="160" height="20" fill="#c8e6c9" fill-opacity="0.3" stroke="#ddd" stroke-width="1"/>
  <text x="110" y="254" font-family="Arial" font-size="10">27,435.50</text>
  <text x="170" y="254" font-family="Arial" font-size="10">1.42</text>
  <text x="220" y="254" font-family="Arial" font-size="10">BTC</text>
  
  <!-- 表头 -->
  <text x="110" y="114" font-family="Arial" font-size="9" fill="#666">价格</text>
  <text x="170" y="114" font-family="Arial" font-size="9" fill="#666">数量</text>
  
  <!-- 冰山模式检测器 -->
  <rect x="300" y="90" width="200" height="190" fill="#e3f2fd" stroke="#bbdefb" stroke-width="1" rx="3" ry="3"/>
  <text x="400" y="110" text-anchor="middle" font-family="Arial" font-size="14" font-weight="bold">冰山模式检测器</text>
  
  <!-- 检测特征 -->
  <text x="320" y="135" font-family="Arial" font-size="11">1. 重复补充模式</text>
  <rect x="320" y="145" width="160" height="8" fill="#f5f5f5" stroke="#ddd" stroke-width="1" rx="4" ry="4"/>
  <rect x="320" y="145" width="120" height="8" fill="#f44336" fill-opacity="0.7" rx="4" ry="4"/>
  <text x="485" y="147" font-family="Arial" font-size="9" fill="#f44336">75%</text>
  
  <text x="320" y="165" font-family="Arial" font-size="11">2. 成交量异常</text>
  <rect x="320" y="175" width="160" height="8" fill="#f5f5f5" stroke="#ddd" stroke-width="1" rx="4" ry="4"/>
  <rect x="320" y="175" width="96" height="8" fill="#2196f3" fill-opacity="0.7" rx="4" ry="4"/>
  <text x="485" y="177" font-family="Arial" font-size="9" fill="#2196f3">60%</text>
  
  <text x="320" y="195" font-family="Arial" font-size="11">3. 深度不连续性</text>
  <rect x="320" y="205" width="160" height="8" fill="#f5f5f5" stroke="#ddd" stroke-width="1" rx="4" ry="4"/>
  <rect x="320" y="205" width="80" height="8" fill="#4caf50" fill-opacity="0.7" rx="4" ry="4"/>
  <text x="485" y="207" font-family="Arial" font-size="9" fill="#4caf50">50%</text>
  
  <text x="320" y="225" font-family="Arial" font-size="11">4. 价格反弹模式</text>
  <rect x="320" y="235" width="160" height="8" fill="#f5f5f5" stroke="#ddd" stroke-width="1" rx="4" ry="4"/>
  <rect x="320" y="235" width="64" height="8" fill="#ff9800" fill-opacity="0.7" rx="4" ry="4"/>
  <text x="485" y="237" font-family="Arial" font-size="9" fill="#ff9800">40%</text>
  
  <text x="320" y="255" font-family="Arial" font-size="11">综合置信度</text>
  <rect x="320" y="265" width="160" height="8" fill="#f5f5f5" stroke="#ddd" stroke-width="1" rx="4" ry="4"/>
  <rect x="320" y="265" width="125" height="8" fill="#673ab7" fill-opacity="0.7" rx="4" ry="4"/>
  <text x="485" y="267" font-family="Arial" font-size="9" fill="#673ab7">78%</text>
  
  <!-- 冰山特征分析 -->
  <rect x="530" y="90" width="200" height="190" fill="#fff3e0" stroke="#ffe0b2" stroke-width="1" rx="3" ry="3"/>
  <text x="630" y="110" text-anchor="middle" font-family="Arial" font-size="14" font-weight="bold">冰山特征分析</text>
  
  <!-- 特征列表 -->
  <rect x="550" y="130" width="160" height="110" fill="#fffde7" stroke="#fff9c4" stroke-width="1" rx="3" ry="3"/>
  <text x="560" y="150" font-family="Arial" font-size="11" font-weight="bold">检测到的冰山订单:</text>
  <text x="560" y="170" font-family="Arial" font-size="10">• 价格: 27,437.50</text>
  <text x="560" y="190" font-family="Arial" font-size="10">• 可见数量: 1.25 BTC</text>
  <text x="560" y="210" font-family="Arial" font-size="10">• 估计总量: ~12.8 BTC</text>
  <text x="560" y="230" font-family="Arial" font-size="10">• 类型: 防御型冰山</text>
  
  <!-- 交易决策 -->
  <rect x="550" y="250" width="160" height="20" fill="#d1c4e9" stroke="#b39ddb" stroke-width="1" rx="10" ry="10"/>
  <text x="630" y="264" text-anchor="middle" font-family="Arial" font-size="12" fill="#4527a0" font-weight="bold">建议交易方向: 做空</text>
  
  <!-- 连接线 -->
  <line x1="270" y1="180" x2="300" y2="180" stroke="#666" stroke-width="1.5" marker-end="url(#arrow)"/>
  <line x1="500" y1="180" x2="530" y2="180" stroke="#666" stroke-width="1.5" marker-end="url(#arrow)"/>
  
  <!-- 箭头标记定义 -->
  <defs>
    <marker id="arrow" markerWidth="10" markerHeight="10" refX="9" refY="3" orient="auto" markerUnits="strokeWidth">
      <path d="M0,0 L0,6 L9,3 z" fill="#666"/>
    </marker>
  </defs>
  
  <!-- 冰山订单示意图 -->
  <rect x="90" y="160" width="160" height="20" stroke="#f44336" stroke-width="1.5" stroke-dasharray="5,2" fill="none" rx="2" ry="2"/>
  <line x1="250" y1="170" x2="280" y2="150" stroke="#f44336" stroke-width="1" stroke-dasharray="3,3"/>
  <rect x="280" y="130" width="60" height="40" fill="#f44336" fill-opacity="0.1" stroke="#f44336" stroke-width="1.5" rx="3" ry="3"/>
  <text x="310" y="150" text-anchor="middle" font-family="Arial" font-size="9">冰山</text>
  <text x="310" y="165" text-anchor="middle" font-family="Arial" font-size="9">探测</text>
  
  <!-- 数据可视化图表 -->
  <rect x="420" y="130" width="100" height="60" fill="#f5f5f5" stroke="#ddd" stroke-width="1"/>
  
  <!-- 成交量柱状图 -->
  <rect x="430" y="170" width="10" height="10" fill="#2196f3" fill-opacity="0.7"/>
  <rect x="445" y="160" width="10" height="20" fill="#2196f3" fill-opacity="0.7"/>
  <rect x="460" y="140" width="10" height="40" fill="#f44336" fill-opacity="0.7"/>
  <rect x="475" y="165" width="10" height="15" fill="#2196f3" fill-opacity="0.7"/>
  <rect x="490" y="155" width="10" height="25" fill="#2196f3" fill-opacity="0.7"/>
  <line x1="430" y1="180" x2="500" y2="180" stroke="#666" stroke-width="1"/>
  <line x1="430" y1="140" x2="430" y2="180" stroke="#666" stroke-width="1"/>
  <text x="465" y="190" text-anchor="middle" font-family="Arial" font-size="8">成交量异常</text>
  
  <!-- 策略说明区域 -->
  <rect x="50" y="330" width="700" height="150" fill="#e8f5e9" stroke="#c8e6c9" stroke-width="1" rx="5" ry="5"/>
  <text x="70" y="355" font-family="Arial" font-size="16" font-weight="bold">冰山订单探测策略核心原理：</text>
  
  <text x="70" y="385" font-family="Arial" font-size="12">1. 监控订单簿中特定价位的挂单量被成交后又快速补充的重复模式</text>
  <text x="70" y="410" font-family="Arial" font-size="12">2. 分析成交量分布中的异常，检测是否存在超出正常水平的交易活动</text>
  <text x="70" y="435" font-family="Arial" font-size="12">3. 通过多种模式特征综合评估，确认冰山订单的存在、位置和规模</text>
  <text x="70" y="460" font-family="Arial" font-size="12">4. 根据冰山订单对价格的潜在影响，制定相应的交易策略</text>
  
  <!-- 冰山订单示意 -->
  <rect x="600" y="375" width="120" height="100" fill="#e3f2fd" stroke="#bbdefb" stroke-width="1.5" rx="3" ry="3"/>
  <text x="660" y="395" text-anchor="middle" font-family="Arial" font-size="12" font-weight="bold">冰山订单比喻</text>
  <path d="M 610,425 L 630,425 L 640,415 L 650,425 L 670,425 L 680,415 L 690,425 L 710,425 L 710,465 L 610,465 Z" fill="#90caf9" fill-opacity="0.8" stroke="#42a5f5" stroke-width="1.5"/>
  <path d="M 640,425 L 650,415 L 660,425 L 680,425 L 690,415 L 710,425 L 710,445 L 640,445 Z" fill="#e3f2fd" stroke="#42a5f5" stroke-width="1" stroke-dasharray="3,1"/>
  <text x="660" y="458" text-anchor="middle" font-family="Arial" font-size="10">仅露出冰山一角</text>
</svg>