<?xml version="1.0" encoding="UTF-8" standalone="no"?>
<svg width="1000" height="600" xmlns="http://www.w3.org/2000/svg">
  <!-- 背景 -->
  <rect width="1000" height="600" fill="#f8f9fa" rx="10" ry="10"/>
  <text x="500" y="30" text-anchor="middle" font-family="Arial" font-size="20" font-weight="bold">冰山订单探测策略监控面板</text>
  
  <!-- 顶部状态栏 -->
  <rect x="50" y="50" width="900" height="40" fill="#f1f3f4" stroke="#ddd" stroke-width="1" rx="5" ry="5"/>
  <circle cx="70" cy="70" r="6" fill="#4caf50"/>
  <text x="90" y="75" font-family="Arial" font-size="14" font-weight="bold" fill="#4caf50">策略状态: 运行中</text>
  <text x="250" y="75" font-family="Arial" font-size="14">交易对: BTC/USDT</text>
  <text x="420" y="75" font-family="Arial" font-size="14">交易所: Binance</text>
  <text x="600" y="75" font-family="Arial" font-size="14">运行时间: 5小时42分钟</text>
  <text x="800" y="75" font-family="Arial" font-size="14">刷新间隔: 500ms</text>
  
  <!-- 冰山订单雷达面板 -->
  <rect x="50" y="110" width="600" height="230" fill="white" stroke="#ddd" stroke-width="1" rx="5" ry="5"/>
  <text x="70" y="135" font-family="Arial" font-size="16" font-weight="bold">冰山订单雷达</text>
  
  <!-- 价格热图 -->
  <rect x="70" y="150" width="560" height="170" fill="#fafafa" stroke="#eee" stroke-width="1"/>
  
  <!-- 卖单区域 -->
  <rect x="70" y="150" width="560" height="85" fill="#fff5f5" stroke="#eee" stroke-width="1"/>
  
  <!-- 卖单热图阶梯 -->
  <rect x="70" y="150" width="560" height="17" fill="#ffebee" fill-opacity="0.4" stroke="#eee" stroke-width="1"/>
  <rect x="70" y="167" width="560" height="17" fill="#ffebee" fill-opacity="0.5" stroke="#eee" stroke-width="1"/>
  <rect x="70" y="184" width="560" height="17" fill="#ffebee" fill-opacity="0.6" stroke="#eee" stroke-width="1"/>
  <rect x="70" y="201" width="560" height="17" fill="#ffebee" fill-opacity="0.7" stroke="#eee" stroke-width="1"/>
  <rect x="70" y="218" width="560" height="17" fill="#ffebee" fill-opacity="0.8" stroke="#eee" stroke-width="1"/>
  
  <!-- 买单区域 -->
  <rect x="70" y="235" width="560" height="85" fill="#f5fff5" stroke="#eee" stroke-width="1"/>
  
  <!-- 买单热图阶梯 -->
  <rect x="70" y="235" width="560" height="17" fill="#e8f5e9" fill-opacity="0.8" stroke="#eee" stroke-width="1"/>
  <rect x="70" y="252" width="560" height="17" fill="#e8f5e9" fill-opacity="0.7" stroke="#eee" stroke-width="1"/>
  <rect x="70" y="269" width="560" height="17" fill="#e8f5e9" fill-opacity="0.6" stroke="#eee" stroke-width="1"/>
  <rect x="70" y="286" width="560" height="17" fill="#e8f5e9" fill-opacity="0.5" stroke="#eee" stroke-width="1"/>
  <rect x="70" y="303" width="560" height="17" fill="#e8f5e9" fill-opacity="0.4" stroke="#eee" stroke-width="1"/>
  
  <!-- 价格刻度 -->
  <text x="90" y="164" font-family="Arial" font-size="10">27,440</text>
  <text x="90" y="181" font-family="Arial" font-size="10">27,439</text>
  <text x="90" y="198" font-family="Arial" font-size="10">27,438</text>
  <text x="90" y="215" font-family="Arial" font-size="10">27,437</text>
  <text x="90" y="232" font-family="Arial" font-size="10">27,436</text>
  <text x="90" y="249" font-family="Arial" font-size="10">27,435</text>
  <text x="90" y="266" font-family="Arial" font-size="10">27,434</text>
  <text x="90" y="283" font-family="Arial" font-size="10">27,433</text>
  <text x="90" y="300" font-family="Arial" font-size="10">27,432</text>
  <text x="90" y="317" font-family="Arial" font-size="10">27,431</text>
  
  <!-- 当前价格线 -->
  <line x1="70" y1="235" x2="630" y2="235" stroke="#90a4ae" stroke-width="1" stroke-dasharray="2,2"/>
  <rect x="135" y="225" width="40" height="20" fill="#90a4ae" rx="10" ry="10"/>
  <text x="155" y="238" text-anchor="middle" font-family="Arial" font-size="10" fill="white">27,435.5</text>
  
  <!-- 冰山订单标记 -->
  <!-- 卖单冰山 -->
  <rect x="70" y="184" width="560" height="17" stroke="#f44336" stroke-width="2" stroke-dasharray="4,2" fill="none" rx="2" ry="2"/>
  <circle cx="350" cy="192" r="10" fill="#f44336" fill-opacity="0.2" stroke="#f44336" stroke-width="1.5"/>
  <text x="350" y="196" text-anchor="middle" font-family="Arial" font-size="10" fill="#f44336" font-weight="bold">冰</text>
  <text x="370" y="192" font-family="Arial" font-size="10" fill="#f44336" font-weight="bold">~12.8 BTC</text>
  <text x="440" y="192" font-family="Arial" font-size="10" fill="#f44336">置信度: 78%</text>
  
  <!-- 买单冰山 -->
  <rect x="70" y="269" width="560" height="17" stroke="#4caf50" stroke-width="2" stroke-dasharray="4,2" fill="none" rx="2" ry="2"/>
  <circle cx="350" cy="277" r="10" fill="#4caf50" fill-opacity="0.2" stroke="#4caf50" stroke-width="1.5"/>
  <text x="350" y="281" text-anchor="middle" font-family="Arial" font-size="10" fill="#4caf50" font-weight="bold">冰</text>
  <text x="370" y="277" font-family="Arial" font-size="10" fill="#4caf50" font-weight="bold">~7.5 BTC</text>
  <text x="440" y="277" font-family="Arial" font-size="10" fill="#4caf50">置信度: 85%</text>
  
  <!-- 历史追踪痕迹 -->
  <circle cx="350" cy="212" r="3" fill="#f44336" fill-opacity="0.4"/>
  <circle cx="350" cy="215" r="3" fill="#f44336" fill-opacity="0.4"/>
  <circle cx="350" cy="218" r="3" fill="#f44336" fill-opacity="0.4"/>
  <circle cx="350" cy="266" r="3" fill="#4caf50" fill-opacity="0.4"/>
  <circle cx="350" cy="263" r="3" fill="#4caf50" fill-opacity="0.4"/>
  <circle cx="350" cy="260" r="3" fill="#4caf50" fill-opacity="0.4"/>
  
  <!-- 订单流异常监测面板 -->
  <rect x="670" y="110" width="280" height="230" fill="white" stroke="#ddd" stroke-width="1" rx="5" ry="5"/>
  <text x="690" y="135" font-family="Arial" font-size="16" font-weight="bold">订单流异常监测</text>
  
  <!-- 异常监测图表 -->
  <rect x="690" y="150" width="240" height="170" fill="#fafafa" stroke="#eee" stroke-width="1"/>
  
  <!-- 时间轴 -->
  <line x1="695" y1="300" x2="925" y2="300" stroke="#666" stroke-width="1"/>
  <text x="690" y="315" font-family="Arial" font-size="8">10:00</text>
  <text x="750" y="315" font-family="Arial" font-size="8">10:30</text>
  <text x="810" y="315" font-family="Arial" font-size="8">11:00</text>
  <text x="870" y="315" font-family="Arial" font-size="8">11:30</text>
  <text x="930" y="315" font-family="Arial" font-size="8">12:00</text>
  
  <!-- 成交量柱状图 -->
  <rect x="700" y="280" width="10" height="20" fill="#bbdefb"/>
  <rect x="715" y="270" width="10" height="30" fill="#bbdefb"/>
  <rect x="730" y="275" width="10" height="25" fill="#bbdefb"/>
  <rect x="745" y="280" width="10" height="20" fill="#bbdefb"/>
  <rect x="760" y="290" width="10" height="10" fill="#bbdefb"/>
  <rect x="775" y="280" width="10" height="20" fill="#bbdefb"/>
  <rect x="790" y="240" width="10" height="60" fill="#f44336"/>
  <rect x="805" y="290" width="10" height="10" fill="#bbdefb"/>
  <rect x="820" y="265" width="10" height="35" fill="#bbdefb"/>
  <rect x="835" y="285" width="10" height="15" fill="#bbdefb"/>
  <rect x="850" y="290" width="10" height="10" fill="#bbdefb"/>
  <rect x="865" y="280" width="10" height="20" fill="#bbdefb"/>
  <rect x="880" y="270" width="10" height="30" fill="#bbdefb"/>
  <rect x="895" y="285" width="10" height="15" fill="#bbdefb"/>
  <rect x="910" y="280" width="10" height="20" fill="#bbdefb"/>
  
  <!-- 异常标记 -->
  <text x="790" y="230" font-family="Arial" font-size="9" fill="#f44336">异常</text>
  <line x1="795" y1="235" x2="795" y2="240" stroke="#f44336" stroke-width="1" stroke-dasharray="2,1"/>
  
  <!-- 异常值描述 -->
  <rect x="690" y="170" width="240" height="20" fill="#ffebee" stroke="#ffcdd2" stroke-width="1" rx="3" ry="3"/>
  <text x="700" y="184" font-family="Arial" font-size="10" fill="#d32f2f">成交量异常: 27,438.0 价位 - 10秒内6.8 BTC</text>
  
  <!-- 补充模式描述 -->
  <rect x="690" y="200" width="240" height="20" fill="#e8f5e9" stroke="#c8e6c9" stroke-width="1" rx="3" ry="3"/>
  <text x="700" y="214" font-family="Arial" font-size="10" fill="#388e3c">补充模式: 27,434.0 价位 - 重复3次</text>
  
  <!-- 当前活跃冰山面板 -->
  <rect x="50" y="360" width="440" height="220" fill="white" stroke="#ddd" stroke-width="1" rx="5" ry="5"/>
  <text x="70" y="385" font-family="Arial" font-size="16" font-weight="bold">当前活跃冰山</text>
  
  <!-- 活跃冰山列表 -->
  <rect x="70" y="400" width="400" height="165" fill="#fafafa" stroke="#eee" stroke-width="1"/>
  
  <!-- 表头 -->
  <rect x="70" y="400" width="400" height="25" fill="#f1f3f4" stroke="#ddd" stroke-width="1"/>
  <text x="85" y="417" font-family="Arial" font-size="10" font-weight="bold">价格</text>
  <text x="145" y="417" font-family="Arial" font-size="10" font-weight="bold">方向</text>
  <text x="195" y="417" font-family="Arial" font-size="10" font-weight="bold">可见量</text>
  <text x="255" y="417" font-family="Arial" font-size="10" font-weight="bold">估计总量</text>
  <text x="325" y="417" font-family="Arial" font-size="10" font-weight="bold">置信度</text>
  <text x="380" y="417" font-family="Arial" font-size="10" font-weight="bold">类型</text>
  
  <!-- 冰山记录1 -->
  <rect x="70" y="425" width="400" height="35" fill="#ffebee" fill-opacity="0.3" stroke="#eee" stroke-width="1"/>
  <text x="85" y="447" font-family="Arial" font-size="10">27,438.00</text>
  <text x="145" y="447" font-family="Arial" font-size="10" fill="#f44336">卖出</text>
  <text x="195" y="447" font-family="Arial" font-size="10">1.25 BTC</text>
  <text x="255" y="447" font-family="Arial" font-size="10">~12.8 BTC</text>
  <text x="325" y="447" font-family="Arial" font-size="10">78%</text>
  <text x="380" y="447" font-family="Arial" font-size="10">防御型</text>
  
  <!-- 冰山记录2 -->
  <rect x="70" y="460" width="400" height="35" fill="#e8f5e9" fill-opacity="0.3" stroke="#eee" stroke-width="1"/>
  <text x="85" y="482" font-family="Arial" font-size="10">27,434.00</text>
  <text x="145" y="482" font-family="Arial" font-size="10" fill="#4caf50">买入</text>
  <text x="195" y="482" font-family="Arial" font-size="10">0.85 BTC</text>
  <text x="255" y="482" font-family="Arial" font-size="10">~7.5 BTC</text>
  <text x="325" y="482" font-family="Arial" font-size="10">85%</text>
  <text x="380" y="482" font-family="Arial" font-size="10">吸筹型</text>
  
  <!-- 冰山记录3 -->
  <rect x="70" y="495" width="400" height="35" fill="#fff8e1" fill-opacity="0.3" stroke="#eee" stroke-width="1"/>
  <text x="85" y="517" font-family="Arial" font-size="10">27,450.00</text>
  <text x="145" y="517" font-family="Arial" font-size="10" fill="#ff9800">卖出</text>
  <text x="195" y="517" font-family="Arial" font-size="10">0.56 BTC</text>
  <text x="255" y="517" font-family="Arial" font-size="10">~5.2 BTC</text>
  <text x="325" y="517" font-family="Arial" font-size="10">62%</text>
  <text x="380" y="517" font-family="Arial" font-size="10">伪装型</text>
  
  <!-- 冰山记录4 -->
  <rect x="70" y="530" width="400" height="35" fill="#f5f5f5" stroke="#eee" stroke-width="1"/>
  <text x="85" y="552" font-family="Arial" font-size="10">27,420.00</text>
  <text x="145" y="552" font-family="Arial" font-size="10" fill="#4caf50">买入</text>
  <text x="195" y="552" font-family="Arial" font-size="10">0.32 BTC</text>
  <text x="255" y="552" font-family="Arial" font-size="10">~3.8 BTC</text>
  <text x="325" y="552" font-family="Arial" font-size="10">58%</text>
  <text x="380" y="552" font-family="Arial" font-size="10">未确认</text>
  
  <!-- 交易信号面板 -->
  <rect x="510" y="360" width="440" height="220" fill="white" stroke="#ddd" stroke-width="1" rx="5" ry="5"/>
  <text x="530" y="385" font-family="Arial" font-size="16" font-weight="bold">交易信号面板</text>
  
  <!-- 交易信号卡片 -->
  <rect x="530" y="400" width="400" height="80" fill="#e8f5e9" stroke="#c8e6c9" stroke-width="1" rx="3" ry="3"/>
  <text x="550" y="420" font-family="Arial" font-size="14" font-weight="bold" fill="#1b5e20">买入信号 - 基于27,434.00价位冰山</text>
  <text x="550" y="440" font-family="Arial" font-size="12">• 吸筹型冰山提供强支撑，建议做多</text>
  <text x="550" y="460" font-family="Arial" font-size="12">• 止损位: 27,432.50 (-0.05%)</text>
  <text x="550" y="480" font-family="Arial" font-size="12">• 目标价: 27,440.00 (+0.20%)</text>
  
  <rect x="530" y="490" width="400" height="80" fill="#ffebee" stroke="#ffcdd2" stroke-width="1" rx="3" ry="3"/>
  <text x="550" y="510" font-family="Arial" font-size="14" font-weight="bold" fill="#b71c1c">卖出信号 - 基于27,438.00价位冰山</text>
  <text x="550" y="530" font-family="Arial" font-size="12">• 防御型冰山阻力明显，做空机会</text>
  <text x="550" y="550" font-family="Arial" font-size="12">• 止损位: 27,440.00 (+0.07%)</text>
  <text x="550" y="570" font-family="Arial" font-size="12">• 目标价: 27,434.00 (-0.15%)</text>
  
  <!-- 风险评估指标 -->
  <rect x="770" y="400" width="160" height="170" fill="#e3f2fd" stroke="#bbdefb" stroke-width="1" rx="3" ry="3"/>
  <text x="850" y="420" text-anchor="middle" font-family="Arial" font-size="12" font-weight="bold">风险评估</text>
  
  <text x="790" y="445" font-family="Arial" font-size="10">做多风险:</text>
  <rect x="790" y="455" width="120" height="6" fill="#f5f5f5" stroke="#ddd" stroke-width="1" rx="3" ry="3"/>
  <rect x="790" y="455" width="48" height="6" fill="#4caf50" fill-opacity="0.7" rx="3" ry="3"/>
  <text x="920" y="458" font-family="Arial" font-size="9" fill="#4caf50">低</text>
  
  <text x="790" y="475" font-family="Arial" font-size="10">做空风险:</text>
  <rect x="790" y="485" width="120" height="6" fill="#f5f5f5" stroke="#ddd" stroke-width="1" rx="3" ry="3"/>
  <rect x="790" y="485" width="84" height="6" fill="#ff9800" fill-opacity="0.7" rx="3" ry="3"/>
  <text x="920" y="488" font-family="Arial" font-size="9" fill="#ff9800">中</text>
  
  <text x="790" y="505" font-family="Arial" font-size="10">信号一致性:</text>
  <rect x="790" y="515" width="120" height="6" fill="#f5f5f5" stroke="#ddd" stroke-width="1" rx="3" ry="3"/>
  <rect x="790" y="515" width="96" height="6" fill="#4caf50" fill-opacity="0.7" rx="3" ry="3"/>
  <text x="920" y="518" font-family="Arial" font-size="9" fill="#4caf50">高</text>
  
  <text x="790" y="535" font-family="Arial" font-size="10">市场波动性:</text>
  <rect x="790" y="545" width="120" height="6" fill="#f5f5f5" stroke="#ddd" stroke-width="1" rx="3" ry="3"/>
  <rect x="790" y="545" width="36" height="6" fill="#4caf50" fill-opacity="0.7" rx="3" ry="3"/>
  <text x="920" y="548" font-family="Arial" font-size="9" fill="#4caf50">低</text>
</svg> 