<?xml version="1.0" encoding="UTF-8" standalone="no"?>
<svg width="800" height="600" xmlns="http://www.w3.org/2000/svg">
  <!-- 背景 -->
  <rect width="800" height="600" fill="#f8f9fa" rx="10" ry="10"/>
  <text x="400" y="30" text-anchor="middle" font-family="Arial" font-size="20" font-weight="bold">流动性捕捉交互设计</text>
  
  <!-- 主数据可视化区域 -->
  <rect x="50" y="60" width="700" height="250" fill="white" stroke="#ddd" stroke-width="1" rx="5" ry="5"/>
  
  <!-- K线图区域 -->
  <rect x="50" y="60" width="700" height="30" fill="#f1f3f4" stroke="#ddd" stroke-width="1" rx="5 5 0 0" ry="5 5 0 0"/>
  <text x="80" y="80" font-family="Arial" font-size="12" font-weight="bold">BTC/USDT - 1分钟</text>
  
  <!-- 图表控件 -->
  <rect x="590" y="65" width="20" height="20" fill="#f1f3f4" stroke="#ddd" stroke-width="1" rx="3" ry="3"/>
  <text x="600" y="80" text-anchor="middle" font-family="Arial" font-size="14">+</text>
  
  <rect x="620" y="65" width="20" height="20" fill="#f1f3f4" stroke="#ddd" stroke-width="1" rx="3" ry="3"/>
  <text x="630" y="80" text-anchor="middle" font-family="Arial" font-size="14">-</text>
  
  <rect x="650" y="65" width="20" height="20" fill="#f1f3f4" stroke="#ddd" stroke-width="1" rx="3" ry="3"/>
  <text x="660" y="80" text-anchor="middle" font-family="Arial" font-size="10">⚙</text>
  
  <rect x="680" y="65" width="20" height="20" fill="#f1f3f4" stroke="#ddd" stroke-width="1" rx="3" ry="3"/>
  <text x="690" y="80" text-anchor="middle" font-family="Arial" font-size="14">↗</text>
  
  <!-- K线图和成交量 -->
  <rect x="70" y="100" width="660" height="190" fill="#fafafa" stroke="#eee" stroke-width="1"/>
  
  <!-- K线示例 -->
  <line x1="100" y1="140" x2="100" y2="170" stroke="#666" stroke-width="1"/>
  <rect x="96" y="150" width="8" height="20" fill="#f44336" fill-opacity="0.7"/>
  
  <line x1="120" y1="130" x2="120" y2="160" stroke="#666" stroke-width="1"/>
  <rect x="116" y="130" width="8" height="30" fill="#f44336" fill-opacity="0.7"/>
  
  <line x1="140" y1="140" x2="140" y2="180" stroke="#666" stroke-width="1"/>
  <rect x="136" y="140" width="8" height="40" fill="#f44336" fill-opacity="0.7"/>
  
  <line x1="160" y1="150" x2="160" y2="190" stroke="#666" stroke-width="1"/>
  <rect x="156" y="170" width="8" height="20" fill="#4caf50" fill-opacity="0.7"/>
  
  <line x1="180" y1="140" x2="180" y2="180" stroke="#666" stroke-width="1"/>
  <rect x="176" y="140" width="8" height="40" fill="#f44336" fill-opacity="0.7"/>
  
  <line x1="200" y1="130" x2="200" y2="170" stroke="#666" stroke-width="1"/>
  <rect x="196" y="150" width="8" height="20" fill="#4caf50" fill-opacity="0.7"/>
  
  <line x1="220" y1="140" x2="220" y2="160" stroke="#666" stroke-width="1"/>
  <rect x="216" y="140" width="8" height="20" fill="#f44336" fill-opacity="0.7"/>
  
  <line x1="240" y1="150" x2="240" y2="180" stroke="#666" stroke-width="1"/>
  <rect x="236" y="150" width="8" height="30" fill="#f44336" fill-opacity="0.7"/>
  
  <line x1="260" y1="160" x2="260" y2="200" stroke="#666" stroke-width="1"/>
  <rect x="256" y="180" width="8" height="20" fill="#4caf50" fill-opacity="0.7"/>
  
  <line x1="280" y1="170" x2="280" y2="210" stroke="#666" stroke-width="1"/>
  <rect x="276" y="190" width="8" height="20" fill="#4caf50" fill-opacity="0.7"/>
  
  <!-- 更多K线 -->
  <line x1="300" y1="180" x2="300" y2="220" stroke="#666" stroke-width="1"/>
  <rect x="296" y="200" width="8" height="20" fill="#4caf50" fill-opacity="0.7"/>
  
  <line x1="320" y1="160" x2="320" y2="210" stroke="#666" stroke-width="1"/>
  <rect x="316" y="160" width="8" height="50" fill="#f44336" fill-opacity="0.7"/>
  
  <line x1="340" y1="150" x2="340" y2="190" stroke="#666" stroke-width="1"/>
  <rect x="336" y="150" width="8" height="40" fill="#f44336" fill-opacity="0.7"/>
  
  <line x1="360" y1="140" x2="360" y2="180" stroke="#666" stroke-width="1"/>
  <rect x="356" y="140" width="8" height="40" fill="#f44336" fill-opacity="0.7"/>
  
  <line x1="380" y1="150" x2="380" y2="190" stroke="#666" stroke-width="1"/>
  <rect x="376" y="170" width="8" height="20" fill="#4caf50" fill-opacity="0.7"/>
  
  <line x1="400" y1="160" x2="400" y2="200" stroke="#666" stroke-width="1"/>
  <rect x="396" y="180" width="8" height="20" fill="#4caf50" fill-opacity="0.7"/>
  
  <line x1="420" y1="150" x2="420" y2="180" stroke="#666" stroke-width="1"/>
  <rect x="416" y="150" width="8" height="30" fill="#f44336" fill-opacity="0.7"/>
  
  <line x1="440" y1="140" x2="440" y2="180" stroke="#666" stroke-width="1"/>
  <rect x="436" y="160" width="8" height="20" fill="#4caf50" fill-opacity="0.7"/>
  
  <line x1="460" y1="150" x2="460" y2="200" stroke="#666" stroke-width="1"/>
  <rect x="456" y="180" width="8" height="20" fill="#4caf50" fill-opacity="0.7"/>
  
  <line x1="480" y1="170" x2="480" y2="210" stroke="#666" stroke-width="1"/>
  <rect x="476" y="190" width="8" height="20" fill="#4caf50" fill-opacity="0.7"/>
  
  <line x1="500" y1="160" x2="500" y2="200" stroke="#666" stroke-width="1"/>
  <rect x="496" y="160" width="8" height="40" fill="#f44336" fill-opacity="0.7"/>
  
  <line x1="520" y1="150" x2="520" y2="180" stroke="#666" stroke-width="1"/>
  <rect x="516" y="150" width="8" height="30" fill="#f44336" fill-opacity="0.7"/>
  
  <!-- 最新价格点 -->
  <line x1="540" y1="140" x2="540" y2="190" stroke="#666" stroke-width="1"/>
  <rect x="536" y="165" width="8" height="25" fill="#4caf50" fill-opacity="0.7"/>
  <circle cx="540" cy="140" r="4" fill="#1976d2"/>
  
  <!-- 流动性事件标记 -->
  <circle cx="360" cy="130" r="10" fill="#f44336" fill-opacity="0.2" stroke="#f44336" stroke-width="1.5"/>
  <text x="360" y="133" text-anchor="middle" font-family="Arial" font-size="8" fill="#f44336">L</text>
  
  <circle cx="420" cy="140" r="10" fill="#f44336" fill-opacity="0.2" stroke="#f44336" stroke-width="1.5"/>
  <text x="420" y="143" text-anchor="middle" font-family="Arial" font-size="8" fill="#f44336">L</text>
  
  <circle cx="520" cy="140" r="10" fill="#f44336" fill-opacity="0.2" stroke="#f44336" stroke-width="1.5"/>
  <text x="520" y="143" text-anchor="middle" font-family="Arial" font-size="8" fill="#f44336">L</text>
  
  <circle cx="260" cy="210" r="10" fill="#4caf50" fill-opacity="0.2" stroke="#4caf50" stroke-width="1.5"/>
  <text x="260" y="213" text-anchor="middle" font-family="Arial" font-size="8" fill="#4caf50">L</text>
  
  <circle cx="300" cy="230" r="10" fill="#4caf50" fill-opacity="0.2" stroke="#4caf50" stroke-width="1.5"/>
  <text x="300" y="233" text-anchor="middle" font-family="Arial" font-size="8" fill="#4caf50">L</text>
  
  <!-- 当前位置指示器 -->
  <line x1="540" y1="100" x2="540" y2="280" stroke="#1976d2" stroke-width="1" stroke-dasharray="3,3"/>
  
  <!-- 互动控件区域 -->
  <rect x="50" y="330" width="340" height="250" fill="white" stroke="#ddd" stroke-width="1" rx="5" ry="5"/>
  <text x="70" y="355" font-family="Arial" font-size="16" font-weight="bold">流动性信号交互控件</text>
  
  <!-- 信号强度雷达图区域 -->
  <rect x="70" y="370" width="300" height="120" fill="#fafafa" stroke="#eee" stroke-width="1" rx="3" ry="3"/>
  
  <!-- 雷达图 -->
  <circle cx="220" cy="430" r="50" fill="none" stroke="#ddd" stroke-width="1"/>
  <circle cx="220" cy="430" r="33" fill="none" stroke="#ddd" stroke-width="1"/>
  <circle cx="220" cy="430" r="17" fill="none" stroke="#ddd" stroke-width="1"/>
  
  <line x1="220" y1="380" x2="220" y2="480" stroke="#ddd" stroke-width="1"/>
  <line x1="170" y1="430" x2="270" y2="430" stroke="#ddd" stroke-width="1"/>
  <line x1="185" y1="395" x2="255" y2="465" stroke="#ddd" stroke-width="1"/>
  <line x1="185" y1="465" x2="255" y2="395" stroke="#ddd" stroke-width="1"/>
  
  <!-- 雷达值 -->
  <path d="M 220,395 L 245,410 L 235,430 L 240,450 L 220,460 L 200,450 L 185,430 L 195,410 Z" fill="#f44336" fill-opacity="0.3" stroke="#f44336" stroke-width="1.5"/>
  
  <!-- 雷达标签 -->
  <text x="220" y="375" text-anchor="middle" font-family="Arial" font-size="10">大单检测</text>
  <text x="275" y="430" text-anchor="start" font-family="Arial" font-size="10">撤单行为</text>
  <text x="220" y="485" text-anchor="middle" font-family="Arial" font-size="10">流动性墙</text>
  <text x="165" y="430" text-anchor="end" font-family="Arial" font-size="10">流动性不平衡</text>
  
  <!-- 触发阈值设置器 -->
  <rect x="70" y="500" width="140" height="70" fill="#fafafa" stroke="#eee" stroke-width="1" rx="3" ry="3"/>
  <text x="140" y="520" text-anchor="middle" font-family="Arial" font-size="12" font-weight="bold">触发阈值</text>
  
  <rect x="85" y="530" width="110" height="5" fill="#e0e0e0" rx="2.5" ry="2.5"/>
  <circle cx="140" cy="532.5" r="8" fill="white" stroke="#1976d2" stroke-width="2"/>
  <text x="140" y="550" text-anchor="middle" font-family="Arial" font-size="10">65%</text>
  
  <!-- 信号过滤器 -->
  <rect x="220" y="500" width="150" height="70" fill="#fafafa" stroke="#eee" stroke-width="1" rx="3" ry="3"/>
  <text x="295" y="520" text-anchor="middle" font-family="Arial" font-size="12" font-weight="bold">信号过滤器</text>
  
  <rect x="235" y="530" width="20" height="20" fill="#e8f5e9" stroke="#c8e6c9" stroke-width="1" rx="3" ry="3"/>
  <text x="245" y="544" text-anchor="middle" font-family="Arial" font-size="12" fill="#388e3c">✓</text>
  <text x="260" y="544" font-family="Arial" font-size="10">大单</text>
  
  <rect x="235" y="555" width="20" height="20" fill="#e8f5e9" stroke="#c8e6c9" stroke-width="1" rx="3" ry="3"/>
  <text x="245" y="569" text-anchor="middle" font-family="Arial" font-size="12" fill="#388e3c">✓</text>
  <text x="260" y="569" font-family="Arial" font-size="10">撤单</text>
  
  <rect x="305" y="530" width="20" height="20" fill="#e8f5e9" stroke="#c8e6c9" stroke-width="1" rx="3" ry="3"/>
  <text x="315" y="544" text-anchor="middle" font-family="Arial" font-size="12" fill="#388e3c">✓</text>
  <text x="335" y="544" font-family="Arial" font-size="10">墙</text>
  
  <rect x="305" y="555" width="20" height="20" fill="#f5f5f5" stroke="#ddd" stroke-width="1" rx="3" ry="3"/>
  <text x="335" y="569" font-family="Arial" font-size="10">不平衡</text>
  
  <!-- 订单簿交互区域 -->
  <rect x="410" y="330" width="340" height="250" fill="white" stroke="#ddd" stroke-width="1" rx="5" ry="5"/>
  <text x="430" y="355" font-family="Arial" font-size="16" font-weight="bold">订单簿交互</text>
  
  <!-- 深度图 -->
  <rect x="430" y="370" width="300" height="120" fill="#fafafa" stroke="#eee" stroke-width="1"/>
  
  <!-- 卖单深度 -->
  <path d="M 580,370 L 630,390 L 680,410 L 730,430 L 730,450 L 580,450 Z" fill="#ffcdd2" fill-opacity="0.5" stroke="#f44336" stroke-width="1"/>
  
  <!-- 买单深度 -->
  <path d="M 580,370 L 530,390 L 480,410 L 430,430 L 430,450 L 580,450 Z" fill="#c8e6c9" fill-opacity="0.5" stroke="#4caf50" stroke-width="1"/>
  
  <!-- 中心价格线 -->
  <line x1="580" y1="370" x2="580" y2="450" stroke="#90a4ae" stroke-width="1" stroke-dasharray="4,4"/>
  <rect x="560" y="450" width="40" height="20" fill="#90a4ae" rx="10" ry="10"/>
  <text x="580" y="464" text-anchor="middle" font-family="Arial" font-size="10" fill="white">27,435.5</text>
  
  <!-- 突出显示的大单位置 -->
  <circle cx="680" cy="410" r="8" fill="#f44336" fill-opacity="0.6" stroke="#f44336" stroke-width="1.5"/>
  <text x="680" y="410" text-anchor="middle" font-family="Arial" font-size="10" fill="white">!</text>
  <line x1="680" y1="410" x2="700" y2="390" stroke="#f44336" stroke-width="1" stroke-dasharray="2,2"/>
  <rect x="670" y="375" width="60" height="20" fill="#ffebee" stroke="#ffcdd2" stroke-width="1" rx="10" ry="10"/>
  <text x="700" y="389" text-anchor="middle" font-family="Arial" font-size="9" fill="#d32f2f">卖单: 8.65</text>
  
  <!-- 流动性墙标识 -->
  <circle cx="530" cy="390" r="8" fill="#4caf50" fill-opacity="0.6" stroke="#4caf50" stroke-width="1.5"/>
  <text x="530" y="390" text-anchor="middle" font-family="Arial" font-size="10" fill="white">!</text>
  <line x1="530" y1="390" x2="510" y2="370" stroke="#4caf50" stroke-width="1" stroke-dasharray="2,2"/>
  <rect x="470" y="355" width="80" height="20" fill="#e8f5e9" stroke="#c8e6c9" stroke-width="1" rx="10" ry="10"/>
  <text x="510" y="369" text-anchor="middle" font-family="Arial" font-size="9" fill="#388e3c">流动性墙: 12.4</text>
  
  <!-- 交互控件 -->
  <rect x="430" y="500" width="300" height="70" fill="#fafafa" stroke="#eee" stroke-width="1" rx="3" ry="3"/>
  <text x="580" y="520" text-anchor="middle" font-family="Arial" font-size="12" font-weight="bold">交互控件</text>
  
  <!-- 深度过滤器 -->
  <rect x="445" y="530" width="120" height="30" fill="#f5f5f5" stroke="#ddd" stroke-width="1" rx="15" ry="15"/>
  <text x="505" y="550" text-anchor="middle" font-family="Arial" font-size="12">深度过滤: 10%</text>
  
  <!-- 价格放大缩小 -->
  <rect x="575" y="530" width="30" height="30" fill="#f5f5f5" stroke="#ddd" stroke-width="1" rx="3" ry="3"/>
  <text x="590" y="550" text-anchor="middle" font-family="Arial" font-size="14">+</text>
  
  <rect x="615" y="530" width="30" height="30" fill="#f5f5f5" stroke="#ddd" stroke-width="1" rx="3" ry="3"/>
  <text x="630" y="550" text-anchor="middle" font-family="Arial" font-size="14">-</text>
  
  <!-- 视图刷新 -->
  <rect x="655" y="530" width="60" height="30" fill="#1976d2" stroke="#1565c0" stroke-width="1" rx="3" ry="3"/>
  <text x="685" y="550" text-anchor="middle" font-family="Arial" font-size="12" fill="white">刷新</text>
</svg> 