<?xml version="1.0" encoding="UTF-8" standalone="no"?>
<svg width="800" height="500" xmlns="http://www.w3.org/2000/svg">
  <!-- 背景 -->
  <rect width="800" height="500" fill="#f8f9fa" rx="10" ry="10"/>
  <text x="400" y="30" text-anchor="middle" font-family="Arial" font-size="20" font-weight="bold">流动性捕捉策略概览</text>
  
  <!-- 主要区域背景 -->
  <rect x="50" y="60" width="700" height="250" fill="white" stroke="#ddd" stroke-width="1" rx="5" ry="5"/>
  
  <!-- 订单簿 -->
  <rect x="80" y="90" width="220" height="180" fill="#f5f5f5" stroke="#ddd" stroke-width="1" rx="3" ry="3"/>
  <text x="190" y="110" text-anchor="middle" font-family="Arial" font-size="14" font-weight="bold">实时订单簿</text>
  
  <!-- 卖单区域 -->
  <rect x="100" y="120" width="180" height="20" fill="#ffcdd2" fill-opacity="0.3" stroke="#ddd" stroke-width="1"/>
  <text x="120" y="134" font-family="Arial" font-size="10">27,438.50</text>
  <text x="180" y="134" font-family="Arial" font-size="10">0.52</text>
  <text x="230" y="134" font-family="Arial" font-size="10">14.28</text>
  
  <rect x="100" y="140" width="180" height="20" fill="#ffcdd2" fill-opacity="0.3" stroke="#ddd" stroke-width="1"/>
  <text x="120" y="154" font-family="Arial" font-size="10">27,438.00</text>
  <text x="180" y="154" font-family="Arial" font-size="10">1.34</text>
  <text x="230" y="154" font-family="Arial" font-size="10">36.77</text>
  
  <!-- 大单高亮 -->
  <rect x="100" y="160" width="180" height="20" fill="#f44336" fill-opacity="0.2" stroke="#f44336" stroke-width="1.5"/>
  <text x="120" y="174" font-family="Arial" font-size="10" font-weight="bold">27,437.50</text>
  <text x="180" y="174" font-family="Arial" font-size="10" font-weight="bold">8.65</text>
  <text x="230" y="174" font-family="Arial" font-size="10" font-weight="bold">237.12</text>
  <text x="250" y="174" font-family="Arial" font-size="9" fill="#d32f2f">⚠ 大单</text>
  
  <rect x="100" y="180" width="180" height="20" fill="#ffcdd2" fill-opacity="0.3" stroke="#ddd" stroke-width="1"/>
  <text x="120" y="194" font-family="Arial" font-size="10">27,437.00</text>
  <text x="180" y="194" font-family="Arial" font-size="10">0.89</text>
  <text x="230" y="194" font-family="Arial" font-size="10">24.42</text>
  
  <!-- 中间价格线 -->
  <line x1="100" y1="200" x2="280" y2="200" stroke="#90a4ae" stroke-width="1" stroke-dasharray="2,2"/>
  <text x="290" y="205" font-family="Arial" font-size="10" fill="#546e7a">当前价格</text>
  
  <!-- 买单区域 -->
  <rect x="100" y="200" width="180" height="20" fill="#c8e6c9" fill-opacity="0.3" stroke="#ddd" stroke-width="1"/>
  <text x="120" y="214" font-family="Arial" font-size="10">27,436.50</text>
  <text x="180" y="214" font-family="Arial" font-size="10">1.28</text>
  <text x="230" y="214" font-family="Arial" font-size="10">35.11</text>
  
  <rect x="100" y="220" width="180" height="20" fill="#c8e6c9" fill-opacity="0.3" stroke="#ddd" stroke-width="1"/>
  <text x="120" y="234" font-family="Arial" font-size="10">27,436.00</text>
  <text x="180" y="234" font-family="Arial" font-size="10">0.75</text>
  <text x="230" y="234" font-family="Arial" font-size="10">20.58</text>
  
  <!-- 表头 -->
  <text x="120" y="114" font-family="Arial" font-size="9" fill="#666">价格</text>
  <text x="180" y="114" font-family="Arial" font-size="9" fill="#666">数量</text>
  <text x="230" y="114" font-family="Arial" font-size="9" fill="#666">总额($)</text>
  
  <!-- 流动性分析器 -->
  <rect x="330" y="90" width="180" height="180" fill="#e3f2fd" stroke="#bbdefb" stroke-width="1" rx="3" ry="3"/>
  <text x="420" y="110" text-anchor="middle" font-family="Arial" font-size="14" font-weight="bold">流动性分析器</text>
  
  <!-- 分析指标 -->
  <text x="350" y="135" font-family="Arial" font-size="11">1. 大单检测</text>
  <rect x="350" y="145" width="140" height="8" fill="#f5f5f5" stroke="#ddd" stroke-width="1" rx="4" ry="4"/>
  <rect x="350" y="145" width="112" height="8" fill="#f44336" fill-opacity="0.7" rx="4" ry="4"/>
  <text x="495" y="150" font-family="Arial" font-size="9" fill="#f44336">80%</text>
  
  <text x="350" y="170" font-family="Arial" font-size="11">2. 撤单行为分析</text>
  <rect x="350" y="180" width="140" height="8" fill="#f5f5f5" stroke="#ddd" stroke-width="1" rx="4" ry="4"/>
  <rect x="350" y="180" width="42" height="8" fill="#2196f3" fill-opacity="0.7" rx="4" ry="4"/>
  <text x="495" y="185" font-family="Arial" font-size="9" fill="#2196f3">30%</text>
  
  <text x="350" y="205" font-family="Arial" font-size="11">3. 流动性墙识别</text>
  <rect x="350" y="215" width="140" height="8" fill="#f5f5f5" stroke="#ddd" stroke-width="1" rx="4" ry="4"/>
  <rect x="350" y="215" width="70" height="8" fill="#4caf50" fill-opacity="0.7" rx="4" ry="4"/>
  <text x="495" y="220" font-family="Arial" font-size="9" fill="#4caf50">50%</text>
  
  <text x="350" y="240" font-family="Arial" font-size="11">4. 流动性不平衡</text>
  <rect x="350" y="250" width="140" height="8" fill="#f5f5f5" stroke="#ddd" stroke-width="1" rx="4" ry="4"/>
  <rect x="350" y="250" width="84" height="8" fill="#ff9800" fill-opacity="0.7" rx="4" ry="4"/>
  <text x="495" y="255" font-family="Arial" font-size="9" fill="#ff9800">60%</text>
  
  <!-- 交易决策器 -->
  <rect x="540" y="90" width="180" height="180" fill="#fce4ec" stroke="#f8bbd0" stroke-width="1" rx="3" ry="3"/>
  <text x="630" y="110" text-anchor="middle" font-family="Arial" font-size="14" font-weight="bold">交易决策器</text>
  
  <!-- 信号强度计量表 -->
  <path d="M 575,170 A 45,45 0 1 1 685,170" fill="none" stroke="#ddd" stroke-width="10"/>
  <path d="M 575,170 A 45,45 0 0 1 648,135" fill="none" stroke="#f44336" stroke-width="10"/>
  <text x="630" y="180" text-anchor="middle" font-family="Arial" font-size="16" font-weight="bold">78%</text>
  <text x="630" y="200" text-anchor="middle" font-family="Arial" font-size="12">信号强度</text>
  
  <!-- 订单按钮 -->
  <rect x="575" y="220" width="110" height="30" fill="#f44336" rx="15" ry="15"/>
  <text x="630" y="240" text-anchor="middle" font-family="Arial" font-size="14" fill="white" font-weight="bold">抢先买入</text>
  
  <!-- 连接线 -->
  <line x1="300" y1="170" x2="330" y2="170" stroke="#666" stroke-width="1.5" marker-end="url(#arrow)"/>
  <line x1="510" y1="170" x2="540" y2="170" stroke="#666" stroke-width="1.5" marker-end="url(#arrow)"/>
  
  <!-- 箭头标记定义 -->
  <defs>
    <marker id="arrow" markerWidth="10" markerHeight="10" refX="9" refY="3" orient="auto" markerUnits="strokeWidth">
      <path d="M0,0 L0,6 L9,3 z" fill="#666"/>
    </marker>
  </defs>
  
  <!-- 策略说明区域 -->
  <rect x="50" y="330" width="700" height="150" fill="#e8f5e9" stroke="#c8e6c9" stroke-width="1" rx="5" ry="5"/>
  <text x="70" y="355" font-family="Arial" font-size="16" font-weight="bold">流动性捕捉策略核心原理：</text>
  
  <text x="70" y="385" font-family="Arial" font-size="12">1. 实时监控订单簿变化，识别大单出现、重要撤单行为和流动性墙</text>
  <text x="70" y="410" font-family="Arial" font-size="12">2. 分析流动性变化产生的价格影响，预测短期价格走势</text>
  <text x="70" y="435" font-family="Arial" font-size="12">3. 在大量流动性被消耗前抢先下单，捕捉短期价格波动</text>
  <text x="70" y="460" font-family="Arial" font-size="12">4. 快速止盈止损，保护获利并控制风险</text>
  
  <!-- 大单标识 -->
  <rect x="600" y="380" width="120" height="60" fill="#f44336" fill-opacity="0.2" stroke="#f44336" stroke-width="1.5" rx="3" ry="3"/>
  <text x="660" y="405" text-anchor="middle" font-family="Arial" font-size="12" font-weight="bold">大单标识</text>
  <text x="660" y="425" text-anchor="middle" font-family="Arial" font-size="10">8.65 BTC @ 27,437.50</text>
  <path d="M 600,380 L 570,174" fill="none" stroke="#f44336" stroke-width="1" stroke-dasharray="3,3"/>
</svg>