<?xml version="1.0" encoding="UTF-8" standalone="no"?>
<svg width="1000" height="600" xmlns="http://www.w3.org/2000/svg">
  <!-- 背景 -->
  <rect width="1000" height="600" fill="#f8f9fa" rx="10" ry="10"/>
  <text x="500" y="30" text-anchor="middle" font-family="Arial" font-size="20" font-weight="bold">流动性捕捉策略监控面板</text>
  
  <!-- 顶部状态栏 -->
  <rect x="50" y="50" width="900" height="40" fill="#f1f3f4" stroke="#ddd" stroke-width="1" rx="5" ry="5"/>
  <circle cx="70" cy="70" r="6" fill="#4caf50"/>
  <text x="90" y="75" font-family="Arial" font-size="14" font-weight="bold" fill="#4caf50">策略状态: 运行中</text>
  <text x="250" y="75" font-family="Arial" font-size="14">交易对: BTC/USDT</text>
  <text x="420" y="75" font-family="Arial" font-size="14">交易所: Binance</text>
  <text x="600" y="75" font-family="Arial" font-size="14">运行时间: 3小时27分钟</text>
  <text x="800" y="75" font-family="Arial" font-size="14">刷新间隔: 100ms</text>
  
  <!-- 流动性热图面板 -->
  <rect x="50" y="110" width="600" height="230" fill="white" stroke="#ddd" stroke-width="1" rx="5" ry="5"/>
  <text x="70" y="135" font-family="Arial" font-size="16" font-weight="bold">流动性热图</text>
  
  <!-- 订单簿热图 -->
  <rect x="70" y="150" width="560" height="170" fill="#fafafa" stroke="#eee" stroke-width="1"/>
  
  <!-- 卖单区域 -->
  <rect x="70" y="150" width="560" height="85" fill="#fff5f5" stroke="#eee" stroke-width="1"/>
  
  <!-- 卖单热图阶梯 -->
  <rect x="70" y="150" width="560" height="17" fill="#ffebee" fill-opacity="0.4" stroke="#eee" stroke-width="1"/>
  <rect x="70" y="167" width="560" height="17" fill="#ffebee" fill-opacity="0.5" stroke="#eee" stroke-width="1"/>
  <rect x="70" y="184" width="560" height="17" fill="#ffebee" fill-opacity="0.6" stroke="#eee" stroke-width="1"/>
  <rect x="70" y="201" width="560" height="17" fill="#ffebee" fill-opacity="0.7" stroke="#eee" stroke-width="1"/>
  <rect x="70" y="218" width="560" height="17" fill="#ffebee" fill-opacity="0.8" stroke="#eee" stroke-width="1"/>
  
  <!-- 买单区域 -->
  <rect x="70" y="235" width="560" height="85" fill="#f5fff5" stroke="#eee" stroke-width="1"/>
  
  <!-- 买单热图阶梯 -->
  <rect x="70" y="235" width="560" height="17" fill="#e8f5e9" fill-opacity="0.8" stroke="#eee" stroke-width="1"/>
  <rect x="70" y="252" width="560" height="17" fill="#e8f5e9" fill-opacity="0.7" stroke="#eee" stroke-width="1"/>
  <rect x="70" y="269" width="560" height="17" fill="#e8f5e9" fill-opacity="0.6" stroke="#eee" stroke-width="1"/>
  <rect x="70" y="286" width="560" height="17" fill="#e8f5e9" fill-opacity="0.5" stroke="#eee" stroke-width="1"/>
  <rect x="70" y="303" width="560" height="17" fill="#e8f5e9" fill-opacity="0.4" stroke="#eee" stroke-width="1"/>
  
  <!-- 价格刻度 -->
  <text x="90" y="164" font-family="Arial" font-size="10">27,440</text>
  <text x="90" y="181" font-family="Arial" font-size="10">27,439</text>
  <text x="90" y="198" font-family="Arial" font-size="10">27,438</text>
  <text x="90" y="215" font-family="Arial" font-size="10">27,437</text>
  <text x="90" y="232" font-family="Arial" font-size="10">27,436</text>
  <text x="90" y="249" font-family="Arial" font-size="10">27,435</text>
  <text x="90" y="266" font-family="Arial" font-size="10">27,434</text>
  <text x="90" y="283" font-family="Arial" font-size="10">27,433</text>
  <text x="90" y="300" font-family="Arial" font-size="10">27,432</text>
  <text x="90" y="317" font-family="Arial" font-size="10">27,431</text>
  
  <!-- 当前价格线 -->
  <line x1="70" y1="235" x2="630" y2="235" stroke="#90a4ae" stroke-width="1" stroke-dasharray="2,2"/>
  <rect x="135" y="225" width="40" height="20" fill="#90a4ae" rx="10" ry="10"/>
  <text x="155" y="238" text-anchor="middle" font-family="Arial" font-size="10" fill="white">27,435.5</text>
  
  <!-- 流动性分布 -->
  <!-- 卖单深度 -->
  <rect x="150" y="201" width="100" height="17" fill="#f44336" fill-opacity="0.4" stroke="#f44336" stroke-width="1"/>
  <rect x="180" y="184" width="180" height="17" fill="#f44336" fill-opacity="0.4" stroke="#f44336" stroke-width="1"/>
  <rect x="200" y="167" width="80" height="17" fill="#f44336" fill-opacity="0.4" stroke="#f44336" stroke-width="1"/>
  <rect x="230" y="150" width="60" height="17" fill="#f44336" fill-opacity="0.4" stroke="#f44336" stroke-width="1"/>
  
  <!-- 买单深度 -->
  <rect x="150" y="235" width="90" height="17" fill="#4caf50" fill-opacity="0.4" stroke="#4caf50" stroke-width="1"/>
  <rect x="180" y="252" width="160" height="17" fill="#4caf50" fill-opacity="0.4" stroke="#4caf50" stroke-width="1"/>
  <rect x="220" y="269" width="120" height="17" fill="#4caf50" fill-opacity="0.4" stroke="#4caf50" stroke-width="1"/>
  <rect x="240" y="286" width="70" height="17" fill="#4caf50" fill-opacity="0.4" stroke="#4caf50" stroke-width="1"/>
  
  <!-- 大单标识 -->
  <rect x="180" y="184" width="180" height="17" stroke="#f44336" stroke-width="2" stroke-dasharray="5,2" fill="none" rx="2" ry="2"/>
  <text x="370" y="197" font-family="Arial" font-size="10" fill="#d32f2f" font-weight="bold">大单: 8.65 BTC</text>
  
  <!-- 流动性墙标识 -->
  <rect x="180" y="252" width="160" height="17" stroke="#4caf50" stroke-width="2" stroke-dasharray="5,2" fill="none" rx="2" ry="2"/>
  <text x="350" y="266" font-family="Arial" font-size="10" fill="#388e3c" font-weight="bold">流动性墙</text>
  
  <!-- 信号监控面板 -->
  <rect x="670" y="110" width="280" height="230" fill="white" stroke="#ddd" stroke-width="1" rx="5" ry="5"/>
  <text x="690" y="135" font-family="Arial" font-size="16" font-weight="bold">信号监控</text>
  
  <!-- 信号强度计量表 -->
  <path d="M 710,200 A 65,65 0 1 1 910,200" fill="none" stroke="#ddd" stroke-width="15"/>
  <path d="M 710,200 A 65,65 0 0 1 850,145" fill="none" stroke="#f44336" stroke-width="15"/>
  <circle cx="810" cy="200" r="50" fill="white" stroke="#ddd" stroke-width="1"/>
  <text x="810" y="195" text-anchor="middle" font-family="Arial" font-size="24" font-weight="bold">78%</text>
  <text x="810" y="220" text-anchor="middle" font-family="Arial" font-size="12">信号强度</text>
  
  <!-- 信号状态 -->
  <rect x="690" y="265" width="240" height="30" fill="#f5f5f5" stroke="#ddd" stroke-width="1" rx="3" ry="3"/>
  <text x="705" y="285" font-family="Arial" font-size="12" font-weight="bold">当前信号:</text>
  <rect x="780" y="270" width="140" height="20" fill="#ffebee" stroke="#ffcdd2" stroke-width="1" rx="10" ry="10"/>
  <text x="850" y="285" text-anchor="middle" font-family="Arial" font-size="12" fill="#d32f2f" font-weight="bold">大单压力 (卖)</text>
  
  <!-- 信号历史 -->
  <rect x="690" y="305" width="240" height="15" fill="#f5f5f5" stroke="#ddd" stroke-width="1"/>
  <rect x="690" y="305" width="100" height="15" fill="#f44336" fill-opacity="0.7"/>
  <rect x="790" y="305" width="50" height="15" fill="#2196f3" fill-opacity="0.7"/>
  <rect x="840" y="305" width="20" height="15" fill="#ff9800" fill-opacity="0.7"/>
  <rect x="860" y="305" width="70" height="15" fill="#4caf50" fill-opacity="0.7"/>
  <text x="810" y="325" text-anchor="middle" font-family="Arial" font-size="10">最近10分钟信号分布</text>
  
  <!-- 交易执行区 -->
  <rect x="50" y="360" width="440" height="220" fill="white" stroke="#ddd" stroke-width="1" rx="5" ry="5"/>
  <text x="70" y="385" font-family="Arial" font-size="16" font-weight="bold">交易执行情况</text>
  
  <!-- 交易统计 -->
  <rect x="70" y="400" width="400" height="60" fill="#fafafa" stroke="#eee" stroke-width="1" rx="3" ry="3"/>
  
  <text x="90" y="425" font-family="Arial" font-size="12">总交易次数:</text>
  <text x="190" y="425" font-family="Arial" font-size="12" font-weight="bold">42</text>
  
  <text x="250" y="425" font-family="Arial" font-size="12">成功率:</text>
  <text x="320" y="425" font-family="Arial" font-size="12" font-weight="bold" fill="#4caf50">78.6%</text>
  
  <text x="90" y="450" font-family="Arial" font-size="12">累计盈亏:</text>
  <text x="190" y="450" font-family="Arial" font-size="12" font-weight="bold" fill="#4caf50">+52.34 USDT</text>
  
  <text x="250" y="450" font-family="Arial" font-size="12">平均持仓时间:</text>
  <text x="370" y="450" font-family="Arial" font-size="12" font-weight="bold">47秒</text>
  
  <!-- 最近交易记录 -->
  <rect x="70" y="470" width="400" height="95" fill="#fafafa" stroke="#eee" stroke-width="1"/>
  
  <!-- 表头 -->
  <rect x="70" y="470" width="400" height="20" fill="#f1f3f4" stroke="#ddd" stroke-width="1"/>
  <text x="85" y="485" font-family="Arial" font-size="10" font-weight="bold">时间</text>
  <text x="155" y="485" font-family="Arial" font-size="10" font-weight="bold">方向</text>
  <text x="210" y="485" font-family="Arial" font-size="10" font-weight="bold">价格</text>
  <text x="270" y="485" font-family="Arial" font-size="10" font-weight="bold">数量</text>
  <text x="320" y="485" font-family="Arial" font-size="10" font-weight="bold">触发信号</text>
  <text x="395" y="485" font-family="Arial" font-size="10" font-weight="bold">盈亏</text>
  
  <!-- 交易记录1 -->
  <line x1="70" y1="490" x2="470" y2="490" stroke="#eee" stroke-width="1"/>
  <text x="85" y="505" font-family="Arial" font-size="10">14:25:47</text>
  <text x="155" y="505" font-family="Arial" font-size="10" fill="#f44336">卖出</text>
  <text x="210" y="505" font-family="Arial" font-size="10">27,435.50</text>
  <text x="270" y="505" font-family="Arial" font-size="10">0.35</text>
  <text x="320" y="505" font-family="Arial" font-size="10">大单压力</text>
  <text x="395" y="505" font-family="Arial" font-size="10" fill="#4caf50">+3.85</text>
  
  <!-- 交易记录2 -->
  <line x1="70" y1="510" x2="470" y2="510" stroke="#eee" stroke-width="1"/>
  <text x="85" y="525" font-family="Arial" font-size="10">14:22:36</text>
  <text x="155" y="525" font-family="Arial" font-size="10" fill="#4caf50">买入</text>
  <text x="210" y="525" font-family="Arial" font-size="10">27,432.80</text>
  <text x="270" y="525" font-family="Arial" font-size="10">0.22</text>
  <text x="320" y="525" font-family="Arial" font-size="10">流动性墙</text>
  <text x="395" y="525" font-family="Arial" font-size="10" fill="#4caf50">+2.13</text>
  
  <!-- 交易记录3 -->
  <line x1="70" y1="530" x2="470" y2="530" stroke="#eee" stroke-width="1"/>
  <text x="85" y="545" font-family="Arial" font-size="10">14:15:03</text>
  <text x="155" y="545" font-family="Arial" font-size="10" fill="#f44336">卖出</text>
  <text x="210" y="545" font-family="Arial" font-size="10">27,438.70</text>
  <text x="270" y="545" font-family="Arial" font-size="10">0.15</text>
  <text x="320" y="545" font-family="Arial" font-size="10">撤单行为</text>
  <text x="395" y="545" font-family="Arial" font-size="10" fill="#f44336">-1.42</text>
  
  <!-- 实时警报区 -->
  <rect x="510" y="360" width="440" height="220" fill="white" stroke="#ddd" stroke-width="1" rx="5" ry="5"/>
  <text x="530" y="385" font-family="Arial" font-size="16" font-weight="bold">实时警报</text>
  
  <!-- 警报选项卡 -->
  <rect x="530" y="400" width="100" height="25" fill="#f44336" rx="5 5 0 0" ry="5 5 0 0"/>
  <text x="580" y="418" text-anchor="middle" font-family="Arial" font-size="12" fill="white" font-weight="bold">大单预警</text>
  
  <rect x="630" y="400" width="100" height="25" fill="#f1f3f4" rx="5 5 0 0" ry="5 5 0 0"/>
  <text x="680" y="418" text-anchor="middle" font-family="Arial" font-size="12">流动性变化</text>
  
  <rect x="730" y="400" width="100" height="25" fill="#f1f3f4" rx="5 5 0 0" ry="5 5 0 0"/>
  <text x="780" y="418" text-anchor="middle" font-family="Arial" font-size="12">价格突破</text>
  
  <rect x="830" y="400" width="100" height="25" fill="#f1f3f4" rx="5 5 0 0" ry="5 5 0 0"/>
  <text x="880" y="418" text-anchor="middle" font-family="Arial" font-size="12">行情波动</text>
  
  <!-- 警报内容区 -->
  <rect x="530" y="425" width="400" height="140" fill="#fafafa" stroke="#eee" stroke-width="1"/>
  
  <!-- 警报项目1 -->
  <rect x="540" y="435" width="380" height="40" fill="#ffebee" stroke="#ffcdd2" stroke-width="1" rx="3" ry="3"/>
  <circle cx="555" cy="455" r="7" fill="#f44336"/>
  <text x="570" y="450" font-family="Arial" font-size="12" font-weight="bold">卖单压力 - 27,439.00</text>
  <text x="570" y="465" font-family="Arial" font-size="10">8.65 BTC 大量卖单出现，预计短期内价格将下行</text>
  <text x="905" y="455" text-anchor="end" font-family="Arial" font-size="10">14:24:35</text>
  
  <!-- 警报项目2 -->
  <rect x="540" y="485" width="380" height="40" fill="#fff8e1" stroke="#ffecb3" stroke-width="1" rx="3" ry="3"/>
  <circle cx="555" cy="505" r="7" fill="#ff9800"/>
  <text x="570" y="500" font-family="Arial" font-size="12" font-weight="bold">大单观察 - 27,434.50</text>
  <text x="570" y="515" font-family="Arial" font-size="10">观察到4.23 BTC买单累积，潜在支撑位形成</text>
  <text x="905" y="505" text-anchor="end" font-family="Arial" font-size="10">14:22:12</text>
  
  <!-- 警报项目3 -->
  <rect x="540" y="535" width="380" height="40" fill="#e8f5e9" stroke="#c8e6c9" stroke-width="1" rx="3" ry="3"/>
  <circle cx="555" cy="555" r="7" fill="#4caf50"/>
  <text x="570" y="550" font-family="Arial" font-size="12" font-weight="bold">已触发交易 - 27,436.50</text>
  <text x="570" y="565" font-family="Arial" font-size="10">大单压力触发卖出交易，成功成交0.35 BTC</text>
  <text x="905" y="555" text-anchor="end" font-family="Arial" font-size="10">14:25:47</text>
</svg> 