<?xml version="1.0" encoding="UTF-8" standalone="no"?>
<svg width="1000" height="600" xmlns="http://www.w3.org/2000/svg">
  <!-- 背景 -->
  <rect width="1000" height="600" fill="#f8f9fa" rx="10" ry="10"/>
  <text x="500" y="30" text-anchor="middle" font-family="Arial" font-size="20" font-weight="bold">订单簿不平衡策略监控面板</text>
  
  <!-- 顶部状态栏 -->
  <rect x="50" y="50" width="900" height="40" fill="#f1f3f4" stroke="#ddd" stroke-width="1" rx="5" ry="5"/>
  <text x="80" y="75" font-family="Arial" font-size="14" font-weight="bold" fill="#009688">策略状态: 运行中</text>
  <text x="250" y="75" font-family="Arial" font-size="14">交易对: BTC/USDT</text>
  <text x="420" y="75" font-family="Arial" font-size="14">交易所: Binance</text>
  <text x="600" y="75" font-family="Arial" font-size="14">更新频率: 1秒</text>
  <text x="780" y="75" font-family="Arial" font-size="14">运行时间: 2小时37分钟</text>
  <circle cx="65" cy="70" r="6" fill="#4caf50"/>
  
  <!-- 左侧面板 - 订单簿不平衡指标 -->
  <rect x="50" y="110" width="440" height="220" fill="white" stroke="#ddd" stroke-width="1" rx="5" ry="5"/>
  <text x="70" y="135" font-family="Arial" font-size="16" font-weight="bold">实时不平衡指标</text>
  
  <!-- 订单簿不平衡指标图表 -->
  <rect x="70" y="150" width="400" height="160" fill="#fdfdfd" stroke="#eee" stroke-width="1"/>
  <polyline points="70,230 90,225 110,228 130,220 150,215 170,225 190,210 210,200 230,205 250,190 270,185 290,180 310,195 330,170 350,160 370,150 390,155 410,145 430,150 450,145 470,160" 
           fill="none" stroke="#4caf50" stroke-width="2"/>
  <polyline points="70,230 90,235 110,238 130,245 150,240 170,250 190,260 210,255 230,265 250,270 270,265 290,280 310,270 330,280 350,285 370,290 390,285 410,290 430,280 450,285 470,270" 
           fill="none" stroke="#f44336" stroke-width="2"/>
  
  <!-- 水平线 - 基准线 -->
  <line x1="70" y1="230" x2="470" y2="230" stroke="#ddd" stroke-width="1"/>
  
  <!-- 阈值线 -->
  <line x1="70" y1="185" x2="470" y2="185" stroke="#4caf50" stroke-width="1" stroke-dasharray="5,5"/>
  <line x1="70" y1="275" x2="470" y2="275" stroke="#f44336" stroke-width="1" stroke-dasharray="5,5"/>
  
  <!-- 图例 -->
  <rect x="70" y="320" width="12" height="6" fill="#4caf50"/>
  <text x="90" y="325" font-family="Arial" font-size="12">买方压力 (当前: 0.72)</text>
  <rect x="220" y="320" width="12" height="6" fill="#f44336"/>
  <text x="240" y="325" font-family="Arial" font-size="12">卖方压力 (当前: 0.35)</text>
  
  <!-- 右侧面板 - 仓位信息 -->
  <rect x="510" y="110" width="440" height="220" fill="white" stroke="#ddd" stroke-width="1" rx="5" ry="5"/>
  <text x="530" y="135" font-family="Arial" font-size="16" font-weight="bold">当前交易信号与仓位</text>
  
  <!-- 信号灯 -->
  <rect x="530" y="155" width="400" height="40" fill="#f9f9f9" stroke="#eee" stroke-width="1"/>
  <text x="550" y="180" font-family="Arial" font-size="14">当前信号:</text>
  <rect x="640" y="160" width="80" height="30" fill="#e8f5e9" stroke="#4caf50" stroke-width="2" rx="15" ry="15"/>
  <text x="680" y="180" text-anchor="middle" font-family="Arial" font-size="14" fill="#1b5e20" font-weight="bold">买入</text>
  <text x="750" y="180" font-family="Arial" font-size="14">信号强度: 0.72</text>
  <text x="880" y="180" font-family="Arial" font-size="14" font-weight="bold" fill="#4caf50">强</text>
  
  <!-- 仓位信息表格 -->
  <rect x="530" y="205" width="400" height="30" fill="#f1f3f4" stroke="#ddd" stroke-width="1"/>
  <text x="550" y="225" font-family="Arial" font-size="12" font-weight="bold">交易对</text>
  <text x="650" y="225" font-family="Arial" font-size="12" font-weight="bold">方向</text>
  <text x="730" y="225" font-family="Arial" font-size="12" font-weight="bold">开仓价格</text>
  <text x="830" y="225" font-family="Arial" font-size="12" font-weight="bold">数量</text>
  <text x="900" y="225" font-family="Arial" font-size="12" font-weight="bold">P&amp;L</text>
  
  <rect x="530" y="235" width="400" height="30" fill="white" stroke="#ddd" stroke-width="1"/>
  <text x="550" y="255" font-family="Arial" font-size="12">BTC/USDT</text>
  <text x="650" y="255" font-family="Arial" font-size="12" fill="#4caf50">做多</text>
  <text x="730" y="255" font-family="Arial" font-size="12">27,382.50</text>
  <text x="830" y="255" font-family="Arial" font-size="12">0.15</text>
  <text x="900" y="255" font-family="Arial" font-size="12" fill="#4caf50">+0.32%</text>
  
  <rect x="530" y="265" width="400" height="30" fill="#f9f9f9" stroke="#ddd" stroke-width="1"/>
  <text x="550" y="285" font-family="Arial" font-size="12">ETH/USDT</text>
  <text x="650" y="285" font-family="Arial" font-size="12" fill="#f44336">做空</text>
  <text x="730" y="285" font-family="Arial" font-size="12">1,824.85</text>
  <text x="830" y="285" font-family="Arial" font-size="12">2.0</text>
  <text x="900" y="285" font-family="Arial" font-size="12" fill="#f44336">-0.12%</text>
  
  <!-- 中下面板 - 交易历史 -->
  <rect x="50" y="350" width="900" height="220" fill="white" stroke="#ddd" stroke-width="1" rx="5" ry="5"/>
  <text x="70" y="375" font-family="Arial" font-size="16" font-weight="bold">交易历史与业绩</text>
  
  <!-- 切换标签 -->
  <rect x="70" y="385" width="100" height="30" fill="#009688" stroke="#007d71" stroke-width="1" rx="5" ry="5"/>
  <text x="120" y="405" text-anchor="middle" font-family="Arial" font-size="14" fill="white">交易记录</text>
  
  <rect x="170" y="385" width="100" height="30" fill="#f1f3f4" stroke="#ddd" stroke-width="1" rx="5" ry="5"/>
  <text x="220" y="405" text-anchor="middle" font-family="Arial" font-size="14">性能分析</text>
  
  <rect x="270" y="385" width="100" height="30" fill="#f1f3f4" stroke="#ddd" stroke-width="1" rx="5" ry="5"/>
  <text x="320" y="405" text-anchor="middle" font-family="Arial" font-size="14">对比基准</text>
  
  <!-- 交易历史表格 -->
  <rect x="70" y="425" width="860" height="30" fill="#f1f3f4" stroke="#ddd" stroke-width="1"/>
  <text x="90" y="445" font-family="Arial" font-size="12" font-weight="bold">时间</text>
  <text x="220" y="445" font-family="Arial" font-size="12" font-weight="bold">交易对</text>
  <text x="330" y="445" font-family="Arial" font-size="12" font-weight="bold">信号类型</text>
  <text x="430" y="445" font-family="Arial" font-size="12" font-weight="bold">交易方向</text>
  <text x="530" y="445" font-family="Arial" font-size="12" font-weight="bold">价格</text>
  <text x="630" y="445" font-family="Arial" font-size="12" font-weight="bold">数量</text>
  <text x="730" y="445" font-family="Arial" font-size="12" font-weight="bold">状态</text>
  <text x="830" y="445" font-family="Arial" font-size="12" font-weight="bold">P&amp;L</text>
  
  <rect x="70" y="455" width="860" height="30" fill="white" stroke="#ddd" stroke-width="1"/>
  <text x="90" y="475" font-family="Arial" font-size="12">10:15:22</text>
  <text x="220" y="475" font-family="Arial" font-size="12">BTC/USDT</text>
  <text x="330" y="475" font-family="Arial" font-size="12">深度不平衡</text>
  <text x="430" y="475" font-family="Arial" font-size="12" fill="#4caf50">买入</text>
  <text x="530" y="475" font-family="Arial" font-size="12">27,382.50</text>
  <text x="630" y="475" font-family="Arial" font-size="12">0.15</text>
  <text x="730" y="475" font-family="Arial" font-size="12">持仓中</text>
  <text x="830" y="475" font-family="Arial" font-size="12" fill="#4caf50">+0.32%</text>
  
  <rect x="70" y="485" width="860" height="30" fill="#f9f9f9" stroke="#ddd" stroke-width="1"/>
  <text x="90" y="505" font-family="Arial" font-size="12">10:12:05</text>
  <text x="220" y="505" font-family="Arial" font-size="12">ETH/USDT</text>
  <text x="330" y="505" font-family="Arial" font-size="12">流动性集中</text>
  <text x="430" y="505" font-family="Arial" font-size="12" fill="#f44336">卖出</text>
  <text x="530" y="505" font-family="Arial" font-size="12">1,824.85</text>
  <text x="630" y="505" font-family="Arial" font-size="12">2.0</text>
  <text x="730" y="505" font-family="Arial" font-size="12">持仓中</text>
  <text x="830" y="505" font-family="Arial" font-size="12" fill="#f44336">-0.12%</text>
  
  <rect x="70" y="515" width="860" height="30" fill="white" stroke="#ddd" stroke-width="1"/>
  <text x="90" y="535" font-family="Arial" font-size="12">10:05:47</text>
  <text x="220" y="535" font-family="Arial" font-size="12">XRP/USDT</text>
  <text x="330" y="535" font-family="Arial" font-size="12">撤单动态</text>
  <text x="430" y="535" font-family="Arial" font-size="12" fill="#f44336">卖出</text>
  <text x="530" y="535" font-family="Arial" font-size="12">0.5485</text>
  <text x="630" y="535" font-family="Arial" font-size="12">1000</text>
  <text x="730" y="535" font-family="Arial" font-size="12">已平仓</text>
  <text x="830" y="535" font-family="Arial" font-size="12" fill="#4caf50">+0.85%</text>
  
  <rect x="70" y="545" width="860" height="30" fill="#f9f9f9" stroke="#ddd" stroke-width="1"/>
  <text x="90" y="565" font-family="Arial" font-size="12">09:58:32</text>
  <text x="220" y="565" font-family="Arial" font-size="12">BNB/USDT</text>
  <text x="330" y="565" font-family="Arial" font-size="12">深度不平衡</text>
  <text x="430" y="565" font-family="Arial" font-size="12" fill="#4caf50">买入</text>
  <text x="530" y="565" font-family="Arial" font-size="12">245.67</text>
  <text x="630" y="565" font-family="Arial" font-size="12">1.25</text>
  <text x="730" y="565" font-family="Arial" font-size="12">已平仓</text>
  <text x="830" y="565" font-family="Arial" font-size="12" fill="#f44336">-0.23%</text>
  
  <!-- 业绩统计模块 -->
  <rect x="840" y="385" width="90" height="30" fill="#f1f3f4" stroke="#ddd" stroke-width="1"/>
  <text x="885" y="405" text-anchor="middle" font-family="Arial" font-size="14" font-weight="bold">日累计</text>
  
  <!-- 业绩数字 -->
  <text x="885" y="385" text-anchor="middle" font-family="Arial" font-size="18" font-weight="bold" fill="#4caf50">+1.42%</text>
</svg>