<?xml version="1.0" encoding="UTF-8" standalone="no"?>
<svg width="900" height="600" xmlns="http://www.w3.org/2000/svg">
  <!-- 背景 -->
  <rect width="900" height="600" fill="#f8f9fa" rx="10" ry="10"/>
  <text x="450" y="30" text-anchor="middle" font-family="Arial" font-size="20" font-weight="bold">订单簿不平衡信号类型</text>
  
  <!-- 信号类型标题行 -->
  <rect x="50" y="60" width="800" height="40" fill="#f1f3f4" stroke="#ddd" stroke-width="1" rx="5" ry="5"/>
  <text x="450" y="85" text-anchor="middle" font-family="Arial" font-size="16" font-weight="bold">不平衡信号类型与特征</text>
  
  <!-- 信号类型1：第一层不平衡 -->
  <rect x="50" y="120" width="800" height="100" fill="white" stroke="#ddd" stroke-width="1" rx="5" ry="5"/>
  <text x="75" y="145" font-family="Arial" font-size="16" font-weight="bold">1. 第一层不平衡</text>
  <text x="75" y="170" font-family="Arial" font-size="14">特征：比较买一卖一价格档位的委托量差异，当出现显著偏差时形成信号</text>
  <text x="75" y="195" font-family="Arial" font-size="14">公式：BI = (BidVolume - AskVolume) / (BidVolume + AskVolume)</text>
  
  <!-- 第一层不平衡图示 -->
  <g transform="translate(650, 140)">
    <!-- 买卖盘可视化 -->
    <rect x="0" y="0" width="80" height="20" fill="#d3f9d8" stroke="#82c91e" stroke-width="1"/>
    <rect x="80" y="0" width="30" height="20" fill="#ffc9c9" stroke="#fa5252" stroke-width="1"/>
    
    <rect x="0" y="20" width="50" height="20" fill="#d3f9d8" stroke="#82c91e" stroke-width="1" opacity="0.5"/>
    <rect x="80" y="20" width="40" height="20" fill="#ffc9c9" stroke="#fa5252" stroke-width="1" opacity="0.5"/>
    
    <rect x="0" y="40" width="40" height="20" fill="#d3f9d8" stroke="#82c91e" stroke-width="1" opacity="0.5"/>
    <rect x="80" y="40" width="50" height="20" fill="#ffc9c9" stroke="#fa5252" stroke-width="1" opacity="0.5"/>
    
    <!-- 第一层高亮 -->
    <rect x="0" y="0" width="80" height="20" fill="none" stroke="#333" stroke-width="2"/>
    <rect x="80" y="0" width="30" height="20" fill="none" stroke="#333" stroke-width="2"/>
    
    <!-- 标签 -->
    <text x="40" y="60" text-anchor="middle" font-family="Arial" font-size="10">买方量</text>
    <text x="95" y="60" text-anchor="middle" font-family="Arial" font-size="10">卖方量</text>
  </g>
  
  <!-- 信号类型2：深度加权不平衡 -->
  <rect x="50" y="230" width="800" height="100" fill="white" stroke="#ddd" stroke-width="1" rx="5" ry="5"/>
  <text x="75" y="255" font-family="Arial" font-size="16" font-weight="bold">2. 深度加权不平衡</text>
  <text x="75" y="280" font-family="Arial" font-size="14">特征：考虑订单簿多个价格档位的委托量，并对不同深度的价格档位赋予不同权重</text>
  <text x="75" y="305" font-family="Arial" font-size="14">公式：WBI = Σ(w_i * BidVol_i - w_i * AskVol_i) / Σ(w_i * (BidVol_i + AskVol_i))</text>
  
  <!-- 深度加权不平衡图示 -->
  <g transform="translate(650, 250)">
    <!-- 买卖盘可视化 - 递减权重 -->
    <rect x="0" y="0" width="80" height="15" fill="#d3f9d8" stroke="#82c91e" stroke-width="1"/>
    <rect x="80" y="0" width="30" height="15" fill="#ffc9c9" stroke="#fa5252" stroke-width="1"/>
    
    <rect x="0" y="15" width="60" height="15" fill="#d3f9d8" stroke="#82c91e" stroke-width="1" opacity="0.7"/>
    <rect x="80" y="15" width="40" height="15" fill="#ffc9c9" stroke="#fa5252" stroke-width="1" opacity="0.7"/>
    
    <rect x="0" y="30" width="50" height="15" fill="#d3f9d8" stroke="#82c91e" stroke-width="1" opacity="0.5"/>
    <rect x="80" y="30" width="45" height="15" fill="#ffc9c9" stroke="#fa5252" stroke-width="1" opacity="0.5"/>
    
    <rect x="0" y="45" width="40" height="15" fill="#d3f9d8" stroke="#82c91e" stroke-width="1" opacity="0.3"/>
    <rect x="80" y="45" width="50" height="15" fill="#ffc9c9" stroke="#fa5252" stroke-width="1" opacity="0.3"/>
    
    <!-- 权重标识 -->
    <text x="-20" y="8" text-anchor="middle" font-family="Arial" font-size="8">w₁</text>
    <text x="-20" y="23" text-anchor="middle" font-family="Arial" font-size="8">w₂</text>
    <text x="-20" y="38" text-anchor="middle" font-family="Arial" font-size="8">w₃</text>
    <text x="-20" y="53" text-anchor="middle" font-family="Arial" font-size="8">w₄</text>
    
    <!-- 标签 -->
    <text x="40" y="70" text-anchor="middle" font-family="Arial" font-size="10">买方加权</text>
    <text x="95" y="70" text-anchor="middle" font-family="Arial" font-size="10">卖方加权</text>
  </g>
  
  <!-- 信号类型3：动态订单撤单不平衡 -->
  <rect x="50" y="340" width="800" height="100" fill="white" stroke="#ddd" stroke-width="1" rx="5" ry="5"/>
  <text x="75" y="365" font-family="Arial" font-size="16" font-weight="bold">3. 动态订单撤单不平衡</text>
  <text x="75" y="390" font-family="Arial" font-size="14">特征：追踪短时间内买卖盘上的挂单和撤单行为，观察市场撤单行为的不平衡</text>
  <text x="75" y="415" font-family="Arial" font-size="14">公式：DBI = (BidCancels - AskCancels) / (BidCancels + AskCancels)</text>
  
  <!-- 动态撤单不平衡图示 -->
  <g transform="translate(600, 380)">
    <!-- 时间轴 -->
    <line x1="0" y1="30" x2="200" y2="30" stroke="#ddd" stroke-width="1"/>
    
    <!-- 买方撤单 (向下) -->
    <line x1="20" y1="30" x2="20" y2="50" stroke="#4caf50" stroke-width="2"/>
    <line x1="20" y1="50" x2="25" y2="45" stroke="#4caf50" stroke-width="2"/>
    <line x1="20" y1="50" x2="15" y2="45" stroke="#4caf50" stroke-width="2"/>
    
    <line x1="70" y1="30" x2="70" y2="50" stroke="#4caf50" stroke-width="2"/>
    <line x1="70" y1="50" x2="75" y2="45" stroke="#4caf50" stroke-width="2"/>
    <line x1="70" y1="50" x2="65" y2="45" stroke="#4caf50" stroke-width="2"/>
    
    <!-- 卖方撤单 (向上) -->
    <line x1="50" y1="30" x2="50" y2="10" stroke="#f44336" stroke-width="2"/>
    <line x1="50" y1="10" x2="55" y2="15" stroke="#f44336" stroke-width="2"/>
    <line x1="50" y1="10" x2="45" y2="15" stroke="#f44336" stroke-width="2"/>
    
    <line x1="130" y1="30" x2="130" y2="10" stroke="#f44336" stroke-width="2"/>
    <line x1="130" y1="10" x2="135" y2="15" stroke="#f44336" stroke-width="2"/>
    <line x1="130" y1="10" x2="125" y2="15" stroke="#f44336" stroke-width="2"/>
    
    <line x1="180" y1="30" x2="180" y2="10" stroke="#f44336" stroke-width="2"/>
    <line x1="180" y1="10" x2="185" y2="15" stroke="#f44336" stroke-width="2"/>
    <line x1="180" y1="10" x2="175" y2="15" stroke="#f44336" stroke-width="2"/>
    
    <!-- 标签 -->
    <text x="35" y="60" text-anchor="middle" font-family="Arial" font-size="10" fill="#4caf50">买方撤单</text>
    <text x="130" y="0" text-anchor="middle" font-family="Arial" font-size="10" fill="#f44336">卖方撤单</text>
    
    <!-- 窗口时间 -->
    <text x="100" y="50" text-anchor="middle" font-family="Arial" font-size="10">时间窗口 (3秒)</text>
  </g>
  
  <!-- 信号类型4：流动性集中度不平衡 -->
  <rect x="50" y="450" width="800" height="100" fill="white" stroke="#ddd" stroke-width="1" rx="5" ry="5"/>
  <text x="75" y="475" font-family="Arial" font-size="16" font-weight="bold">4. 流动性集中度不平衡</text>
  <text x="75" y="500" font-family="Arial" font-size="14">特征：分析订单簿中买卖盘流动性的分布情况，判断流动性是否集中在特定价格区间</text>
  <text x="75" y="525" font-family="Arial" font-size="14">公式：CBI = (BidConcentration - AskConcentration) / (BidConcentration + AskConcentration)</text>
  
  <!-- 流动性集中度不平衡图示 -->
  <g transform="translate(640, 480)">
    <!-- 买盘集中 -->
    <rect x="0" y="0" width="15" height="10" fill="#d3f9d8" stroke="#82c91e" stroke-width="1"/>
    <rect x="0" y="10" width="18" height="10" fill="#d3f9d8" stroke="#82c91e" stroke-width="1"/>
    <rect x="0" y="20" width="60" height="10" fill="#d3f9d8" stroke="#82c91e" stroke-width="1"/>
    <rect x="0" y="30" width="15" height="10" fill="#d3f9d8" stroke="#82c91e" stroke-width="1"/>
    <rect x="0" y="40" width="10" height="10" fill="#d3f9d8" stroke="#82c91e" stroke-width="1"/>
    
    <!-- 卖盘分散 -->
    <rect x="100" y="0" width="35" height="10" fill="#ffc9c9" stroke="#fa5252" stroke-width="1"/>
    <rect x="100" y="10" width="30" height="10" fill="#ffc9c9" stroke="#fa5252" stroke-width="1"/>
    <rect x="100" y="20" width="25" height="10" fill="#ffc9c9" stroke="#fa5252" stroke-width="1"/>
    <rect x="100" y="30" width="28" height="10" fill="#ffc9c9" stroke="#fa5252" stroke-width="1"/>
    <rect x="100" y="40" width="32" height="10" fill="#ffc9c9" stroke="#fa5252" stroke-width="1"/>
    
    <!-- 集中区域标识 -->
    <rect x="0" y="20" width="60" height="10" fill="none" stroke="#333" stroke-width="2"/>
    
    <!-- 标签 -->
    <text x="30" y="60" text-anchor="middle" font-family="Arial" font-size="10">买盘集中</text>
    <text x="120" y="60" text-anchor="middle" font-family="Arial" font-size="10">卖盘分散</text>
  </g>
  
  <!-- 底部说明 -->
  <rect x="50" y="560" width="800" height="30" fill="#f1f3f4" stroke="#ddd" stroke-width="1" rx="5" ry="5"/>
  <text x="450" y="580" text-anchor="middle" font-family="Arial" font-size="14">注：信号强度大于阈值时触发交易，信号可组合使用以提高准确率</text>
</svg> 