<?xml version="1.0" encoding="UTF-8" standalone="no"?>
<svg width="800" height="500" xmlns="http://www.w3.org/2000/svg">
  <defs>
    <marker id="arrowhead" markerWidth="10" markerHeight="7" refX="9" refY="3.5" orient="auto">
      <polygon points="0 0, 10 3.5, 0 7" fill="#333"/>
    </marker>
  </defs>
  
  <!-- 背景 -->
  <rect width="800" height="500" fill="#f8f9fa" rx="10" ry="10"/>
  <text x="400" y="30" text-anchor="middle" font-family="Arial" font-size="24" font-weight="bold">订单簿不平衡策略概览</text>
  
  <!-- 订单簿数据源 -->
  <rect x="300" y="70" width="200" height="60" fill="#e6f3ff" stroke="#0066cc" stroke-width="2" rx="5" ry="5"/>
  <text x="400" y="105" text-anchor="middle" font-family="Arial" font-size="16" font-weight="bold">订单簿实时数据</text>
  
  <!-- 不平衡指标计算 -->
  <rect x="300" y="170" width="200" height="90" fill="#f4dbe9" stroke="#9c27b0" stroke-width="2" rx="5" ry="5"/>
  <text x="400" y="195" text-anchor="middle" font-family="Arial" font-size="16" font-weight="bold">不平衡指标计算</text>
  <line x1="320" y1="205" x2="480" y2="205" stroke="#9c27b0" stroke-width="1"/>
  <text x="400" y="225" text-anchor="middle" font-family="Arial" font-size="12">第一层不平衡、深度加权</text>
  <text x="400" y="245" text-anchor="middle" font-family="Arial" font-size="12">撤单动态、流动性集中度</text>
  
  <!-- 连接箭头 - 订单簿到不平衡 -->
  <line x1="400" y1="130" x2="400" y2="170" stroke="#333" stroke-width="2" marker-end="url(#arrowhead)"/>
  
  <!-- 信号处理模块 -->
  <rect x="100" y="270" width="200" height="80" fill="#e0f2f1" stroke="#009688" stroke-width="2" rx="5" ry="5"/>
  <text x="200" y="300" text-anchor="middle" font-family="Arial" font-size="16" font-weight="bold">信号强度评估</text>
  <text x="200" y="325" text-anchor="middle" font-family="Arial" font-size="12">阈值判断与噪音过滤</text>
  
  <!-- 风险控制模块 -->
  <rect x="500" y="270" width="200" height="80" fill="#fff8e1" stroke="#ff8f00" stroke-width="2" rx="5" ry="5"/>
  <text x="600" y="300" text-anchor="middle" font-family="Arial" font-size="16" font-weight="bold">风险管理</text>
  <text x="600" y="325" text-anchor="middle" font-family="Arial" font-size="12">仓位控制与止损管理</text>
  
  <!-- 连接箭头 - 不平衡到信号 -->
  <line x1="350" y1="260" x2="250" y2="270" stroke="#333" stroke-width="2" marker-end="url(#arrowhead)"/>
  
  <!-- 连接箭头 - 不平衡到风险 -->
  <line x1="450" y1="260" x2="550" y2="270" stroke="#333" stroke-width="2" marker-end="url(#arrowhead)"/>
  
  <!-- 交易执行模块 -->
  <rect x="300" y="380" width="200" height="80" fill="#e8f5e9" stroke="#4caf50" stroke-width="2" rx="5" ry="5"/>
  <text x="400" y="410" text-anchor="middle" font-family="Arial" font-size="16" font-weight="bold">交易执行</text>
  <text x="400" y="435" text-anchor="middle" font-family="Arial" font-size="12">智能下单与执行优化</text>
  
  <!-- 连接箭头 - 信号到执行 -->
  <line x1="200" y1="350" x2="350" y2="380" stroke="#333" stroke-width="2" marker-end="url(#arrowhead)"/>
  
  <!-- 连接箭头 - 风险到执行 -->
  <line x1="600" y1="350" x2="450" y2="380" stroke="#333" stroke-width="2" marker-end="url(#arrowhead)"/>
  
  <!-- 订单簿深度可视化 -->
  <g transform="translate(40, 180)">
    <!-- 买单深度 -->
    <rect x="0" y="0" width="25" height="35" fill="#d3f9d8" stroke="#82c91e" stroke-width="1"/>
    <rect x="0" y="35" width="20" height="25" fill="#d3f9d8" stroke="#82c91e" stroke-width="1"/>
    <rect x="0" y="60" width="15" height="15" fill="#d3f9d8" stroke="#82c91e" stroke-width="1"/>
    <rect x="0" y="75" width="10" height="10" fill="#d3f9d8" stroke="#82c91e" stroke-width="1"/>
    <rect x="0" y="85" width="5" height="5" fill="#d3f9d8" stroke="#82c91e" stroke-width="1"/>
    
    <!-- 卖单深度 -->
    <rect x="25" y="0" width="10" height="35" fill="#ffc9c9" stroke="#fa5252" stroke-width="1"/>
    <rect x="25" y="35" width="15" height="25" fill="#ffc9c9" stroke="#fa5252" stroke-width="1"/>
    <rect x="25" y="60" width="20" height="15" fill="#ffc9c9" stroke="#fa5252" stroke-width="1"/>
    <rect x="25" y="75" width="25" height="10" fill="#ffc9c9" stroke="#fa5252" stroke-width="1"/>
    <rect x="25" y="85" width="30" height="5" fill="#ffc9c9" stroke="#fa5252" stroke-width="1"/>
    
    <!-- 标签 -->
    <text x="10" y="110" text-anchor="middle" font-family="Arial" font-size="10" fill="#333">买单</text>
    <text x="40" y="110" text-anchor="middle" font-family="Arial" font-size="10" fill="#333">卖单</text>
  </g>
  
  <!-- 不平衡指标可视化 -->
  <g transform="translate(670, 180)">
    <!-- 仪表盘外圈 -->
    <circle cx="40" cy="40" r="35" fill="none" stroke="#ddd" stroke-width="5"/>
    
    <!-- 仪表盘值 - 展示强烈买方不平衡 -->
    <path d="M 40 40 L 40 10 A 30 30 0 0 1 65 25 Z" fill="#4caf50" fill-opacity="0.7"/>
    <path d="M 40 40 L 65 25 A 30 30 0 0 1 70 45 Z" fill="#ffc107" fill-opacity="0.7"/>
    <path d="M 40 40 L 70 45 A 30 30 0 0 1 15 65 Z" fill="#f44336" fill-opacity="0.7"/>
    
    <!-- 指针 -->
    <line x1="40" y1="40" x2="55" y2="15" stroke="#333" stroke-width="2"/>
    <circle cx="40" cy="40" r="3" fill="#333"/>
    
    <!-- 标签 -->
    <text x="40" y="85" text-anchor="middle" font-family="Arial" font-size="10" fill="#333">不平衡指标</text>
  </g>
  
  <!-- 策略模型细节 - 买方压力信号 -->
  <g transform="translate(160, 100)">
    <!-- 标题 -->
    <text x="0" y="0" font-family="Arial" font-size="12" font-weight="bold" fill="#666">买方压力信号示例</text>
    
    <!-- 简化订单簿可视化 - 买方压力大 -->
    <rect x="0" y="10" width="60" height="12" fill="#d3f9d8" stroke="#82c91e" stroke-width="1"/>
    <rect x="60" y="10" width="20" height="12" fill="#ffc9c9" stroke="#fa5252" stroke-width="1"/>
    
    <rect x="0" y="22" width="50" height="12" fill="#d3f9d8" stroke="#82c91e" stroke-width="1"/>
    <rect x="60" y="22" width="25" height="12" fill="#ffc9c9" stroke="#fa5252" stroke-width="1"/>
    
    <rect x="0" y="34" width="40" height="12" fill="#d3f9d8" stroke="#82c91e" stroke-width="1"/>
    <rect x="60" y="34" width="30" height="12" fill="#ffc9c9" stroke="#fa5252" stroke-width="1"/>
    
    <!-- 标签 -->
    <text x="30" y="56" text-anchor="middle" font-family="Arial" font-size="10" fill="#333">买单量</text>
    <text x="75" y="56" text-anchor="middle" font-family="Arial" font-size="10" fill="#333">卖单量</text>
    
    <!-- 买方压力指示器 -->
    <text x="30" y="70" text-anchor="middle" font-family="Arial" font-size="10" fill="#4caf50">买方压力: 强</text>
  </g>
  
  <!-- 策略模型细节 - 卖方压力信号 -->
  <g transform="translate(550, 100)">
    <!-- 标题 -->
    <text x="0" y="0" font-family="Arial" font-size="12" font-weight="bold" fill="#666">卖方压力信号示例</text>
    
    <!-- 简化订单簿可视化 - 卖方压力大 -->
    <rect x="0" y="10" width="20" height="12" fill="#d3f9d8" stroke="#82c91e" stroke-width="1"/>
    <rect x="60" y="10" width="60" height="12" fill="#ffc9c9" stroke="#fa5252" stroke-width="1"/>
    
    <rect x="0" y="22" width="25" height="12" fill="#d3f9d8" stroke="#82c91e" stroke-width="1"/>
    <rect x="60" y="22" width="50" height="12" fill="#ffc9c9" stroke="#fa5252" stroke-width="1"/>
    
    <rect x="0" y="34" width="30" height="12" fill="#d3f9d8" stroke="#82c91e" stroke-width="1"/>
    <rect x="60" y="34" width="40" height="12" fill="#ffc9c9" stroke="#fa5252" stroke-width="1"/>
    
    <!-- 标签 -->
    <text x="30" y="56" text-anchor="middle" font-family="Arial" font-size="10" fill="#333">买单量</text>
    <text x="75" y="56" text-anchor="middle" font-family="Arial" font-size="10" fill="#333">卖单量</text>
    
    <!-- 卖方压力指示器 -->
    <text x="75" y="70" text-anchor="middle" font-family="Arial" font-size="10" fill="#f44336">卖方压力: 强</text>
  </g>
</svg> 