<?xml version="1.0" encoding="UTF-8" standalone="no"?>
<svg width="1000" height="700" xmlns="http://www.w3.org/2000/svg">
  <!-- 背景 -->
  <rect width="1000" height="700" fill="#f8f9fa" rx="10" ry="10"/>
  <text x="500" y="40" text-anchor="middle" font-family="Arial" font-size="24" font-weight="bold">风险监控面板</text>
  
  <!-- 顶部状态栏 -->
  <rect x="50" y="60" width="900" height="40" fill="#0066cc" rx="5" ry="5"/>
  <text x="80" y="85" font-family="Arial" font-size="14" fill="white" font-weight="bold">系统状态: 正常运行中</text>
  <circle cx="220" cy="80" r="6" fill="#4CAF50"/>
  <text x="350" y="85" font-family="Arial" font-size="14" fill="white">风险等级: 中等</text>
  <rect x="430" y="70" width="80" height="20" fill="#FFC107" stroke="#FFB300" stroke-width="1" rx="10" ry="10"/>
  <text x="470" y="85" text-anchor="middle" font-family="Arial" font-size="12" fill="white" font-weight="bold">中风险</text>
  <text x="600" y="85" font-family="Arial" font-size="14" fill="white">活跃警报: 5</text>
  <text x="800" y="85" font-family="Arial" font-size="14" fill="white">更新时间: 2023-10-25 14:30:45</text>
  
  <!-- 风险总览区域 -->
  <rect x="50" y="120" width="480" height="240" fill="white" stroke="#ddd" stroke-width="1" rx="5" ry="5"/>
  <text x="70" y="145" font-family="Arial" font-size="16" font-weight="bold">风险总览</text>
  
  <!-- 风险热图 -->
  <rect x="70" y="160" width="200" height="180" fill="#fafafa" stroke="#eee" stroke-width="1" rx="3" ry="3"/>
  <text x="170" y="180" font-family="Arial" font-size="14" text-anchor="middle">风险热图</text>
  
  <!-- 热图单元格 -->
  <rect x="90" y="190" width="40" height="40" fill="#c8e6c9" stroke="#ddd" stroke-width="1"/>
  <rect x="130" y="190" width="40" height="40" fill="#c8e6c9" stroke="#ddd" stroke-width="1"/>
  <rect x="170" y="190" width="40" height="40" fill="#ffecb3" stroke="#ddd" stroke-width="1"/>
  <rect x="210" y="190" width="40" height="40" fill="#ffcdd2" stroke="#ddd" stroke-width="1"/>
  
  <rect x="90" y="230" width="40" height="40" fill="#c8e6c9" stroke="#ddd" stroke-width="1"/>
  <rect x="130" y="230" width="40" height="40" fill="#ffecb3" stroke="#ddd" stroke-width="1"/>
  <rect x="170" y="230" width="40" height="40" fill="#ffecb3" stroke="#ddd" stroke-width="1"/>
  <rect x="210" y="230" width="40" height="40" fill="#ffcdd2" stroke="#ddd" stroke-width="1"/>
  
  <rect x="90" y="270" width="40" height="40" fill="#ffecb3" stroke="#ddd" stroke-width="1"/>
  <rect x="130" y="270" width="40" height="40" fill="#ffecb3" stroke="#ddd" stroke-width="1"/>
  <rect x="170" y="270" width="40" height="40" fill="#ffcdd2" stroke="#ddd" stroke-width="1"/>
  <rect x="210" y="270" width="40" height="40" fill="#ffcdd2" stroke="#ddd" stroke-width="1"/>
  
  <text x="90" y="180" font-family="Arial" font-size="10" text-anchor="middle">低概率</text>
  <text x="250" y="180" font-family="Arial" font-size="10" text-anchor="middle">高概率</text>
  <text x="70" y="210" font-family="Arial" font-size="10" text-anchor="middle" transform="rotate(-90, 70, 210)">低影响</text>
  <text x="70" y="290" font-family="Arial" font-size="10" text-anchor="middle" transform="rotate(-90, 70, 290)">高影响</text>
  
  <!-- 风险仪表盘 -->
  <rect x="290" y="160" width="220" height="180" fill="#fafafa" stroke="#eee" stroke-width="1" rx="3" ry="3"/>
  <text x="400" y="180" font-family="Arial" font-size="14" text-anchor="middle">关键风险指标</text>
  
  <!-- 风险仪表1 -->
  <circle cx="340" cy="220" r="40" fill="none" stroke="#ddd" stroke-width="6"/>
  <path d="M 340 220 m -40 0 a 40 40 0 0 1 65 -40" fill="none" stroke="#4CAF50" stroke-width="6"/>
  <text x="340" y="225" font-family="Arial" font-size="14" text-anchor="middle" font-weight="bold">85%</text>
  <text x="340" y="245" font-family="Arial" font-size="10" text-anchor="middle">策略稳定性</text>
  
  <!-- 风险仪表2 -->
  <circle cx="460" cy="220" r="40" fill="none" stroke="#ddd" stroke-width="6"/>
  <path d="M 460 220 m -40 0 a 40 40 0 0 1 50 -30" fill="none" stroke="#FFC107" stroke-width="6"/>
  <text x="460" y="225" font-family="Arial" font-size="14" text-anchor="middle" font-weight="bold">62%</text>
  <text x="460" y="245" font-family="Arial" font-size="10" text-anchor="middle">系统健康度</text>
  
  <!-- 风险仪表3 -->
  <circle cx="340" cy="300" r="25" fill="none" stroke="#ddd" stroke-width="4"/>
  <path d="M 340 300 m -25 0 a 25 25 0 0 1 20 -24" fill="none" stroke="#F44336" stroke-width="4"/>
  <text x="340" y="305" font-family="Arial" font-size="12" text-anchor="middle" font-weight="bold">32%</text>
  <text x="340" y="320" font-family="Arial" font-size="9" text-anchor="middle">流动性风险</text>
  
  <!-- 风险仪表4 -->
  <circle cx="400" cy="300" r="25" fill="none" stroke="#ddd" stroke-width="4"/>
  <path d="M 400 300 m -25 0 a 25 25 0 0 1 30 -20" fill="none" stroke="#4CAF50" stroke-width="4"/>
  <text x="400" y="305" font-family="Arial" font-size="12" text-anchor="middle" font-weight="bold">88%</text>
  <text x="400" y="320" font-family="Arial" font-size="9" text-anchor="middle">交易准确性</text>
  
  <!-- 风险仪表5 -->
  <circle cx="460" cy="300" r="25" fill="none" stroke="#ddd" stroke-width="4"/>
  <path d="M 460 300 m -25 0 a 25 25 0 0 1 25 -15" fill="none" stroke="#FFC107" stroke-width="4"/>
  <text x="460" y="305" font-family="Arial" font-size="12" text-anchor="middle" font-weight="bold">65%</text>
  <text x="460" y="320" font-family="Arial" font-size="9" text-anchor="middle">市场风险</text>
  
  <!-- 策略风险面板 -->
  <rect x="550" y="120" width="400" height="240" fill="white" stroke="#ddd" stroke-width="1" rx="5" ry="5"/>
  <text x="570" y="145" font-family="Arial" font-size="16" font-weight="bold">策略风险面板</text>
  
  <!-- 策略风险表 -->
  <rect x="570" y="160" width="360" height="30" fill="#f1f3f4" stroke="#ddd" stroke-width="1"/>
  <text x="590" y="180" font-family="Arial" font-size="12" font-weight="bold" fill="#666">策略名称</text>
  <text x="710" y="180" font-family="Arial" font-size="12" font-weight="bold" fill="#666">风险评分</text>
  <text x="800" y="180" font-family="Arial" font-size="12" font-weight="bold" fill="#666">24小时变化</text>
  <text x="900" y="180" font-family="Arial" font-size="12" font-weight="bold" fill="#666">状态</text>
  
  <!-- 策略1 -->
  <rect x="570" y="190" width="360" height="25" fill="white" stroke="#ddd" stroke-width="1"/>
  <text x="590" y="207" font-family="Arial" font-size="11">价差套利策略</text>
  <text x="710" y="207" font-family="Arial" font-size="11">68/100</text>
  <text x="800" y="207" font-family="Arial" font-size="11" fill="#F44336">+12</text>
  <rect x="880" y="197" width="40" height="14" fill="#ffecb3" stroke="#ffd54f" stroke-width="1" rx="2" ry="2"/>
  <text x="900" y="207" text-anchor="middle" font-family="Arial" font-size="10" fill="#ff6f00">警告</text>
  
  <!-- 策略2 -->
  <rect x="570" y="215" width="360" height="25" fill="#fafafa" stroke="#ddd" stroke-width="1"/>
  <text x="590" y="232" font-family="Arial" font-size="11">流动性捕捉策略</text>
  <text x="710" y="232" font-family="Arial" font-size="11">42/100</text>
  <text x="800" y="232" font-family="Arial" font-size="11" fill="#4CAF50">-5</text>
  <rect x="880" y="222" width="40" height="14" fill="#c8e6c9" stroke="#a5d6a7" stroke-width="1" rx="2" ry="2"/>
  <text x="900" y="232" text-anchor="middle" font-family="Arial" font-size="10" fill="#2e7d32">正常</text>
  
  <!-- 策略3 -->
  <rect x="570" y="240" width="360" height="25" fill="white" stroke="#ddd" stroke-width="1"/>
  <text x="590" y="257" font-family="Arial" font-size="11">做市商策略</text>
  <text x="710" y="257" font-family="Arial" font-size="11">85/100</text>
  <text x="800" y="257" font-family="Arial" font-size="11" fill="#F44336">+25</text>
  <rect x="880" y="247" width="40" height="14" fill="#ffcdd2" stroke="#ef9a9a" stroke-width="1" rx="2" ry="2"/>
  <text x="900" y="257" text-anchor="middle" font-family="Arial" font-size="10" fill="#c62828">高风险</text>
  
  <!-- 策略4 -->
  <rect x="570" y="265" width="360" height="25" fill="#fafafa" stroke="#ddd" stroke-width="1"/>
  <text x="590" y="282" font-family="Arial" font-size="11">订单簿不平衡策略</text>
  <text x="710" y="282" font-family="Arial" font-size="11">56/100</text>
  <text x="800" y="282" font-family="Arial" font-size="11" fill="#4CAF50">-3</text>
  <rect x="880" y="272" width="40" height="14" fill="#c8e6c9" stroke="#a5d6a7" stroke-width="1" rx="2" ry="2"/>
  <text x="900" y="282" text-anchor="middle" font-family="Arial" font-size="10" fill="#2e7d32">正常</text>
  
  <!-- 策略5 -->
  <rect x="570" y="290" width="360" height="25" fill="white" stroke="#ddd" stroke-width="1"/>
  <text x="590" y="307" font-family="Arial" font-size="11">冰山订单探测策略</text>
  <text x="710" y="307" font-family="Arial" font-size="11">63/100</text>
  <text x="800" y="307" font-family="Arial" font-size="11" fill="#F44336">+8</text>
  <rect x="880" y="297" width="40" height="14" fill="#ffecb3" stroke="#ffd54f" stroke-width="1" rx="2" ry="2"/>
  <text x="900" y="307" text-anchor="middle" font-family="Arial" font-size="10" fill="#ff6f00">警告</text>
  
  <!-- 相关性热图按钮 -->
  <rect x="570" y="325" width="110" height="25" fill="#0066cc" stroke="#0055aa" stroke-width="1" rx="3" ry="3"/>
  <text x="625" y="342" text-anchor="middle" font-family="Arial" font-size="12" fill="white">相关性热图</text>
  
  <!-- 风险贡献按钮 -->
  <rect x="690" y="325" width="110" height="25" fill="#0066cc" stroke="#0055aa" stroke-width="1" rx="3" ry="3"/>
  <text x="745" y="342" text-anchor="middle" font-family="Arial" font-size="12" fill="white">风险贡献度</text>
  
  <!-- 异常监测按钮 -->
  <rect x="810" y="325" width="110" height="25" fill="#0066cc" stroke="#0055aa" stroke-width="1" rx="3" ry="3"/>
  <text x="865" y="342" text-anchor="middle" font-family="Arial" font-size="12" fill="white">异常监测</text>
  
  <!-- 市场风险监测 -->
  <rect x="50" y="380" width="480" height="300" fill="white" stroke="#ddd" stroke-width="1" rx="5" ry="5"/>
  <text x="70" y="405" font-family="Arial" font-size="16" font-weight="bold">市场风险监测</text>
  
  <!-- 市场波动监测图 -->
  <rect x="70" y="420" width="440" height="120" fill="#fafafa" stroke="#eee" stroke-width="1" rx="3" ry="3"/>
  <text x="290" y="440" font-family="Arial" font-size="14" text-anchor="middle">市场波动率监测</text>
  
  <!-- 简单折线图 -->
  <polyline points="80,520 100,510 120,515 140,500 160,505 180,490 200,480 220,500 240,510 260,505 280,490 300,485 320,500 340,510 360,490 380,495 400,480 420,485 440,470 460,480 480,485" 
           fill="none" stroke="#2196F3" stroke-width="2"/>
  <polyline points="80,520 100,525 120,530 140,525 160,520 180,525 200,530 220,525 240,515 260,520 280,525 300,530 320,525 340,515 360,520 380,525 400,530 420,525 440,515 460,510 480,505" 
           fill="none" stroke="#FFC107" stroke-width="2" stroke-dasharray="5,2"/>
  
  <!-- X轴标记 -->
  <line x1="80" y1="520" x2="480" y2="520" stroke="#666" stroke-width="1"/>
  <text x="80" y="535" font-family="Arial" font-size="10">9:30</text>
  <text x="280" y="535" font-family="Arial" font-size="10">12:00</text>
  <text x="480" y="535" font-family="Arial" font-size="10">14:30</text>
  
  <!-- 图例 -->
  <rect x="80" y="550" width="10" height="10" fill="none" stroke="#2196F3" stroke-width="2"/>
  <text x="100" y="560" font-family="Arial" font-size="12">波动率</text>
  <rect x="160" y="550" width="10" height="10" fill="none" stroke="#FFC107" stroke-width="2" stroke-dasharray="5,2"/>
  <text x="180" y="560" font-family="Arial" font-size="12">警戒线</text>
  
  <!-- 流动性状况 -->
  <rect x="70" y="580" width="220" height="80" fill="#fafafa" stroke="#eee" stroke-width="1" rx="3" ry="3"/>
  <text x="180" y="600" font-family="Arial" font-size="14" text-anchor="middle">流动性状况</text>
  <rect x="90" y="610" width="180" height="15" fill="#e0e0e0" stroke="#ddd" stroke-width="1" rx="2" ry="2"/>
  <rect x="90" y="610" width="126" height="15" fill="#4CAF50" stroke="#ddd" stroke-width="1" rx="2" ry="2"/>
  <text x="180" y="623" font-family="Arial" font-size="10" text-anchor="middle">70% - 良好</text>
  <text x="90" y="640" font-family="Arial" font-size="10">最近1小时变化: -5%</text>
  
  <!-- 价差异常 -->
  <rect x="300" y="580" width="210" height="80" fill="#fafafa" stroke="#eee" stroke-width="1" rx="3" ry="3"/>
  <text x="405" y="600" font-family="Arial" font-size="14" text-anchor="middle">价差异常检测</text>
  <rect x="320" y="610" width="170" height="15" fill="#e0e0e0" stroke="#ddd" stroke-width="1" rx="2" ry="2"/>
  <rect x="320" y="610" width="85" height="15" fill="#FFC107" stroke="#ddd" stroke-width="1" rx="2" ry="2"/>
  <text x="405" y="623" font-family="Arial" font-size="10" text-anchor="middle">50% - 需关注</text>
  <text x="320" y="640" font-family="Arial" font-size="10">异常检测次数: 3次/小时</text>
  
  <!-- 系统状态监控 -->
  <rect x="550" y="380" width="400" height="300" fill="white" stroke="#ddd" stroke-width="1" rx="5" ry="5"/>
  <text x="570" y="405" font-family="Arial" font-size="16" font-weight="bold">系统状态监控</text>
  
  <!-- API连接状态 -->
  <rect x="570" y="420" width="360" height="30" fill="#f1f3f4" stroke="#ddd" stroke-width="1"/>
  <text x="590" y="440" font-family="Arial" font-size="12" font-weight="bold" fill="#666">交易所</text>
  <text x="720" y="440" font-family="Arial" font-size="12" font-weight="bold" fill="#666">延迟(ms)</text>
  <text x="820" y="440" font-family="Arial" font-size="12" font-weight="bold" fill="#666">API状态</text>
  <text x="910" y="440" font-family="Arial" font-size="12" font-weight="bold" fill="#666">稳定性</text>
  
  <!-- 交易所1 -->
  <rect x="570" y="450" width="360" height="25" fill="white" stroke="#ddd" stroke-width="1"/>
  <text x="590" y="467" font-family="Arial" font-size="11">Binance</text>
  <text x="720" y="467" font-family="Arial" font-size="11">45</text>
  <rect x="800" y="457" width="40" height="14" fill="#c8e6c9" stroke="#a5d6a7" stroke-width="1" rx="2" ry="2"/>
  <text x="820" y="467" text-anchor="middle" font-family="Arial" font-size="10" fill="#2e7d32">正常</text>
  <rect x="890" y="457" width="40" height="14" fill="#c8e6c9" stroke="#a5d6a7" stroke-width="1" rx="2" ry="2"/>
  <text x="910" y="467" text-anchor="middle" font-family="Arial" font-size="10" fill="#2e7d32">99.8%</text>
  
  <!-- 交易所2 -->
  <rect x="570" y="475" width="360" height="25" fill="#fafafa" stroke="#ddd" stroke-width="1"/>
  <text x="590" y="492" font-family="Arial" font-size="11">Coinbase</text>
  <text x="720" y="492" font-family="Arial" font-size="11">68</text>
  <rect x="800" y="482" width="40" height="14" fill="#c8e6c9" stroke="#a5d6a7" stroke-width="1" rx="2" ry="2"/>
  <text x="820" y="492" text-anchor="middle" font-family="Arial" font-size="10" fill="#2e7d32">正常</text>
  <rect x="890" y="482" width="40" height="14" fill="#ffecb3" stroke="#ffd54f" stroke-width="1" rx="2" ry="2"/>
  <text x="910" y="492" text-anchor="middle" font-family="Arial" font-size="10" fill="#ff6f00">97.5%</text>
  
  <!-- 交易所3 -->
  <rect x="570" y="500" width="360" height="25" fill="white" stroke="#ddd" stroke-width="1"/>
  <text x="590" y="517" font-family="Arial" font-size="11">Huobi</text>
  <text x="720" y="517" font-family="Arial" font-size="11">112</text>
  <rect x="800" y="507" width="40" height="14" fill="#ffecb3" stroke="#ffd54f" stroke-width="1" rx="2" ry="2"/>
  <text x="820" y="517" text-anchor="middle" font-family="Arial" font-size="10" fill="#ff6f00">延迟</text>
  <rect x="890" y="507" width="40" height="14" fill="#ffecb3" stroke="#ffd54f" stroke-width="1" rx="2" ry="2"/>
  <text x="910" y="517" text-anchor="middle" font-family="Arial" font-size="10" fill="#ff6f00">95.2%</text>
  
  <!-- 交易所4 -->
  <rect x="570" y="525" width="360" height="25" fill="#fafafa" stroke="#ddd" stroke-width="1"/>
  <text x="590" y="542" font-family="Arial" font-size="11">OKX</text>
  <text x="720" y="542" font-family="Arial" font-size="11">210</text>
  <rect x="800" y="532" width="40" height="14" fill="#ffcdd2" stroke="#ef9a9a" stroke-width="1" rx="2" ry="2"/>
  <text x="820" y="542" text-anchor="middle" font-family="Arial" font-size="10" fill="#c62828">不稳定</text>
  <rect x="890" y="532" width="40" height="14" fill="#ffcdd2" stroke="#ef9a9a" stroke-width="1" rx="2" ry="2"/>
  <text x="910" y="542" text-anchor="middle" font-family="Arial" font-size="10" fill="#c62828">88.3%</text>
  
  <!-- 系统资源使用情况 -->
  <rect x="570" y="570" width="360" height="90" fill="#fafafa" stroke="#eee" stroke-width="1" rx="3" ry="3"/>
  <text x="750" y="590" font-family="Arial" font-size="14" text-anchor="middle">系统资源使用情况</text>
  
  <!-- CPU使用率 -->
  <text x="590" y="615" font-family="Arial" font-size="12">CPU: 42%</text>
  <rect x="650" y="605" width="200" height="12" fill="#e0e0e0" stroke="#ddd" stroke-width="1" rx="2" ry="2"/>
  <rect x="650" y="605" width="84" height="12" fill="#4CAF50" stroke="#ddd" stroke-width="1" rx="2" ry="2"/>
  
  <!-- 内存使用率 -->
  <text x="590" y="635" font-family="Arial" font-size="12">内存: 68%</text>
  <rect x="650" y="625" width="200" height="12" fill="#e0e0e0" stroke="#ddd" stroke-width="1" rx="2" ry="2"/>
  <rect x="650" y="625" width="136" height="12" fill="#FFC107" stroke="#ddd" stroke-width="1" rx="2" ry="2"/>
  
  <!-- 网络带宽 -->
  <text x="590" y="655" font-family="Arial" font-size="12">网络: 25%</text>
  <rect x="650" y="645" width="200" height="12" fill="#e0e0e0" stroke="#ddd" stroke-width="1" rx="2" ry="2"/>
  <rect x="650" y="645" width="50" height="12" fill="#4CAF50" stroke="#ddd" stroke-width="1" rx="2" ry="2"/>
</svg> 