<?xml version="1.0" encoding="UTF-8" standalone="no"?>
<svg width="800" height="600" xmlns="http://www.w3.org/2000/svg">
  <!-- 背景 -->
  <rect width="800" height="600" fill="#f8f9fa" rx="10" ry="10"/>
  <text x="400" y="40" text-anchor="middle" font-family="Arial" font-size="24" font-weight="bold">风险指标面板</text>
  
  <!-- 顶部标题栏 -->
  <rect x="50" y="60" width="700" height="40" fill="#e1f5fe" stroke="#b3e5fc" stroke-width="1" rx="5" ry="5"/>
  <text x="400" y="85" text-anchor="middle" font-family="Arial" font-size="18" font-weight="bold">交易风险监控</text>
  <text x="680" y="85" font-family="Arial" font-size="12">最近更新: 2023-10-25 15:30</text>
  
  <!-- 指标表格头部 -->
  <rect x="50" y="110" width="700" height="30" fill="#0277bd" rx="5" ry="5"/>
  <text x="110" y="130" font-family="Arial" font-size="14" fill="white" font-weight="bold">风险指标</text>
  <text x="240" y="130" font-family="Arial" font-size="14" fill="white" font-weight="bold">指标描述</text>
  <text x="400" y="130" font-family="Arial" font-size="14" fill="white" font-weight="bold">预警阈值</text>
  <text x="520" y="130" font-family="Arial" font-size="14" fill="white" font-weight="bold">干预阈值</text>
  <text x="620" y="130" font-family="Arial" font-size="14" fill="white" font-weight="bold">当前值</text>
  <text x="700" y="130" font-family="Arial" font-size="14" fill="white" font-weight="bold">状态</text>
  
  <!-- 指标1 -->
  <rect x="50" y="140" width="700" height="50" fill="white" stroke="#e0e0e0" stroke-width="1"/>
  <text x="110" y="165" font-family="Arial" font-size="14" font-weight="bold" text-anchor="middle">单笔订单风险比率</text>
  <text x="240" y="160" font-family="Arial" font-size="12" text-anchor="middle">单个订单金额占</text>
  <text x="240" y="175" font-family="Arial" font-size="12" text-anchor="middle">账户总资产的比例</text>
  <text x="400" y="165" font-family="Arial" font-size="14" text-anchor="middle">30%</text>
  <text x="520" y="165" font-family="Arial" font-size="14" text-anchor="middle">50%</text>
  <text x="620" y="165" font-family="Arial" font-size="14" text-anchor="middle" fill="#FF9800" font-weight="bold">42%</text>
  
  <rect x="670" y="152" width="60" height="25" rx="12" ry="12" fill="#FFC107" stroke="#FFB300" stroke-width="1"/>
  <text x="700" y="168" font-family="Arial" font-size="12" text-anchor="middle" fill="white" font-weight="bold">警告</text>
  
  <!-- 指标2 -->
  <rect x="50" y="190" width="700" height="50" fill="#f5f5f5" stroke="#e0e0e0" stroke-width="1"/>
  <text x="110" y="215" font-family="Arial" font-size="14" font-weight="bold" text-anchor="middle">价格偏离度</text>
  <text x="240" y="210" font-family="Arial" font-size="12" text-anchor="middle">交易价格与市场</text>
  <text x="240" y="225" font-family="Arial" font-size="12" text-anchor="middle">参考价格的偏离率</text>
  <text x="400" y="215" font-family="Arial" font-size="14" text-anchor="middle">0.5%</text>
  <text x="520" y="215" font-family="Arial" font-size="14" text-anchor="middle">1%</text>
  <text x="620" y="215" font-family="Arial" font-size="14" text-anchor="middle" fill="#4CAF50" font-weight="bold">0.27%</text>
  
  <rect x="670" y="202" width="60" height="25" rx="12" ry="12" fill="#4CAF50" stroke="#43A047" stroke-width="1"/>
  <text x="700" y="218" font-family="Arial" font-size="12" text-anchor="middle" fill="white" font-weight="bold">正常</text>
  
  <!-- 指标3 -->
  <rect x="50" y="240" width="700" height="50" fill="white" stroke="#e0e0e0" stroke-width="1"/>
  <text x="110" y="265" font-family="Arial" font-size="14" font-weight="bold" text-anchor="middle">净敞口比例</text>
  <text x="240" y="260" font-family="Arial" font-size="12" text-anchor="middle">净持仓价值占</text>
  <text x="240" y="275" font-family="Arial" font-size="12" text-anchor="middle">总资产的比例</text>
  <text x="400" y="265" font-family="Arial" font-size="14" text-anchor="middle">25%</text>
  <text x="520" y="265" font-family="Arial" font-size="14" text-anchor="middle">40%</text>
  <text x="620" y="265" font-family="Arial" font-size="14" text-anchor="middle" fill="#F44336" font-weight="bold">32%</text>
  
  <rect x="670" y="252" width="60" height="25" rx="12" ry="12" fill="#F44336" stroke="#E53935" stroke-width="1"/>
  <text x="700" y="268" font-family="Arial" font-size="12" text-anchor="middle" fill="white" font-weight="bold">危险</text>
  
  <!-- 指标4 -->
  <rect x="50" y="290" width="700" height="50" fill="#f5f5f5" stroke="#e0e0e0" stroke-width="1"/>
  <text x="110" y="315" font-family="Arial" font-size="14" font-weight="bold" text-anchor="middle">策略集中度</text>
  <text x="240" y="310" font-family="Arial" font-size="12" text-anchor="middle">单一策略资金占</text>
  <text x="240" y="325" font-family="Arial" font-size="12" text-anchor="middle">总资金的比例</text>
  <text x="400" y="315" font-family="Arial" font-size="14" text-anchor="middle">40%</text>
  <text x="520" y="315" font-family="Arial" font-size="14" text-anchor="middle">60%</text>
  <text x="620" y="315" font-family="Arial" font-size="14" text-anchor="middle" fill="#4CAF50" font-weight="bold">35%</text>
  
  <rect x="670" y="302" width="60" height="25" rx="12" ry="12" fill="#4CAF50" stroke="#43A047" stroke-width="1"/>
  <text x="700" y="318" font-family="Arial" font-size="12" text-anchor="middle" fill="white" font-weight="bold">正常</text>
  
  <!-- 指标5 -->
  <rect x="50" y="340" width="700" height="50" fill="white" stroke="#e0e0e0" stroke-width="1"/>
  <text x="110" y="365" font-family="Arial" font-size="14" font-weight="bold" text-anchor="middle">耗尽流动性预警</text>
  <text x="240" y="360" font-family="Arial" font-size="12" text-anchor="middle">交易量对市场</text>
  <text x="240" y="375" font-family="Arial" font-size="12" text-anchor="middle">流动性的占比</text>
  <text x="400" y="365" font-family="Arial" font-size="14" text-anchor="middle">30%</text>
  <text x="520" y="365" font-family="Arial" font-size="14" text-anchor="middle">50%</text>
  <text x="620" y="365" font-family="Arial" font-size="14" text-anchor="middle" fill="#FF9800" font-weight="bold">45%</text>
  
  <rect x="670" y="352" width="60" height="25" rx="12" ry="12" fill="#FFC107" stroke="#FFB300" stroke-width="1"/>
  <text x="700" y="368" font-family="Arial" font-size="12" text-anchor="middle" fill="white" font-weight="bold">警告</text>
  
  <!-- 指标6 -->
  <rect x="50" y="390" width="700" height="50" fill="#f5f5f5" stroke="#e0e0e0" stroke-width="1"/>
  <text x="110" y="415" font-family="Arial" font-size="14" font-weight="bold" text-anchor="middle">滑点成本率</text>
  <text x="240" y="410" font-family="Arial" font-size="12" text-anchor="middle">交易滑点占</text>
  <text x="240" y="425" font-family="Arial" font-size="12" text-anchor="middle">交易金额的比例</text>
  <text x="400" y="415" font-family="Arial" font-size="14" text-anchor="middle">0.1%</text>
  <text x="520" y="415" font-family="Arial" font-size="14" text-anchor="middle">0.2%</text>
  <text x="620" y="415" font-family="Arial" font-size="14" text-anchor="middle" fill="#4CAF50" font-weight="bold">0.08%</text>
  
  <rect x="670" y="402" width="60" height="25" rx="12" ry="12" fill="#4CAF50" stroke="#43A047" stroke-width="1"/>
  <text x="700" y="418" font-family="Arial" font-size="12" text-anchor="middle" fill="white" font-weight="bold">正常</text>
  
  <!-- 指标7 -->
  <rect x="50" y="440" width="700" height="50" fill="white" stroke="#e0e0e0" stroke-width="1"/>
  <text x="110" y="465" font-family="Arial" font-size="14" font-weight="bold" text-anchor="middle">交易频率异常</text>
  <text x="240" y="460" font-family="Arial" font-size="12" text-anchor="middle">交易频率偏离</text>
  <text x="240" y="475" font-family="Arial" font-size="12" text-anchor="middle">历史均值的标准差</text>
  <text x="400" y="465" font-family="Arial" font-size="14" text-anchor="middle">2σ</text>
  <text x="520" y="465" font-family="Arial" font-size="14" text-anchor="middle">3σ</text>
  <text x="620" y="465" font-family="Arial" font-size="14" text-anchor="middle" fill="#FF9800" font-weight="bold">2.4σ</text>
  
  <rect x="670" y="452" width="60" height="25" rx="12" ry="12" fill="#FFC107" stroke="#FFB300" stroke-width="1"/>
  <text x="700" y="468" font-family="Arial" font-size="12" text-anchor="middle" fill="white" font-weight="bold">警告</text>
  
  <!-- 指标8 -->
  <rect x="50" y="490" width="700" height="50" fill="#f5f5f5" stroke="#e0e0e0" stroke-width="1"/>
  <text x="110" y="515" font-family="Arial" font-size="14" font-weight="bold" text-anchor="middle">胜率偏离</text>
  <text x="240" y="510" font-family="Arial" font-size="12" text-anchor="middle">当前胜率与</text>
  <text x="240" y="525" font-family="Arial" font-size="12" text-anchor="middle">历史胜率的偏离</text>
  <text x="400" y="515" font-family="Arial" font-size="14" text-anchor="middle">-15%</text>
  <text x="520" y="515" font-family="Arial" font-size="14" text-anchor="middle">-20%</text>
  <text x="620" y="515" font-family="Arial" font-size="14" text-anchor="middle" fill="#F44336" font-weight="bold">-22%</text>
  
  <rect x="670" y="502" width="60" height="25" rx="12" ry="12" fill="#F44336" stroke="#E53935" stroke-width="1"/>
  <text x="700" y="518" font-family="Arial" font-size="12" text-anchor="middle" fill="white" font-weight="bold">危险</text>
  
  <!-- 底部摘要 -->
  <rect x="50" y="550" width="700" height="40" fill="#e0f7fa" stroke="#b2ebf2" stroke-width="1" rx="5" ry="5"/>
  <text x="120" y="575" font-family="Arial" font-size="16" font-weight="bold">风险状态:</text>
  
  <rect x="210" y="560" width="80" height="25" rx="12" ry="12" fill="#F44336" stroke="#E53935" stroke-width="1"/>
  <text x="250" y="577" font-family="Arial" font-size="14" text-anchor="middle" fill="white" font-weight="bold">高风险</text>
  
  <text x="340" y="575" font-family="Arial" font-size="14">危险: 2</text>
  <text x="440" y="575" font-family="Arial" font-size="14">警告: 3</text>
  <text x="540" y="575" font-family="Arial" font-size="14">正常: 3</text>
  
  <rect x="620" y="560" width="120" height="25" fill="#0277bd" stroke="#01579b" stroke-width="1" rx="3" ry="3"/>
  <text x="680" y="577" font-family="Arial" font-size="12" text-anchor="middle" fill="white">详细报告</text>
</svg> 