<?xml version="1.0" encoding="UTF-8" standalone="no"?>
<svg width="1000" height="700" xmlns="http://www.w3.org/2000/svg">
  <!-- 背景 -->
  <rect width="1000" height="700" fill="#f8f9fa" rx="10" ry="10"/>
  <text x="500" y="30" text-anchor="middle" font-family="Arial" font-size="20" font-weight="bold">价差套利策略监控面板</text>
  
  <!-- 顶部状态栏 -->
  <rect x="50" y="50" width="900" height="40" fill="#0066cc" rx="5" ry="5"/>
  <text x="70" y="75" font-family="Arial" font-size="14" fill="white" font-weight="bold">套利策略: 价差套利</text>
  <text x="300" y="75" font-family="Arial" font-size="14" fill="white">状态: 运行中</text>
  <circle cx="370" cy="70" r="6" fill="#4CAF50"/>
  <text x="500" y="75" font-family="Arial" font-size="14" fill="white">监控交易对: BTC/USDT, ETH/USDT</text>
  <text x="800" y="75" font-family="Arial" font-size="14" fill="white">运行时间: 03:24:12</text>
  
  <!-- 价差矩阵区域 -->
  <rect x="50" y="110" width="440" height="280" fill="white" stroke="#ddd" stroke-width="1" rx="5" ry="5"/>
  <text x="70" y="135" font-family="Arial" font-size="16" font-weight="bold">价差矩阵</text>
  
  <!-- 价差热图 -->
  <rect x="70" y="150" width="400" height="220" fill="#f9f9f9" stroke="#eee" stroke-width="1" rx="3" ry="3"/>
  
  <!-- 热图标题 -->
  <text x="100" y="175" font-family="Arial" font-size="12" fill="#666">交易所</text>
  <text x="200" y="175" font-family="Arial" font-size="12" fill="#666">Binance</text>
  <text x="280" y="175" font-family="Arial" font-size="12" fill="#666">Coinbase</text>
  <text x="360" y="175" font-family="Arial" font-size="12" fill="#666">Kraken</text>
  <text x="440" y="175" font-family="Arial" font-size="12" fill="#666">Huobi</text>
  
  <!-- 热图行 - Binance -->
  <text x="100" y="210" font-family="Arial" font-size="12" fill="#666">Binance</text>
  <rect x="190" y="195" width="50" height="20" fill="#f0f0f0" stroke="#ddd" stroke-width="1"/>
  <rect x="270" y="195" width="50" height="20" fill="#e7f6e7" stroke="#ddd" stroke-width="1"/>
  <text x="295" y="210" font-family="Arial" font-size="11" text-anchor="middle">0.03%</text>
  <rect x="350" y="195" width="50" height="20" fill="#d4edda" stroke="#ddd" stroke-width="1"/>
  <text x="375" y="210" font-family="Arial" font-size="11" text-anchor="middle">0.08%</text>
  <rect x="430" y="195" width="50" height="20" fill="#c3e6cb" stroke="#ddd" stroke-width="1"/>
  <text x="455" y="210" font-family="Arial" font-size="11" text-anchor="middle">0.12%</text>
  
  <!-- 热图行 - Coinbase -->
  <text x="100" y="240" font-family="Arial" font-size="12" fill="#666">Coinbase</text>
  <rect x="190" y="225" width="50" height="20" fill="#f8d7da" stroke="#ddd" stroke-width="1"/>
  <text x="215" y="240" font-family="Arial" font-size="11" text-anchor="middle">-0.04%</text>
  <rect x="270" y="225" width="50" height="20" fill="#f0f0f0" stroke="#ddd" stroke-width="1"/>
  <rect x="350" y="225" width="50" height="20" fill="#e7f6e7" stroke="#ddd" stroke-width="1"/>
  <text x="375" y="240" font-family="Arial" font-size="11" text-anchor="middle">0.05%</text>
  <rect x="430" y="225" width="50" height="20" fill="#d4edda" stroke="#ddd" stroke-width="1"/>
  <text x="455" y="240" font-family="Arial" font-size="11" text-anchor="middle">0.07%</text>
  
  <!-- 热图行 - Kraken -->
  <text x="100" y="270" font-family="Arial" font-size="12" fill="#666">Kraken</text>
  <rect x="190" y="255" width="50" height="20" fill="#f8d7da" stroke="#ddd" stroke-width="1"/>
  <text x="215" y="270" font-family="Arial" font-size="11" text-anchor="middle">-0.09%</text>
  <rect x="270" y="255" width="50" height="20" fill="#f8d7da" stroke="#ddd" stroke-width="1"/>
  <text x="295" y="270" font-family="Arial" font-size="11" text-anchor="middle">-0.06%</text>
  <rect x="350" y="255" width="50" height="20" fill="#f0f0f0" stroke="#ddd" stroke-width="1"/>
  <rect x="430" y="255" width="50" height="20" fill="#e7f6e7" stroke="#ddd" stroke-width="1"/>
  <text x="455" y="270" font-family="Arial" font-size="11" text-anchor="middle">0.04%</text>
  
  <!-- 热图行 - Huobi -->
  <text x="100" y="300" font-family="Arial" font-size="12" fill="#666">Huobi</text>
  <rect x="190" y="285" width="50" height="20" fill="#f8d7da" stroke="#ddd" stroke-width="1"/>
  <text x="215" y="300" font-family="Arial" font-size="11" text-anchor="middle">-0.13%</text>
  <rect x="270" y="285" width="50" height="20" fill="#f8d7da" stroke="#ddd" stroke-width="1"/>
  <text x="295" y="300" font-family="Arial" font-size="11" text-anchor="middle">-0.08%</text>
  <rect x="350" y="285" width="50" height="20" fill="#f8d7da" stroke="#ddd" stroke-width="1"/>
  <text x="375" y="300" font-family="Arial" font-size="11" text-anchor="middle">-0.05%</text>
  <rect x="430" y="285" width="50" height="20" fill="#f0f0f0" stroke="#ddd" stroke-width="1"/>
  
  <!-- 价差趋势图 -->
  <text x="90" y="340" font-family="Arial" font-size="11" fill="#666">价差历史趋势 (Binance vs Huobi)</text>
  <rect x="70" y="350" width="400" height="20" fill="#f5f5f5" stroke="#ddd" stroke-width="1"/>
  <!-- 简单折线图 -->
  <polyline points="70,360 90,358 110,362 130,356 150,359 170,364 190,357 210,355 230,350 250,360 270,365 290,355 310,358 330,350 350,355 370,359 390,352 410,356 430,359 450,352 470,360" 
           fill="none" stroke="#0066cc" stroke-width="2"/>
  
  <!-- 执行监控区域 -->
  <rect x="510" y="110" width="440" height="280" fill="white" stroke="#ddd" stroke-width="1" rx="5" ry="5"/>
  <text x="530" y="135" font-family="Arial" font-size="16" font-weight="bold">执行监控</text>
  
  <!-- 活跃套利订单表格 -->
  <rect x="530" y="150" width="400" height="30" fill="#f5f5f5" stroke="#ddd" stroke-width="1"/>
  <text x="550" y="170" font-family="Arial" font-size="12" fill="#666">ID</text>
  <text x="600" y="170" font-family="Arial" font-size="12" fill="#666">交易对</text>
  <text x="670" y="170" font-family="Arial" font-size="12" fill="#666">交易所对</text>
  <text x="770" y="170" font-family="Arial" font-size="12" fill="#666">价差</text>
  <text x="830" y="170" font-family="Arial" font-size="12" fill="#666">数量</text>
  <text x="890" y="170" font-family="Arial" font-size="12" fill="#666">状态</text>
  
  <!-- 订单1 -->
  <rect x="530" y="180" width="400" height="25" fill="white" stroke="#ddd" stroke-width="1"/>
  <text x="550" y="197" font-family="Arial" font-size="11">#4281</text>
  <text x="600" y="197" font-family="Arial" font-size="11">BTC/USDT</text>
  <text x="670" y="197" font-family="Arial" font-size="11">Binance -> Huobi</text>
  <text x="770" y="197" font-family="Arial" font-size="11" fill="#4CAF50">0.12%</text>
  <text x="830" y="197" font-family="Arial" font-size="11">0.25 BTC</text>
  <rect x="880" y="186" width="30" height="12" fill="#4CAF50" rx="2" ry="2"/>
  <text x="895" y="196" font-family="Arial" font-size="9" fill="white" text-anchor="middle">完成</text>
  
  <!-- 订单2 -->
  <rect x="530" y="205" width="400" height="25" fill="white" stroke="#ddd" stroke-width="1"/>
  <text x="550" y="222" font-family="Arial" font-size="11">#4280</text>
  <text x="600" y="222" font-family="Arial" font-size="11">ETH/USDT</text>
  <text x="670" y="222" font-family="Arial" font-size="11">Binance -> Kraken</text>
  <text x="770" y="222" font-family="Arial" font-size="11" fill="#4CAF50">0.08%</text>
  <text x="830" y="222" font-family="Arial" font-size="11">2.5 ETH</text>
  <rect x="880" y="211" width="30" height="12" fill="#4CAF50" rx="2" ry="2"/>
  <text x="895" y="221" font-family="Arial" font-size="9" fill="white" text-anchor="middle">完成</text>
  
  <!-- 订单3 -->
  <rect x="530" y="230" width="400" height="25" fill="white" stroke="#ddd" stroke-width="1"/>
  <text x="550" y="247" font-family="Arial" font-size="11">#4279</text>
  <text x="600" y="247" font-family="Arial" font-size="11">BTC/USDT</text>
  <text x="670" y="247" font-family="Arial" font-size="11">Binance -> Coinbase</text>
  <text x="770" y="247" font-family="Arial" font-size="11" fill="#FFC107">0.03%</text>
  <text x="830" y="247" font-family="Arial" font-size="11">0.14 BTC</text>
  <rect x="880" y="236" width="30" height="12" fill="#FFC107" rx="2" ry="2"/>
  <text x="895" y="246" font-family="Arial" font-size="9" fill="white" text-anchor="middle">部分</text>
  
  <!-- 订单统计 -->
  <rect x="530" y="300" width="195" height="60" fill="#f9f9f9" stroke="#ddd" stroke-width="1"/>
  <text x="550" y="320" font-family="Arial" font-size="12" fill="#666">平均订单延迟:</text>
  <text x="680" y="320" font-family="Arial" font-size="12" font-weight="bold">76ms</text>
  <text x="550" y="340" font-family="Arial" font-size="12" fill="#666">平均滑点:</text>
  <text x="680" y="340" font-family="Arial" font-size="12" font-weight="bold">0.02%</text>
  
  <rect x="735" y="300" width="195" height="60" fill="#f9f9f9" stroke="#ddd" stroke-width="1"/>
  <text x="755" y="320" font-family="Arial" font-size="12" fill="#666">成交率:</text>
  <text x="880" y="320" font-family="Arial" font-size="12" font-weight="bold">98.5%</text>
  <text x="755" y="340" font-family="Arial" font-size="12" fill="#666">今日订单数:</text>
  <text x="880" y="340" font-family="Arial" font-size="12" font-weight="bold">174</text>
  
  <!-- 盈亏统计区域 -->
  <rect x="50" y="410" width="440" height="240" fill="white" stroke="#ddd" stroke-width="1" rx="5" ry="5"/>
  <text x="70" y="435" font-family="Arial" font-size="16" font-weight="bold">盈亏统计</text>
  
  <!-- 盈亏数据 -->
  <rect x="70" y="450" width="190" height="80" fill="#f9f9f9" stroke="#eee" stroke-width="1"/>
  <text x="90" y="475" font-family="Arial" font-size="14" font-weight="bold">今日盈亏</text>
  <text x="180" y="475" font-family="Arial" font-size="14" fill="#4CAF50" font-weight="bold">+$427.58</text>
  <text x="90" y="500" font-family="Arial" font-size="14" font-weight="bold">本周盈亏</text>
  <text x="180" y="500" font-family="Arial" font-size="14" fill="#4CAF50" font-weight="bold">+$1,893.24</text>
  
  <rect x="270" y="450" width="200" height="80" fill="#f9f9f9" stroke="#eee" stroke-width="1"/>
  <text x="290" y="475" font-family="Arial" font-size="14" font-weight="bold">套利捕获率</text>
  <text x="390" y="475" font-family="Arial" font-size="14" font-weight="bold">76.3%</text>
  <text x="290" y="500" font-family="Arial" font-size="14" font-weight="bold">平均每笔收益</text>
  <text x="390" y="500" font-family="Arial" font-size="14" font-weight="bold">$2.46</text>
  
  <!-- 盈亏走势图 -->
  <rect x="70" y="540" width="400" height="90" fill="#f9f9f9" stroke="#eee" stroke-width="1"/>
  <text x="90" y="560" font-family="Arial" font-size="12" fill="#666">24小时盈亏趋势</text>
  <!-- 简单柱状图 -->
  <rect x="90" y="580" width="15" height="30" fill="#4CAF50"/>
  <rect x="110" y="585" width="15" height="25" fill="#4CAF50"/>
  <rect x="130" y="575" width="15" height="35" fill="#4CAF50"/>
  <rect x="150" y="590" width="15" height="20" fill="#4CAF50"/>
  <rect x="170" y="580" width="15" height="30" fill="#4CAF50"/>
  <rect x="190" y="570" width="15" height="40" fill="#4CAF50"/>
  <rect x="210" y="565" width="15" height="45" fill="#4CAF50"/>
  <rect x="230" y="595" width="15" height="15" fill="#4CAF50"/>
  <rect x="250" y="585" width="15" height="25" fill="#4CAF50"/>
  <rect x="270" y="575" width="15" height="35" fill="#4CAF50"/>
  <rect x="290" y="580" width="15" height="30" fill="#4CAF50"/>
  <rect x="310" y="570" width="15" height="40" fill="#4CAF50"/>
  <rect x="330" y="575" width="15" height="35" fill="#4CAF50"/>
  <rect x="350" y="585" width="15" height="25" fill="#4CAF50"/>
  <rect x="370" y="580" width="15" height="30" fill="#4CAF50"/>
  <rect x="390" y="565" width="15" height="45" fill="#4CAF50"/>
  <rect x="410" y="570" width="15" height="40" fill="#4CAF50"/>
  <rect x="430" y="580" width="15" height="30" fill="#4CAF50"/>
  
  <!-- 警报区域 -->
  <rect x="510" y="410" width="440" height="240" fill="white" stroke="#ddd" stroke-width="1" rx="5" ry="5"/>
  <text x="530" y="435" font-family="Arial" font-size="16" font-weight="bold">警报区域</text>
  
  <!-- 活跃警报 -->
  <rect x="530" y="450" width="400" height="30" fill="#f5f5f5" stroke="#ddd" stroke-width="1"/>
  <text x="550" y="470" font-family="Arial" font-size="12" fill="#666">时间</text>
  <text x="650" y="470" font-family="Arial" font-size="12" fill="#666">类型</text>
  <text x="750" y="470" font-family="Arial" font-size="12" fill="#666">详情</text>
  <text x="880" y="470" font-family="Arial" font-size="12" fill="#666">状态</text>
  
  <!-- 警报1 -->
  <rect x="530" y="480" width="400" height="30" fill="white" stroke="#ddd" stroke-width="1"/>
  <text x="550" y="500" font-family="Arial" font-size="11">10:42:15</text>
  <rect x="630" y="487" width="80" height="16" fill="#fff3cd" stroke="#ffeeba" stroke-width="1" rx="2" ry="2"/>
  <text x="670" y="499" font-family="Arial" font-size="10" fill="#856404" text-anchor="middle">API限制</text>
  <text x="750" y="500" font-family="Arial" font-size="11">Binance API接近速率限制</text>
  <rect x="880" y="487" width="30" height="16" fill="#ffc107" rx="2" ry="2"/>
  <text x="895" y="499" font-family="Arial" font-size="10" fill="white" text-anchor="middle">活跃</text>
  
  <!-- 警报2 -->
  <rect x="530" y="510" width="400" height="30" fill="white" stroke="#ddd" stroke-width="1"/>
  <text x="550" y="530" font-family="Arial" font-size="11">10:15:03</text>
  <rect x="630" y="517" width="80" height="16" fill="#d1ecf1" stroke="#bee5eb" stroke-width="1" rx="2" ry="2"/>
  <text x="670" y="529" font-family="Arial" font-size="10" fill="#0c5460" text-anchor="middle">连接状态</text>
  <text x="750" y="530" font-family="Arial" font-size="11">Kraken连接延迟波动</text>
  <rect x="880" y="517" width="30" height="16" fill="#17a2b8" rx="2" ry="2"/>
  <text x="895" y="529" font-family="Arial" font-size="10" fill="white" text-anchor="middle">已解</text>
  
  <!-- 警报3 -->
  <rect x="530" y="540" width="400" height="30" fill="white" stroke="#ddd" stroke-width="1"/>
  <text x="550" y="560" font-family="Arial" font-size="11">09:38:27</text>
  <rect x="630" y="547" width="80" height="16" fill="#f8d7da" stroke="#f5c6cb" stroke-width="1" rx="2" ry="2"/>
  <text x="670" y="559" font-family="Arial" font-size="10" fill="#721c24" text-anchor="middle">套利风险</text>
  <text x="750" y="560" font-family="Arial" font-size="11">ETH滑点超出预期(>0.1%)</text>
  <rect x="880" y="547" width="30" height="16" fill="#dc3545" rx="2" ry="2"/>
  <text x="895" y="559" font-family="Arial" font-size="10" fill="white" text-anchor="middle">严重</text>
  
  <!-- 警报统计 -->
  <rect x="530" y="590" width="400" height="40" fill="#f9f9f9" stroke="#eee" stroke-width="1"/>
  <text x="550" y="610" font-family="Arial" font-size="12" fill="#666">今日警报总数:</text>
  <text x="660" y="610" font-family="Arial" font-size="12">12</text>
  <text x="700" y="610" font-family="Arial" font-size="12" fill="#666">活跃警报:</text>
  <text x="780" y="610" font-family="Arial" font-size="12">2</text>
  <text x="820" y="610" font-family="Arial" font-size="12" fill="#666">严重警报:</text>
  <text x="900" y="610" font-family="Arial" font-size="12" fill="#dc3545">1</text>
</svg>