<?xml version="1.0" encoding="UTF-8" standalone="no"?>
<svg width="900" height="600" xmlns="http://www.w3.org/2000/svg">
  <!-- 背景 -->
  <rect width="900" height="600" fill="#f8f9fa" rx="10" ry="10"/>
  <text x="450" y="30" text-anchor="middle" font-family="Arial" font-size="20" font-weight="bold">交易所流动性对比</text>
  
  <!-- 标签页选项卡 -->
  <rect x="50" y="50" width="800" height="40" fill="#f1f3f4" stroke="#ddd" stroke-width="1" rx="5" ry="5"/>
  <rect x="50" y="50" width="200" height="40" fill="#0066cc" stroke="#ddd" stroke-width="1" rx="5 0 0 0" ry="5 0 0 0"/>
  <text x="150" y="75" text-anchor="middle" font-family="Arial" font-size="14" fill="white" font-weight="bold">订单簿对比</text>
  <text x="350" y="75" text-anchor="middle" font-family="Arial" font-size="14" fill="#666">流动性滑点预估</text>
  <text x="550" y="75" text-anchor="middle" font-family="Arial" font-size="14" fill="#666">市场冲击模拟</text>
  <text x="750" y="75" text-anchor="middle" font-family="Arial" font-size="14" fill="#666">历史流动性分析</text>
  
  <!-- 交易对选择器 -->
  <rect x="50" y="100" width="800" height="40" fill="white" stroke="#ddd" stroke-width="1"/>
  <text x="70" y="125" font-family="Arial" font-size="14" fill="#666">交易对:</text>
  <rect x="140" y="105" width="100" height="30" fill="#f8f9fa" stroke="#ddd" stroke-width="1" rx="3" ry="3"/>
  <text x="190" y="125" text-anchor="middle" font-family="Arial" font-size="14">BTC/USDT</text>
  
  <text x="270" y="125" font-family="Arial" font-size="14" fill="#666">交易所:</text>
  <rect x="340" y="105" width="100" height="30" fill="#f8f9fa" stroke="#ddd" stroke-width="1" rx="3" ry="3"/>
  <text x="390" y="125" text-anchor="middle" font-family="Arial" font-size="14">Binance</text>
  <rect x="450" y="105" width="100" height="30" fill="#f8f9fa" stroke="#ddd" stroke-width="1" rx="3" ry="3"/>
  <text x="500" y="125" text-anchor="middle" font-family="Arial" font-size="14">Huobi</text>
  
  <text x="580" y="125" font-family="Arial" font-size="14" fill="#666">价格差异:</text>
  <text x="680" y="125" font-family="Arial" font-size="14" fill="#4CAF50" font-weight="bold">+0.12%</text>
  
  <rect x="730" y="105" width="100" height="30" fill="#0066cc" stroke="#0055aa" stroke-width="1" rx="3" ry="3"/>
  <text x="780" y="125" text-anchor="middle" font-family="Arial" font-size="14" fill="white">刷新</text>
  
  <!-- 买卖盘区域标题 -->
  <text x="250" y="165" text-anchor="middle" font-family="Arial" font-size="16" font-weight="bold">Binance 订单簿</text>
  <text x="650" y="165" text-anchor="middle" font-family="Arial" font-size="16" font-weight="bold">Huobi 订单簿</text>
  
  <!-- 买卖盘表头 - Binance -->
  <rect x="50" y="180" width="400" height="30" fill="#f5f5f5" stroke="#ddd" stroke-width="1"/>
  <text x="120" y="200" text-anchor="middle" font-family="Arial" font-size="12" fill="#666">价格 (USDT)</text>
  <text x="230" y="200" text-anchor="middle" font-family="Arial" font-size="12" fill="#666">数量 (BTC)</text>
  <text x="340" y="200" text-anchor="middle" font-family="Arial" font-size="12" fill="#666">累计 (USDT)</text>
  
  <!-- 卖盘 - Binance -->
  <rect x="50" y="210" width="400" height="25" fill="#fff7f7" stroke="#ddd" stroke-width="1"/>
  <text x="120" y="227" text-anchor="middle" font-family="Arial" font-size="12" fill="#dc3545">41,254.80</text>
  <text x="230" y="227" text-anchor="middle" font-family="Arial" font-size="12">2.54</text>
  <text x="340" y="227" text-anchor="middle" font-family="Arial" font-size="12">104,787.19</text>
  
  <rect x="50" y="235" width="400" height="25" fill="#fff7f7" stroke="#ddd" stroke-width="1"/>
  <text x="120" y="252" text-anchor="middle" font-family="Arial" font-size="12" fill="#dc3545">41,254.20</text>
  <text x="230" y="252" text-anchor="middle" font-family="Arial" font-size="12">1.21</text>
  <text x="340" y="252" text-anchor="middle" font-family="Arial" font-size="12">49,917.58</text>
  
  <rect x="50" y="260" width="400" height="25" fill="#fff7f7" stroke="#ddd" stroke-width="1"/>
  <text x="120" y="277" text-anchor="middle" font-family="Arial" font-size="12" fill="#dc3545">41,253.60</text>
  <text x="230" y="277" text-anchor="middle" font-family="Arial" font-size="12">0.87</text>
  <text x="340" y="277" text-anchor="middle" font-family="Arial" font-size="12">35,890.63</text>
  
  <rect x="50" y="285" width="400" height="25" fill="#fff7f7" stroke="#ddd" stroke-width="1"/>
  <text x="120" y="302" text-anchor="middle" font-family="Arial" font-size="12" fill="#dc3545">41,252.90</text>
  <text x="230" y="302" text-anchor="middle" font-family="Arial" font-size="12">1.35</text>
  <text x="340" y="302" text-anchor="middle" font-family="Arial" font-size="12">55,691.42</text>
  
  <rect x="50" y="310" width="400" height="25" fill="#fff7f7" stroke="#ddd" stroke-width="1"/>
  <text x="120" y="327" text-anchor="middle" font-family="Arial" font-size="12" fill="#dc3545">41,252.10</text>
  <text x="230" y="327" text-anchor="middle" font-family="Arial" font-size="12">3.22</text>
  <text x="340" y="327" text-anchor="middle" font-family="Arial" font-size="12">132,831.76</text>
  
  <!-- 价格中间行 - Binance -->
  <rect x="50" y="335" width="400" height="30" fill="#e7f6e7" stroke="#c3e6cb" stroke-width="2"/>
  <text x="120" y="355" text-anchor="middle" font-family="Arial" font-size="14" font-weight="bold">41,251.40</text>
  <text x="230" y="355" text-anchor="middle" font-family="Arial" font-size="12">最新成交价</text>
  <text x="340" y="355" text-anchor="middle" font-family="Arial" font-size="12">41,251.40 / 41,301.50</text>
  
  <!-- 买盘 - Binance -->
  <rect x="50" y="365" width="400" height="25" fill="#f7fff7" stroke="#ddd" stroke-width="1"/>
  <text x="120" y="382" text-anchor="middle" font-family="Arial" font-size="12" fill="#28a745">41,251.10</text>
  <text x="230" y="382" text-anchor="middle" font-family="Arial" font-size="12">2.15</text>
  <text x="340" y="382" text-anchor="middle" font-family="Arial" font-size="12">88,689.87</text>
  
  <rect x="50" y="390" width="400" height="25" fill="#f7fff7" stroke="#ddd" stroke-width="1"/>
  <text x="120" y="407" text-anchor="middle" font-family="Arial" font-size="12" fill="#28a745">41,250.30</text>
  <text x="230" y="407" text-anchor="middle" font-family="Arial" font-size="12">1.76</text>
  <text x="340" y="407" text-anchor="middle" font-family="Arial" font-size="12">72,600.53</text>
  
  <rect x="50" y="415" width="400" height="25" fill="#f7fff7" stroke="#ddd" stroke-width="1"/>
  <text x="120" y="432" text-anchor="middle" font-family="Arial" font-size="12" fill="#28a745">41,249.80</text>
  <text x="230" y="432" text-anchor="middle" font-family="Arial" font-size="12">0.93</text>
  <text x="340" y="432" text-anchor="middle" font-family="Arial" font-size="12">38,362.31</text>
  
  <rect x="50" y="440" width="400" height="25" fill="#f7fff7" stroke="#ddd" stroke-width="1"/>
  <text x="120" y="457" text-anchor="middle" font-family="Arial" font-size="12" fill="#28a745">41,249.20</text>
  <text x="230" y="457" text-anchor="middle" font-family="Arial" font-size="12">2.47</text>
  <text x="340" y="457" text-anchor="middle" font-family="Arial" font-size="12">101,885.52</text>
  
  <rect x="50" y="465" width="400" height="25" fill="#f7fff7" stroke="#ddd" stroke-width="1"/>
  <text x="120" y="482" text-anchor="middle" font-family="Arial" font-size="12" fill="#28a745">41,248.60</text>
  <text x="230" y="482" text-anchor="middle" font-family="Arial" font-size="12">4.18</text>
  <text x="340" y="482" text-anchor="middle" font-family="Arial" font-size="12">172,419.15</text>
  
  <!-- 买卖盘表头 - Huobi -->
  <rect x="450" y="180" width="400" height="30" fill="#f5f5f5" stroke="#ddd" stroke-width="1"/>
  <text x="520" y="200" text-anchor="middle" font-family="Arial" font-size="12" fill="#666">价格 (USDT)</text>
  <text x="630" y="200" text-anchor="middle" font-family="Arial" font-size="12" fill="#666">数量 (BTC)</text>
  <text x="740" y="200" text-anchor="middle" font-family="Arial" font-size="12" fill="#666">累计 (USDT)</text>
  
  <!-- 卖盘 - Huobi -->
  <rect x="450" y="210" width="400" height="25" fill="#fff7f7" stroke="#ddd" stroke-width="1"/>
  <text x="520" y="227" text-anchor="middle" font-family="Arial" font-size="12" fill="#dc3545">41,305.20</text>
  <text x="630" y="227" text-anchor="middle" font-family="Arial" font-size="12">1.87</text>
  <text x="740" y="227" text-anchor="middle" font-family="Arial" font-size="12">77,240.72</text>
  
  <rect x="450" y="235" width="400" height="25" fill="#fff7f7" stroke="#ddd" stroke-width="1"/>
  <text x="520" y="252" text-anchor="middle" font-family="Arial" font-size="12" fill="#dc3545">41,304.60</text>
  <text x="630" y="252" text-anchor="middle" font-family="Arial" font-size="12">1.03</text>
  <text x="740" y="252" text-anchor="middle" font-family="Arial" font-size="12">42,543.74</text>
  
  <rect x="450" y="260" width="400" height="25" fill="#fff7f7" stroke="#ddd" stroke-width="1"/>
  <text x="520" y="277" text-anchor="middle" font-family="Arial" font-size="12" fill="#dc3545">41,303.90</text>
  <text x="630" y="277" text-anchor="middle" font-family="Arial" font-size="12">0.65</text>
  <text x="740" y="277" text-anchor="middle" font-family="Arial" font-size="12">26,847.54</text>
  
  <rect x="450" y="285" width="400" height="25" fill="#fff7f7" stroke="#ddd" stroke-width="1"/>
  <text x="520" y="302" text-anchor="middle" font-family="Arial" font-size="12" fill="#dc3545">41,303.10</text>
  <text x="630" y="302" text-anchor="middle" font-family="Arial" font-size="12">2.17</text>
  <text x="740" y="302" text-anchor="middle" font-family="Arial" font-size="12">89,627.73</text>
  
  <rect x="450" y="310" width="400" height="25" fill="#fff7f7" stroke="#ddd" stroke-width="1"/>
  <text x="520" y="327" text-anchor="middle" font-family="Arial" font-size="12" fill="#dc3545">41,302.40</text>
  <text x="630" y="327" text-anchor="middle" font-family="Arial" font-size="12">3.95</text>
  <text x="740" y="327" text-anchor="middle" font-family="Arial" font-size="12">163,144.48</text>
  
  <!-- 价格中间行 - Huobi -->
  <rect x="450" y="335" width="400" height="30" fill="#e7f6e7" stroke="#c3e6cb" stroke-width="2"/>
  <text x="520" y="355" text-anchor="middle" font-family="Arial" font-size="14" font-weight="bold">41,301.50</text>
  <text x="630" y="355" text-anchor="middle" font-family="Arial" font-size="12">最新成交价</text>
  <text x="730" y="355" text-anchor="middle" font-family="Arial" font-size="12" fill="#dc3545">+0.12% vs Binance</text>
  
  <!-- 买盘 - Huobi -->
  <rect x="450" y="365" width="400" height="25" fill="#f7fff7" stroke="#ddd" stroke-width="1"/>
  <text x="520" y="382" text-anchor="middle" font-family="Arial" font-size="12" fill="#28a745">41,301.20</text>
  <text x="630" y="382" text-anchor="middle" font-family="Arial" font-size="12">1.64</text>
  <text x="740" y="382" text-anchor="middle" font-family="Arial" font-size="12">67,733.97</text>
  
  <rect x="450" y="390" width="400" height="25" fill="#f7fff7" stroke="#ddd" stroke-width="1"/>
  <text x="520" y="407" text-anchor="middle" font-family="Arial" font-size="12" fill="#28a745">41,300.40</text>
  <text x="630" y="407" text-anchor="middle" font-family="Arial" font-size="12">2.31</text>
  <text x="740" y="407" text-anchor="middle" font-family="Arial" font-size="12">95,403.92</text>
  
  <rect x="450" y="415" width="400" height="25" fill="#f7fff7" stroke="#ddd" stroke-width="1"/>
  <text x="520" y="432" text-anchor="middle" font-family="Arial" font-size="12" fill="#28a745">41,299.80</text>
  <text x="630" y="432" text-anchor="middle" font-family="Arial" font-size="12">1.25</text>
  <text x="740" y="432" text-anchor="middle" font-family="Arial" font-size="12">51,624.75</text>
  
  <rect x="450" y="440" width="400" height="25" fill="#f7fff7" stroke="#ddd" stroke-width="1"/>
  <text x="520" y="457" text-anchor="middle" font-family="Arial" font-size="12" fill="#28a745">41,299.10</text>
  <text x="630" y="457" text-anchor="middle" font-family="Arial" font-size="12">3.17</text>
  <text x="740" y="457" text-anchor="middle" font-family="Arial" font-size="12">130,918.15</text>
  
  <rect x="450" y="465" width="400" height="25" fill="#f7fff7" stroke="#ddd" stroke-width="1"/>
  <text x="520" y="482" text-anchor="middle" font-family="Arial" font-size="12" fill="#28a745">41,298.30</text>
  <text x="630" y="482" text-anchor="middle" font-family="Arial" font-size="12">4.75</text>
  <text x="740" y="482" text-anchor="middle" font-family="Arial" font-size="12">196,166.93</text>
  
  <!-- 流动性分析 -->
  <rect x="50" y="510" width="800" height="70" fill="white" stroke="#ddd" stroke-width="1" rx="5" ry="5"/>
  <text x="70" y="535" font-family="Arial" font-size="16" font-weight="bold">流动性分析</text>
  
  <text x="70" y="560" font-family="Arial" font-size="12" fill="#666">价差：0.12% (50.10 USDT)</text>
  <text x="300" y="560" font-family="Arial" font-size="12" fill="#666">Binance深度：324.52 BTC / $13,386,749</text>
  <text x="600" y="560" font-family="Arial" font-size="12" fill="#666">Huobi深度：287.19 BTC / $11,861,189</text>
  
  <!-- 套利建议 -->
  <rect x="650" y="520" width="180" height="35" fill="#e7f6e7" stroke="#c3e6cb" stroke-width="1" rx="3" ry="3"/>
  <text x="740" y="543" text-anchor="middle" font-family="Arial" font-size="14" fill="#28a745" font-weight="bold">套利机会</text>
</svg> 